G04 (created by PCBNEW (2011-07-08 BZR 3044)-stable) date 11/18/2011 4:51:04 PM*
G01*
G70*
G90*
%MOIN*%
G04 Gerber Fmt 3.4, Leading zero omitted, Abs format*
%FSLAX34Y34*%
G04 APERTURE LIST*
%ADD10C,0.001000*%
%ADD11C,0.015000*%
%ADD12C,0.008000*%
G04 APERTURE END LIST*
G54D10*
G54D11*
X28700Y-54650D02*
X28700Y-27150D01*
X78700Y-54650D02*
X28700Y-54650D01*
X78700Y-27150D02*
X78700Y-54650D01*
X28700Y-27150D02*
X78700Y-27150D01*
G54D10*
X74972Y-32502D02*
X75168Y-32698D01*
X75168Y-32502D02*
X74972Y-32698D01*
X74992Y-32693D02*
X75148Y-32693D01*
X74992Y-32507D02*
X75148Y-32507D01*
X75148Y-32693D02*
X75156Y-32692D01*
X75164Y-32691D01*
X75172Y-32689D01*
X75179Y-32687D01*
X75187Y-32684D01*
X75194Y-32680D01*
X75201Y-32676D01*
X75207Y-32671D01*
X75213Y-32665D01*
X75219Y-32659D01*
X75224Y-32653D01*
X75228Y-32646D01*
X75232Y-32639D01*
X75235Y-32631D01*
X75237Y-32624D01*
X75239Y-32616D01*
X75240Y-32608D01*
X75241Y-32600D01*
X75240Y-32592D01*
X75239Y-32584D01*
X75237Y-32576D01*
X75235Y-32569D01*
X75232Y-32561D01*
X75228Y-32554D01*
X75224Y-32547D01*
X75219Y-32541D01*
X75213Y-32535D01*
X75207Y-32529D01*
X75201Y-32524D01*
X75194Y-32520D01*
X75187Y-32516D01*
X75179Y-32513D01*
X75172Y-32511D01*
X75164Y-32509D01*
X75156Y-32508D01*
X75148Y-32507D01*
X74992Y-32507D02*
X74984Y-32508D01*
X74976Y-32509D01*
X74968Y-32511D01*
X74961Y-32513D01*
X74953Y-32516D01*
X74946Y-32520D01*
X74939Y-32524D01*
X74933Y-32529D01*
X74927Y-32535D01*
X74921Y-32541D01*
X74916Y-32547D01*
X74912Y-32554D01*
X74908Y-32561D01*
X74905Y-32569D01*
X74903Y-32576D01*
X74901Y-32584D01*
X74900Y-32592D01*
X74899Y-32600D01*
X74900Y-32608D01*
X74901Y-32616D01*
X74903Y-32624D01*
X74905Y-32631D01*
X74908Y-32639D01*
X74912Y-32646D01*
X74916Y-32653D01*
X74921Y-32659D01*
X74927Y-32665D01*
X74933Y-32671D01*
X74939Y-32676D01*
X74946Y-32680D01*
X74953Y-32684D01*
X74961Y-32687D01*
X74968Y-32689D01*
X74976Y-32691D01*
X74984Y-32692D01*
X74992Y-32693D01*
X75972Y-32502D02*
X76168Y-32698D01*
X76168Y-32502D02*
X75972Y-32698D01*
X75992Y-32693D02*
X76148Y-32693D01*
X75992Y-32507D02*
X76148Y-32507D01*
X76148Y-32693D02*
X76156Y-32692D01*
X76164Y-32691D01*
X76172Y-32689D01*
X76179Y-32687D01*
X76187Y-32684D01*
X76194Y-32680D01*
X76201Y-32676D01*
X76207Y-32671D01*
X76213Y-32665D01*
X76219Y-32659D01*
X76224Y-32653D01*
X76228Y-32646D01*
X76232Y-32639D01*
X76235Y-32631D01*
X76237Y-32624D01*
X76239Y-32616D01*
X76240Y-32608D01*
X76241Y-32600D01*
X76240Y-32592D01*
X76239Y-32584D01*
X76237Y-32576D01*
X76235Y-32569D01*
X76232Y-32561D01*
X76228Y-32554D01*
X76224Y-32547D01*
X76219Y-32541D01*
X76213Y-32535D01*
X76207Y-32529D01*
X76201Y-32524D01*
X76194Y-32520D01*
X76187Y-32516D01*
X76179Y-32513D01*
X76172Y-32511D01*
X76164Y-32509D01*
X76156Y-32508D01*
X76148Y-32507D01*
X75992Y-32507D02*
X75984Y-32508D01*
X75976Y-32509D01*
X75968Y-32511D01*
X75961Y-32513D01*
X75953Y-32516D01*
X75946Y-32520D01*
X75939Y-32524D01*
X75933Y-32529D01*
X75927Y-32535D01*
X75921Y-32541D01*
X75916Y-32547D01*
X75912Y-32554D01*
X75908Y-32561D01*
X75905Y-32569D01*
X75903Y-32576D01*
X75901Y-32584D01*
X75900Y-32592D01*
X75899Y-32600D01*
X75900Y-32608D01*
X75901Y-32616D01*
X75903Y-32624D01*
X75905Y-32631D01*
X75908Y-32639D01*
X75912Y-32646D01*
X75916Y-32653D01*
X75921Y-32659D01*
X75927Y-32665D01*
X75933Y-32671D01*
X75939Y-32676D01*
X75946Y-32680D01*
X75953Y-32684D01*
X75961Y-32687D01*
X75968Y-32689D01*
X75976Y-32691D01*
X75984Y-32692D01*
X75992Y-32693D01*
X76972Y-32502D02*
X77168Y-32698D01*
X77168Y-32502D02*
X76972Y-32698D01*
X76992Y-32693D02*
X77148Y-32693D01*
X76992Y-32507D02*
X77148Y-32507D01*
X77148Y-32693D02*
X77156Y-32692D01*
X77164Y-32691D01*
X77172Y-32689D01*
X77179Y-32687D01*
X77187Y-32684D01*
X77194Y-32680D01*
X77201Y-32676D01*
X77207Y-32671D01*
X77213Y-32665D01*
X77219Y-32659D01*
X77224Y-32653D01*
X77228Y-32646D01*
X77232Y-32639D01*
X77235Y-32631D01*
X77237Y-32624D01*
X77239Y-32616D01*
X77240Y-32608D01*
X77241Y-32600D01*
X77240Y-32592D01*
X77239Y-32584D01*
X77237Y-32576D01*
X77235Y-32569D01*
X77232Y-32561D01*
X77228Y-32554D01*
X77224Y-32547D01*
X77219Y-32541D01*
X77213Y-32535D01*
X77207Y-32529D01*
X77201Y-32524D01*
X77194Y-32520D01*
X77187Y-32516D01*
X77179Y-32513D01*
X77172Y-32511D01*
X77164Y-32509D01*
X77156Y-32508D01*
X77148Y-32507D01*
X76992Y-32507D02*
X76984Y-32508D01*
X76976Y-32509D01*
X76968Y-32511D01*
X76961Y-32513D01*
X76953Y-32516D01*
X76946Y-32520D01*
X76939Y-32524D01*
X76933Y-32529D01*
X76927Y-32535D01*
X76921Y-32541D01*
X76916Y-32547D01*
X76912Y-32554D01*
X76908Y-32561D01*
X76905Y-32569D01*
X76903Y-32576D01*
X76901Y-32584D01*
X76900Y-32592D01*
X76899Y-32600D01*
X76900Y-32608D01*
X76901Y-32616D01*
X76903Y-32624D01*
X76905Y-32631D01*
X76908Y-32639D01*
X76912Y-32646D01*
X76916Y-32653D01*
X76921Y-32659D01*
X76927Y-32665D01*
X76933Y-32671D01*
X76939Y-32676D01*
X76946Y-32680D01*
X76953Y-32684D01*
X76961Y-32687D01*
X76968Y-32689D01*
X76976Y-32691D01*
X76984Y-32692D01*
X76992Y-32693D01*
X51175Y-41700D02*
X51172Y-41724D01*
X51165Y-41747D01*
X51154Y-41769D01*
X51138Y-41788D01*
X51119Y-41803D01*
X51098Y-41815D01*
X51075Y-41822D01*
X51050Y-41824D01*
X51027Y-41822D01*
X51004Y-41815D01*
X50982Y-41804D01*
X50963Y-41789D01*
X50947Y-41770D01*
X50936Y-41749D01*
X50928Y-41725D01*
X50926Y-41701D01*
X50928Y-41678D01*
X50934Y-41654D01*
X50945Y-41633D01*
X50961Y-41614D01*
X50979Y-41598D01*
X51000Y-41586D01*
X51024Y-41578D01*
X51048Y-41576D01*
X51071Y-41577D01*
X51095Y-41584D01*
X51116Y-41595D01*
X51136Y-41610D01*
X51152Y-41628D01*
X51164Y-41650D01*
X51171Y-41673D01*
X51174Y-41697D01*
X51175Y-41700D01*
X75025Y-34800D02*
X75022Y-34824D01*
X75015Y-34847D01*
X75004Y-34869D01*
X74988Y-34888D01*
X74969Y-34903D01*
X74948Y-34915D01*
X74925Y-34922D01*
X74900Y-34924D01*
X74877Y-34922D01*
X74854Y-34915D01*
X74832Y-34904D01*
X74813Y-34889D01*
X74797Y-34870D01*
X74786Y-34849D01*
X74778Y-34825D01*
X74776Y-34801D01*
X74778Y-34778D01*
X74784Y-34754D01*
X74795Y-34733D01*
X74811Y-34714D01*
X74829Y-34698D01*
X74850Y-34686D01*
X74874Y-34678D01*
X74898Y-34676D01*
X74921Y-34677D01*
X74945Y-34684D01*
X74966Y-34695D01*
X74986Y-34710D01*
X75002Y-34728D01*
X75014Y-34750D01*
X75021Y-34773D01*
X75024Y-34797D01*
X75025Y-34800D01*
X75837Y-40847D02*
X75834Y-40871D01*
X75827Y-40894D01*
X75816Y-40916D01*
X75800Y-40935D01*
X75781Y-40950D01*
X75760Y-40962D01*
X75737Y-40969D01*
X75712Y-40971D01*
X75689Y-40969D01*
X75666Y-40962D01*
X75644Y-40951D01*
X75625Y-40936D01*
X75609Y-40917D01*
X75598Y-40896D01*
X75590Y-40872D01*
X75588Y-40848D01*
X75590Y-40825D01*
X75596Y-40801D01*
X75607Y-40780D01*
X75623Y-40761D01*
X75641Y-40745D01*
X75662Y-40733D01*
X75686Y-40725D01*
X75710Y-40723D01*
X75733Y-40724D01*
X75757Y-40731D01*
X75778Y-40742D01*
X75798Y-40757D01*
X75814Y-40775D01*
X75826Y-40797D01*
X75833Y-40820D01*
X75836Y-40844D01*
X75837Y-40847D01*
X76627Y-40844D02*
X76624Y-40868D01*
X76617Y-40891D01*
X76606Y-40913D01*
X76590Y-40932D01*
X76571Y-40947D01*
X76550Y-40959D01*
X76527Y-40966D01*
X76502Y-40968D01*
X76479Y-40966D01*
X76456Y-40959D01*
X76434Y-40948D01*
X76415Y-40933D01*
X76399Y-40914D01*
X76388Y-40893D01*
X76380Y-40869D01*
X76378Y-40845D01*
X76380Y-40822D01*
X76386Y-40798D01*
X76397Y-40777D01*
X76413Y-40758D01*
X76431Y-40742D01*
X76452Y-40730D01*
X76476Y-40722D01*
X76500Y-40720D01*
X76523Y-40721D01*
X76547Y-40728D01*
X76568Y-40739D01*
X76588Y-40754D01*
X76604Y-40772D01*
X76616Y-40794D01*
X76623Y-40817D01*
X76626Y-40841D01*
X76627Y-40844D01*
X76863Y-37604D02*
X76860Y-37628D01*
X76853Y-37651D01*
X76842Y-37673D01*
X76826Y-37692D01*
X76807Y-37707D01*
X76786Y-37719D01*
X76763Y-37726D01*
X76738Y-37728D01*
X76715Y-37726D01*
X76692Y-37719D01*
X76670Y-37708D01*
X76651Y-37693D01*
X76635Y-37674D01*
X76624Y-37653D01*
X76616Y-37629D01*
X76614Y-37605D01*
X76616Y-37582D01*
X76622Y-37558D01*
X76633Y-37537D01*
X76649Y-37518D01*
X76667Y-37502D01*
X76688Y-37490D01*
X76712Y-37482D01*
X76736Y-37480D01*
X76759Y-37481D01*
X76783Y-37488D01*
X76804Y-37499D01*
X76824Y-37514D01*
X76840Y-37532D01*
X76852Y-37554D01*
X76859Y-37577D01*
X76862Y-37601D01*
X76863Y-37604D01*
X77277Y-40682D02*
X77274Y-40706D01*
X77267Y-40729D01*
X77256Y-40751D01*
X77240Y-40770D01*
X77221Y-40785D01*
X77200Y-40797D01*
X77177Y-40804D01*
X77152Y-40806D01*
X77129Y-40804D01*
X77106Y-40797D01*
X77084Y-40786D01*
X77065Y-40771D01*
X77049Y-40752D01*
X77038Y-40731D01*
X77030Y-40707D01*
X77028Y-40683D01*
X77030Y-40660D01*
X77036Y-40636D01*
X77047Y-40615D01*
X77063Y-40596D01*
X77081Y-40580D01*
X77102Y-40568D01*
X77126Y-40560D01*
X77150Y-40558D01*
X77173Y-40559D01*
X77197Y-40566D01*
X77218Y-40577D01*
X77238Y-40592D01*
X77254Y-40610D01*
X77266Y-40632D01*
X77273Y-40655D01*
X77276Y-40679D01*
X77277Y-40682D01*
X77755Y-43042D02*
X77752Y-43066D01*
X77745Y-43089D01*
X77734Y-43111D01*
X77718Y-43130D01*
X77699Y-43145D01*
X77678Y-43157D01*
X77655Y-43164D01*
X77630Y-43166D01*
X77607Y-43164D01*
X77584Y-43157D01*
X77562Y-43146D01*
X77543Y-43131D01*
X77527Y-43112D01*
X77516Y-43091D01*
X77508Y-43067D01*
X77506Y-43043D01*
X77508Y-43020D01*
X77514Y-42996D01*
X77525Y-42975D01*
X77541Y-42956D01*
X77559Y-42940D01*
X77580Y-42928D01*
X77604Y-42920D01*
X77628Y-42918D01*
X77651Y-42919D01*
X77675Y-42926D01*
X77696Y-42937D01*
X77716Y-42952D01*
X77732Y-42970D01*
X77744Y-42992D01*
X77751Y-43015D01*
X77754Y-43039D01*
X77755Y-43042D01*
X42494Y-49595D02*
X42494Y-49909D01*
X42651Y-49752D02*
X42337Y-49752D01*
X44622Y-50696D02*
X44618Y-50727D01*
X44609Y-50756D01*
X44595Y-50784D01*
X44575Y-50808D01*
X44551Y-50828D01*
X44524Y-50843D01*
X44494Y-50852D01*
X44463Y-50855D01*
X44433Y-50853D01*
X44403Y-50844D01*
X44375Y-50829D01*
X44351Y-50810D01*
X44330Y-50786D01*
X44315Y-50759D01*
X44306Y-50729D01*
X44303Y-50698D01*
X44305Y-50668D01*
X44314Y-50638D01*
X44328Y-50610D01*
X44347Y-50585D01*
X44371Y-50565D01*
X44398Y-50550D01*
X44428Y-50540D01*
X44459Y-50537D01*
X44489Y-50539D01*
X44519Y-50547D01*
X44547Y-50561D01*
X44572Y-50581D01*
X44592Y-50604D01*
X44608Y-50631D01*
X44618Y-50661D01*
X44621Y-50692D01*
X44622Y-50696D01*
X44302Y-50536D02*
X44622Y-50856D01*
X44622Y-50536D02*
X44302Y-50856D01*
X40900Y-45150D02*
X40896Y-45188D01*
X40884Y-45226D01*
X40866Y-45260D01*
X40841Y-45290D01*
X40811Y-45315D01*
X40777Y-45334D01*
X40740Y-45345D01*
X40701Y-45349D01*
X40663Y-45346D01*
X40626Y-45335D01*
X40591Y-45317D01*
X40561Y-45292D01*
X40535Y-45262D01*
X40517Y-45228D01*
X40505Y-45191D01*
X40501Y-45152D01*
X40504Y-45114D01*
X40515Y-45077D01*
X40532Y-45042D01*
X40557Y-45012D01*
X40586Y-44986D01*
X40620Y-44967D01*
X40658Y-44955D01*
X40696Y-44951D01*
X40734Y-44954D01*
X40772Y-44964D01*
X40807Y-44982D01*
X40837Y-45006D01*
X40863Y-45035D01*
X40882Y-45069D01*
X40895Y-45106D01*
X40899Y-45145D01*
X40900Y-45150D01*
X40500Y-45150D02*
X40900Y-45150D01*
X42900Y-45150D02*
X42896Y-45188D01*
X42884Y-45226D01*
X42866Y-45260D01*
X42841Y-45290D01*
X42811Y-45315D01*
X42777Y-45334D01*
X42740Y-45345D01*
X42701Y-45349D01*
X42663Y-45346D01*
X42626Y-45335D01*
X42591Y-45317D01*
X42561Y-45292D01*
X42535Y-45262D01*
X42517Y-45228D01*
X42505Y-45191D01*
X42501Y-45152D01*
X42504Y-45114D01*
X42515Y-45077D01*
X42532Y-45042D01*
X42557Y-45012D01*
X42586Y-44986D01*
X42620Y-44967D01*
X42658Y-44955D01*
X42696Y-44951D01*
X42734Y-44954D01*
X42772Y-44964D01*
X42807Y-44982D01*
X42837Y-45006D01*
X42863Y-45035D01*
X42882Y-45069D01*
X42895Y-45106D01*
X42899Y-45145D01*
X42900Y-45150D01*
X42500Y-45150D02*
X42900Y-45150D01*
X45900Y-45150D02*
X45896Y-45188D01*
X45884Y-45226D01*
X45866Y-45260D01*
X45841Y-45290D01*
X45811Y-45315D01*
X45777Y-45334D01*
X45740Y-45345D01*
X45701Y-45349D01*
X45663Y-45346D01*
X45626Y-45335D01*
X45591Y-45317D01*
X45561Y-45292D01*
X45535Y-45262D01*
X45517Y-45228D01*
X45505Y-45191D01*
X45501Y-45152D01*
X45504Y-45114D01*
X45515Y-45077D01*
X45532Y-45042D01*
X45557Y-45012D01*
X45586Y-44986D01*
X45620Y-44967D01*
X45658Y-44955D01*
X45696Y-44951D01*
X45734Y-44954D01*
X45772Y-44964D01*
X45807Y-44982D01*
X45837Y-45006D01*
X45863Y-45035D01*
X45882Y-45069D01*
X45895Y-45106D01*
X45899Y-45145D01*
X45900Y-45150D01*
X45500Y-45150D02*
X45900Y-45150D01*
X46900Y-45150D02*
X46896Y-45188D01*
X46884Y-45226D01*
X46866Y-45260D01*
X46841Y-45290D01*
X46811Y-45315D01*
X46777Y-45334D01*
X46740Y-45345D01*
X46701Y-45349D01*
X46663Y-45346D01*
X46626Y-45335D01*
X46591Y-45317D01*
X46561Y-45292D01*
X46535Y-45262D01*
X46517Y-45228D01*
X46505Y-45191D01*
X46501Y-45152D01*
X46504Y-45114D01*
X46515Y-45077D01*
X46532Y-45042D01*
X46557Y-45012D01*
X46586Y-44986D01*
X46620Y-44967D01*
X46658Y-44955D01*
X46696Y-44951D01*
X46734Y-44954D01*
X46772Y-44964D01*
X46807Y-44982D01*
X46837Y-45006D01*
X46863Y-45035D01*
X46882Y-45069D01*
X46895Y-45106D01*
X46899Y-45145D01*
X46900Y-45150D01*
X46500Y-45150D02*
X46900Y-45150D01*
X75252Y-28091D02*
X75248Y-28129D01*
X75236Y-28167D01*
X75218Y-28201D01*
X75193Y-28231D01*
X75163Y-28256D01*
X75129Y-28275D01*
X75092Y-28286D01*
X75053Y-28290D01*
X75015Y-28287D01*
X74978Y-28276D01*
X74943Y-28258D01*
X74913Y-28233D01*
X74887Y-28203D01*
X74869Y-28169D01*
X74857Y-28132D01*
X74853Y-28093D01*
X74856Y-28055D01*
X74867Y-28018D01*
X74884Y-27983D01*
X74909Y-27953D01*
X74938Y-27927D01*
X74972Y-27908D01*
X75010Y-27896D01*
X75048Y-27892D01*
X75086Y-27895D01*
X75124Y-27905D01*
X75159Y-27923D01*
X75189Y-27947D01*
X75215Y-27976D01*
X75234Y-28010D01*
X75247Y-28047D01*
X75251Y-28086D01*
X75252Y-28091D01*
X74852Y-28091D02*
X75252Y-28091D01*
X75252Y-29091D02*
X75248Y-29129D01*
X75236Y-29167D01*
X75218Y-29201D01*
X75193Y-29231D01*
X75163Y-29256D01*
X75129Y-29275D01*
X75092Y-29286D01*
X75053Y-29290D01*
X75015Y-29287D01*
X74978Y-29276D01*
X74943Y-29258D01*
X74913Y-29233D01*
X74887Y-29203D01*
X74869Y-29169D01*
X74857Y-29132D01*
X74853Y-29093D01*
X74856Y-29055D01*
X74867Y-29018D01*
X74884Y-28983D01*
X74909Y-28953D01*
X74938Y-28927D01*
X74972Y-28908D01*
X75010Y-28896D01*
X75048Y-28892D01*
X75086Y-28895D01*
X75124Y-28905D01*
X75159Y-28923D01*
X75189Y-28947D01*
X75215Y-28976D01*
X75234Y-29010D01*
X75247Y-29047D01*
X75251Y-29086D01*
X75252Y-29091D01*
X74852Y-29091D02*
X75252Y-29091D01*
X76252Y-28091D02*
X76248Y-28129D01*
X76236Y-28167D01*
X76218Y-28201D01*
X76193Y-28231D01*
X76163Y-28256D01*
X76129Y-28275D01*
X76092Y-28286D01*
X76053Y-28290D01*
X76015Y-28287D01*
X75978Y-28276D01*
X75943Y-28258D01*
X75913Y-28233D01*
X75887Y-28203D01*
X75869Y-28169D01*
X75857Y-28132D01*
X75853Y-28093D01*
X75856Y-28055D01*
X75867Y-28018D01*
X75884Y-27983D01*
X75909Y-27953D01*
X75938Y-27927D01*
X75972Y-27908D01*
X76010Y-27896D01*
X76048Y-27892D01*
X76086Y-27895D01*
X76124Y-27905D01*
X76159Y-27923D01*
X76189Y-27947D01*
X76215Y-27976D01*
X76234Y-28010D01*
X76247Y-28047D01*
X76251Y-28086D01*
X76252Y-28091D01*
X75852Y-28091D02*
X76252Y-28091D01*
X76252Y-29091D02*
X76248Y-29129D01*
X76236Y-29167D01*
X76218Y-29201D01*
X76193Y-29231D01*
X76163Y-29256D01*
X76129Y-29275D01*
X76092Y-29286D01*
X76053Y-29290D01*
X76015Y-29287D01*
X75978Y-29276D01*
X75943Y-29258D01*
X75913Y-29233D01*
X75887Y-29203D01*
X75869Y-29169D01*
X75857Y-29132D01*
X75853Y-29093D01*
X75856Y-29055D01*
X75867Y-29018D01*
X75884Y-28983D01*
X75909Y-28953D01*
X75938Y-28927D01*
X75972Y-28908D01*
X76010Y-28896D01*
X76048Y-28892D01*
X76086Y-28895D01*
X76124Y-28905D01*
X76159Y-28923D01*
X76189Y-28947D01*
X76215Y-28976D01*
X76234Y-29010D01*
X76247Y-29047D01*
X76251Y-29086D01*
X76252Y-29091D01*
X75852Y-29091D02*
X76252Y-29091D01*
X77252Y-28091D02*
X77248Y-28129D01*
X77236Y-28167D01*
X77218Y-28201D01*
X77193Y-28231D01*
X77163Y-28256D01*
X77129Y-28275D01*
X77092Y-28286D01*
X77053Y-28290D01*
X77015Y-28287D01*
X76978Y-28276D01*
X76943Y-28258D01*
X76913Y-28233D01*
X76887Y-28203D01*
X76869Y-28169D01*
X76857Y-28132D01*
X76853Y-28093D01*
X76856Y-28055D01*
X76867Y-28018D01*
X76884Y-27983D01*
X76909Y-27953D01*
X76938Y-27927D01*
X76972Y-27908D01*
X77010Y-27896D01*
X77048Y-27892D01*
X77086Y-27895D01*
X77124Y-27905D01*
X77159Y-27923D01*
X77189Y-27947D01*
X77215Y-27976D01*
X77234Y-28010D01*
X77247Y-28047D01*
X77251Y-28086D01*
X77252Y-28091D01*
X76852Y-28091D02*
X77252Y-28091D01*
X77252Y-29091D02*
X77248Y-29129D01*
X77236Y-29167D01*
X77218Y-29201D01*
X77193Y-29231D01*
X77163Y-29256D01*
X77129Y-29275D01*
X77092Y-29286D01*
X77053Y-29290D01*
X77015Y-29287D01*
X76978Y-29276D01*
X76943Y-29258D01*
X76913Y-29233D01*
X76887Y-29203D01*
X76869Y-29169D01*
X76857Y-29132D01*
X76853Y-29093D01*
X76856Y-29055D01*
X76867Y-29018D01*
X76884Y-28983D01*
X76909Y-28953D01*
X76938Y-28927D01*
X76972Y-28908D01*
X77010Y-28896D01*
X77048Y-28892D01*
X77086Y-28895D01*
X77124Y-28905D01*
X77159Y-28923D01*
X77189Y-28947D01*
X77215Y-28976D01*
X77234Y-29010D01*
X77247Y-29047D01*
X77251Y-29086D01*
X77252Y-29091D01*
X76852Y-29091D02*
X77252Y-29091D01*
X38975Y-46000D02*
X38970Y-46043D01*
X38958Y-46085D01*
X38937Y-46124D01*
X38909Y-46158D01*
X38875Y-46186D01*
X38837Y-46207D01*
X38795Y-46220D01*
X38751Y-46224D01*
X38708Y-46221D01*
X38666Y-46208D01*
X38627Y-46188D01*
X38593Y-46160D01*
X38565Y-46127D01*
X38544Y-46088D01*
X38530Y-46046D01*
X38526Y-46003D01*
X38529Y-45960D01*
X38541Y-45918D01*
X38561Y-45879D01*
X38589Y-45844D01*
X38622Y-45816D01*
X38660Y-45794D01*
X38702Y-45781D01*
X38746Y-45776D01*
X38789Y-45779D01*
X38831Y-45791D01*
X38870Y-45811D01*
X38905Y-45838D01*
X38933Y-45871D01*
X38955Y-45909D01*
X38969Y-45951D01*
X38974Y-45994D01*
X38975Y-46000D01*
X38750Y-45775D02*
X38750Y-46225D01*
X38530Y-45775D02*
X38530Y-46225D01*
X38970Y-45775D02*
X38970Y-46225D01*
X38530Y-46225D02*
X38531Y-46244D01*
X38534Y-46263D01*
X38538Y-46281D01*
X38544Y-46300D01*
X38551Y-46317D01*
X38560Y-46334D01*
X38570Y-46351D01*
X38582Y-46366D01*
X38595Y-46380D01*
X38609Y-46393D01*
X38624Y-46405D01*
X38640Y-46415D01*
X38658Y-46424D01*
X38675Y-46431D01*
X38694Y-46437D01*
X38712Y-46441D01*
X38731Y-46444D01*
X38750Y-46445D01*
X38769Y-46444D01*
X38788Y-46441D01*
X38806Y-46437D01*
X38825Y-46431D01*
X38842Y-46424D01*
X38860Y-46415D01*
X38876Y-46405D01*
X38891Y-46393D01*
X38905Y-46380D01*
X38918Y-46366D01*
X38930Y-46351D01*
X38940Y-46335D01*
X38949Y-46317D01*
X38956Y-46300D01*
X38962Y-46281D01*
X38966Y-46263D01*
X38969Y-46244D01*
X38970Y-46225D01*
X38970Y-45775D02*
X38969Y-45756D01*
X38966Y-45737D01*
X38962Y-45719D01*
X38956Y-45700D01*
X38949Y-45683D01*
X38940Y-45666D01*
X38930Y-45649D01*
X38918Y-45634D01*
X38905Y-45620D01*
X38891Y-45607D01*
X38876Y-45595D01*
X38860Y-45585D01*
X38842Y-45576D01*
X38825Y-45569D01*
X38806Y-45563D01*
X38788Y-45559D01*
X38769Y-45556D01*
X38750Y-45555D01*
X38731Y-45556D01*
X38712Y-45559D01*
X38694Y-45563D01*
X38675Y-45569D01*
X38658Y-45576D01*
X38641Y-45585D01*
X38624Y-45595D01*
X38609Y-45607D01*
X38595Y-45620D01*
X38582Y-45634D01*
X38570Y-45649D01*
X38560Y-45666D01*
X38551Y-45683D01*
X38544Y-45700D01*
X38538Y-45719D01*
X38534Y-45737D01*
X38531Y-45756D01*
X38530Y-45775D01*
X48625Y-46150D02*
X48620Y-46193D01*
X48608Y-46235D01*
X48587Y-46274D01*
X48559Y-46308D01*
X48525Y-46336D01*
X48487Y-46357D01*
X48445Y-46370D01*
X48401Y-46374D01*
X48358Y-46371D01*
X48316Y-46358D01*
X48277Y-46338D01*
X48243Y-46310D01*
X48215Y-46277D01*
X48194Y-46238D01*
X48180Y-46196D01*
X48176Y-46153D01*
X48179Y-46110D01*
X48191Y-46068D01*
X48211Y-46029D01*
X48239Y-45994D01*
X48272Y-45966D01*
X48310Y-45944D01*
X48352Y-45931D01*
X48396Y-45926D01*
X48439Y-45929D01*
X48481Y-45941D01*
X48520Y-45961D01*
X48555Y-45988D01*
X48583Y-46021D01*
X48605Y-46059D01*
X48619Y-46101D01*
X48624Y-46144D01*
X48625Y-46150D01*
X48400Y-45925D02*
X48400Y-46375D01*
X48180Y-45925D02*
X48180Y-46375D01*
X48620Y-45925D02*
X48620Y-46375D01*
X48180Y-46375D02*
X48181Y-46394D01*
X48184Y-46413D01*
X48188Y-46431D01*
X48194Y-46450D01*
X48201Y-46467D01*
X48210Y-46484D01*
X48220Y-46501D01*
X48232Y-46516D01*
X48245Y-46530D01*
X48259Y-46543D01*
X48274Y-46555D01*
X48290Y-46565D01*
X48308Y-46574D01*
X48325Y-46581D01*
X48344Y-46587D01*
X48362Y-46591D01*
X48381Y-46594D01*
X48400Y-46595D01*
X48419Y-46594D01*
X48438Y-46591D01*
X48456Y-46587D01*
X48475Y-46581D01*
X48492Y-46574D01*
X48510Y-46565D01*
X48526Y-46555D01*
X48541Y-46543D01*
X48555Y-46530D01*
X48568Y-46516D01*
X48580Y-46501D01*
X48590Y-46485D01*
X48599Y-46467D01*
X48606Y-46450D01*
X48612Y-46431D01*
X48616Y-46413D01*
X48619Y-46394D01*
X48620Y-46375D01*
X48620Y-45925D02*
X48619Y-45906D01*
X48616Y-45887D01*
X48612Y-45869D01*
X48606Y-45850D01*
X48599Y-45833D01*
X48590Y-45816D01*
X48580Y-45799D01*
X48568Y-45784D01*
X48555Y-45770D01*
X48541Y-45757D01*
X48526Y-45745D01*
X48510Y-45735D01*
X48492Y-45726D01*
X48475Y-45719D01*
X48456Y-45713D01*
X48438Y-45709D01*
X48419Y-45706D01*
X48400Y-45705D01*
X48381Y-45706D01*
X48362Y-45709D01*
X48344Y-45713D01*
X48325Y-45719D01*
X48308Y-45726D01*
X48291Y-45735D01*
X48274Y-45745D01*
X48259Y-45757D01*
X48245Y-45770D01*
X48232Y-45784D01*
X48220Y-45799D01*
X48210Y-45816D01*
X48201Y-45833D01*
X48194Y-45850D01*
X48188Y-45869D01*
X48184Y-45887D01*
X48181Y-45906D01*
X48180Y-45925D01*
X42356Y-37310D02*
X42356Y-36990D01*
X42036Y-36990D01*
X42036Y-37310D01*
X42356Y-37310D01*
X44364Y-37310D02*
X44364Y-36990D01*
X44044Y-36990D01*
X44044Y-37310D01*
X44364Y-37310D01*
X58710Y-40656D02*
X58710Y-40336D01*
X58390Y-40336D01*
X58390Y-40656D01*
X58710Y-40656D01*
X58710Y-42664D02*
X58710Y-42344D01*
X58390Y-42344D01*
X58390Y-42664D01*
X58710Y-42664D01*
X64700Y-36264D02*
X64975Y-35989D01*
X64700Y-35714D01*
X64425Y-35989D01*
X64700Y-36264D01*
X64700Y-53586D02*
X64975Y-53311D01*
X64700Y-53036D01*
X64425Y-53311D01*
X64700Y-53586D01*
X48430Y-29380D02*
X48430Y-28920D01*
X47970Y-28920D01*
X47970Y-29380D01*
X48430Y-29380D01*
X47875Y-28825D02*
X48525Y-29475D01*
X48525Y-28825D02*
X47875Y-29475D01*
X48430Y-37380D02*
X48430Y-36920D01*
X47970Y-36920D01*
X47970Y-37380D01*
X48430Y-37380D01*
X47875Y-36825D02*
X48525Y-37475D01*
X48525Y-36825D02*
X47875Y-37475D01*
X50430Y-29380D02*
X50430Y-28920D01*
X49970Y-28920D01*
X49970Y-29380D01*
X50430Y-29380D01*
X49875Y-28825D02*
X50525Y-29475D01*
X50525Y-28825D02*
X49875Y-29475D01*
X50430Y-37380D02*
X50430Y-36920D01*
X49970Y-36920D01*
X49970Y-37380D01*
X50430Y-37380D01*
X49875Y-36825D02*
X50525Y-37475D01*
X50525Y-36825D02*
X49875Y-37475D01*
X52430Y-29380D02*
X52430Y-28920D01*
X51970Y-28920D01*
X51970Y-29380D01*
X52430Y-29380D01*
X51875Y-28825D02*
X52525Y-29475D01*
X52525Y-28825D02*
X51875Y-29475D01*
X52430Y-37380D02*
X52430Y-36920D01*
X51970Y-36920D01*
X51970Y-37380D01*
X52430Y-37380D01*
X51875Y-36825D02*
X52525Y-37475D01*
X52525Y-36825D02*
X51875Y-37475D01*
X54430Y-29380D02*
X54430Y-28920D01*
X53970Y-28920D01*
X53970Y-29380D01*
X54430Y-29380D01*
X53875Y-28825D02*
X54525Y-29475D01*
X54525Y-28825D02*
X53875Y-29475D01*
X54430Y-37380D02*
X54430Y-36920D01*
X53970Y-36920D01*
X53970Y-37380D01*
X54430Y-37380D01*
X53875Y-36825D02*
X54525Y-37475D01*
X54525Y-36825D02*
X53875Y-37475D01*
X56430Y-29380D02*
X56430Y-28920D01*
X55970Y-28920D01*
X55970Y-29380D01*
X56430Y-29380D01*
X55875Y-28825D02*
X56525Y-29475D01*
X56525Y-28825D02*
X55875Y-29475D01*
X56430Y-37380D02*
X56430Y-36920D01*
X55970Y-36920D01*
X55970Y-37380D01*
X56430Y-37380D01*
X55875Y-36825D02*
X56525Y-37475D01*
X56525Y-36825D02*
X55875Y-37475D01*
X32375Y-50580D02*
X32755Y-50200D01*
X32375Y-49820D01*
X31995Y-50200D01*
X32375Y-50580D01*
X32375Y-49820D02*
X32375Y-50580D01*
X32755Y-50200D02*
X31995Y-50200D01*
X33875Y-33330D02*
X34255Y-32950D01*
X33875Y-32570D01*
X33495Y-32950D01*
X33875Y-33330D01*
X33875Y-32570D02*
X33875Y-33330D01*
X34255Y-32950D02*
X33495Y-32950D01*
X36125Y-50580D02*
X36505Y-50200D01*
X36125Y-49820D01*
X35745Y-50200D01*
X36125Y-50580D01*
X36125Y-49820D02*
X36125Y-50580D01*
X36505Y-50200D02*
X35745Y-50200D01*
X37625Y-33330D02*
X38005Y-32950D01*
X37625Y-32570D01*
X37245Y-32950D01*
X37625Y-33330D01*
X37625Y-32570D02*
X37625Y-33330D01*
X38005Y-32950D02*
X37245Y-32950D01*
X35116Y-39016D02*
X35116Y-37884D01*
X33984Y-37884D01*
X33984Y-39016D01*
X35116Y-39016D01*
X33750Y-37650D02*
X35350Y-39250D01*
X35116Y-44516D02*
X35116Y-43384D01*
X33984Y-43384D01*
X33984Y-44516D01*
X35116Y-44516D01*
X33750Y-43150D02*
X35350Y-44750D01*
X38350Y-41700D02*
X39350Y-40700D01*
X38350Y-39700D01*
X37350Y-40700D01*
X38350Y-41700D01*
X38350Y-39700D02*
X38350Y-41700D01*
X37355Y-40700D02*
X37355Y-40700D01*
X39345Y-40700D02*
X39345Y-40700D01*
X37355Y-40700D02*
X37359Y-40786D01*
X37371Y-40872D01*
X37389Y-40957D01*
X37416Y-41040D01*
X37449Y-41120D01*
X37489Y-41197D01*
X37535Y-41270D01*
X37588Y-41339D01*
X37647Y-41403D01*
X37711Y-41462D01*
X37780Y-41515D01*
X37853Y-41561D01*
X37930Y-41601D01*
X38010Y-41634D01*
X38093Y-41661D01*
X38178Y-41679D01*
X38264Y-41691D01*
X38350Y-41695D01*
X38436Y-41691D01*
X38522Y-41679D01*
X38607Y-41661D01*
X38690Y-41634D01*
X38770Y-41601D01*
X38847Y-41561D01*
X38920Y-41515D01*
X38989Y-41462D01*
X39053Y-41403D01*
X39112Y-41339D01*
X39165Y-41270D01*
X39211Y-41197D01*
X39251Y-41120D01*
X39284Y-41040D01*
X39311Y-40957D01*
X39329Y-40872D01*
X39341Y-40786D01*
X39345Y-40700D01*
X39345Y-40700D02*
X39341Y-40614D01*
X39329Y-40528D01*
X39311Y-40443D01*
X39284Y-40360D01*
X39251Y-40280D01*
X39211Y-40203D01*
X39165Y-40130D01*
X39112Y-40061D01*
X39053Y-39997D01*
X38989Y-39938D01*
X38920Y-39885D01*
X38847Y-39839D01*
X38770Y-39799D01*
X38690Y-39766D01*
X38607Y-39739D01*
X38522Y-39721D01*
X38436Y-39709D01*
X38350Y-39705D01*
X38264Y-39709D01*
X38178Y-39721D01*
X38093Y-39739D01*
X38010Y-39766D01*
X37930Y-39799D01*
X37853Y-39839D01*
X37780Y-39885D01*
X37711Y-39938D01*
X37647Y-39997D01*
X37588Y-40061D01*
X37535Y-40130D01*
X37489Y-40203D01*
X37449Y-40280D01*
X37416Y-40360D01*
X37389Y-40443D01*
X37371Y-40528D01*
X37359Y-40614D01*
X37355Y-40700D01*
X41000Y-33300D02*
X42000Y-32300D01*
X41000Y-31300D01*
X40000Y-32300D01*
X41000Y-33300D01*
X41000Y-31300D02*
X41000Y-33300D01*
X40005Y-32300D02*
X40005Y-32300D01*
X41995Y-32300D02*
X41995Y-32300D01*
X40005Y-32300D02*
X40009Y-32386D01*
X40021Y-32472D01*
X40039Y-32557D01*
X40066Y-32640D01*
X40099Y-32720D01*
X40139Y-32797D01*
X40185Y-32870D01*
X40238Y-32939D01*
X40297Y-33003D01*
X40361Y-33062D01*
X40430Y-33115D01*
X40503Y-33161D01*
X40580Y-33201D01*
X40660Y-33234D01*
X40743Y-33261D01*
X40828Y-33279D01*
X40914Y-33291D01*
X41000Y-33295D01*
X41086Y-33291D01*
X41172Y-33279D01*
X41257Y-33261D01*
X41340Y-33234D01*
X41420Y-33201D01*
X41497Y-33161D01*
X41570Y-33115D01*
X41639Y-33062D01*
X41703Y-33003D01*
X41762Y-32939D01*
X41815Y-32870D01*
X41861Y-32797D01*
X41901Y-32720D01*
X41934Y-32640D01*
X41961Y-32557D01*
X41979Y-32472D01*
X41991Y-32386D01*
X41995Y-32300D01*
X41995Y-32300D02*
X41991Y-32214D01*
X41979Y-32128D01*
X41961Y-32043D01*
X41934Y-31960D01*
X41901Y-31880D01*
X41861Y-31803D01*
X41815Y-31730D01*
X41762Y-31661D01*
X41703Y-31597D01*
X41639Y-31538D01*
X41570Y-31485D01*
X41497Y-31439D01*
X41420Y-31399D01*
X41340Y-31366D01*
X41257Y-31339D01*
X41172Y-31321D01*
X41086Y-31309D01*
X41000Y-31305D01*
X40914Y-31309D01*
X40828Y-31321D01*
X40743Y-31339D01*
X40660Y-31366D01*
X40580Y-31399D01*
X40503Y-31439D01*
X40430Y-31485D01*
X40361Y-31538D01*
X40297Y-31597D01*
X40238Y-31661D01*
X40185Y-31730D01*
X40139Y-31803D01*
X40099Y-31880D01*
X40066Y-31960D01*
X40039Y-32043D01*
X40021Y-32128D01*
X40009Y-32214D01*
X40005Y-32300D01*
X57550Y-49750D02*
X58550Y-48750D01*
X57550Y-47750D01*
X56550Y-48750D01*
X57550Y-49750D01*
X57550Y-47750D02*
X57550Y-49750D01*
X56555Y-48750D02*
X56555Y-48750D01*
X58545Y-48750D02*
X58545Y-48750D01*
X56555Y-48750D02*
X56559Y-48836D01*
X56571Y-48922D01*
X56589Y-49007D01*
X56616Y-49090D01*
X56649Y-49170D01*
X56689Y-49247D01*
X56735Y-49320D01*
X56788Y-49389D01*
X56847Y-49453D01*
X56911Y-49512D01*
X56980Y-49565D01*
X57053Y-49611D01*
X57130Y-49651D01*
X57210Y-49684D01*
X57293Y-49711D01*
X57378Y-49729D01*
X57464Y-49741D01*
X57550Y-49745D01*
X57636Y-49741D01*
X57722Y-49729D01*
X57807Y-49711D01*
X57890Y-49684D01*
X57970Y-49651D01*
X58047Y-49611D01*
X58120Y-49565D01*
X58189Y-49512D01*
X58253Y-49453D01*
X58312Y-49389D01*
X58365Y-49320D01*
X58411Y-49247D01*
X58451Y-49170D01*
X58484Y-49090D01*
X58511Y-49007D01*
X58529Y-48922D01*
X58541Y-48836D01*
X58545Y-48750D01*
X58545Y-48750D02*
X58541Y-48664D01*
X58529Y-48578D01*
X58511Y-48493D01*
X58484Y-48410D01*
X58451Y-48330D01*
X58411Y-48253D01*
X58365Y-48180D01*
X58312Y-48111D01*
X58253Y-48047D01*
X58189Y-47988D01*
X58120Y-47935D01*
X58047Y-47889D01*
X57970Y-47849D01*
X57890Y-47816D01*
X57807Y-47789D01*
X57722Y-47771D01*
X57636Y-47759D01*
X57550Y-47755D01*
X57464Y-47759D01*
X57378Y-47771D01*
X57293Y-47789D01*
X57210Y-47816D01*
X57130Y-47849D01*
X57053Y-47889D01*
X56980Y-47935D01*
X56911Y-47988D01*
X56847Y-48047D01*
X56788Y-48111D01*
X56735Y-48180D01*
X56689Y-48253D01*
X56649Y-48330D01*
X56616Y-48410D01*
X56589Y-48493D01*
X56571Y-48578D01*
X56559Y-48664D01*
X56555Y-48750D01*
X61000Y-31250D02*
X62000Y-30250D01*
X61000Y-29250D01*
X60000Y-30250D01*
X61000Y-31250D01*
X61000Y-29250D02*
X61000Y-31250D01*
X60005Y-30250D02*
X60005Y-30250D01*
X61995Y-30250D02*
X61995Y-30250D01*
X60005Y-30250D02*
X60009Y-30336D01*
X60021Y-30422D01*
X60039Y-30507D01*
X60066Y-30590D01*
X60099Y-30670D01*
X60139Y-30747D01*
X60185Y-30820D01*
X60238Y-30889D01*
X60297Y-30953D01*
X60361Y-31012D01*
X60430Y-31065D01*
X60503Y-31111D01*
X60580Y-31151D01*
X60660Y-31184D01*
X60743Y-31211D01*
X60828Y-31229D01*
X60914Y-31241D01*
X61000Y-31245D01*
X61086Y-31241D01*
X61172Y-31229D01*
X61257Y-31211D01*
X61340Y-31184D01*
X61420Y-31151D01*
X61497Y-31111D01*
X61570Y-31065D01*
X61639Y-31012D01*
X61703Y-30953D01*
X61762Y-30889D01*
X61815Y-30820D01*
X61861Y-30747D01*
X61901Y-30670D01*
X61934Y-30590D01*
X61961Y-30507D01*
X61979Y-30422D01*
X61991Y-30336D01*
X61995Y-30250D01*
X61995Y-30250D02*
X61991Y-30164D01*
X61979Y-30078D01*
X61961Y-29993D01*
X61934Y-29910D01*
X61901Y-29830D01*
X61861Y-29753D01*
X61815Y-29680D01*
X61762Y-29611D01*
X61703Y-29547D01*
X61639Y-29488D01*
X61570Y-29435D01*
X61497Y-29389D01*
X61420Y-29349D01*
X61340Y-29316D01*
X61257Y-29289D01*
X61172Y-29271D01*
X61086Y-29259D01*
X61000Y-29255D01*
X60914Y-29259D01*
X60828Y-29271D01*
X60743Y-29289D01*
X60660Y-29316D01*
X60580Y-29349D01*
X60503Y-29389D01*
X60430Y-29435D01*
X60361Y-29488D01*
X60297Y-29547D01*
X60238Y-29611D01*
X60185Y-29680D01*
X60139Y-29753D01*
X60099Y-29830D01*
X60066Y-29910D01*
X60039Y-29993D01*
X60021Y-30078D01*
X60009Y-30164D01*
X60005Y-30250D01*
X75500Y-53950D02*
X76500Y-52950D01*
X75500Y-51950D01*
X74500Y-52950D01*
X75500Y-53950D01*
X75500Y-51950D02*
X75500Y-53950D01*
X74505Y-52950D02*
X74505Y-52950D01*
X76495Y-52950D02*
X76495Y-52950D01*
X74505Y-52950D02*
X74509Y-53036D01*
X74521Y-53122D01*
X74539Y-53207D01*
X74566Y-53290D01*
X74599Y-53370D01*
X74639Y-53447D01*
X74685Y-53520D01*
X74738Y-53589D01*
X74797Y-53653D01*
X74861Y-53712D01*
X74930Y-53765D01*
X75003Y-53811D01*
X75080Y-53851D01*
X75160Y-53884D01*
X75243Y-53911D01*
X75328Y-53929D01*
X75414Y-53941D01*
X75500Y-53945D01*
X75586Y-53941D01*
X75672Y-53929D01*
X75757Y-53911D01*
X75840Y-53884D01*
X75920Y-53851D01*
X75997Y-53811D01*
X76070Y-53765D01*
X76139Y-53712D01*
X76203Y-53653D01*
X76262Y-53589D01*
X76315Y-53520D01*
X76361Y-53447D01*
X76401Y-53370D01*
X76434Y-53290D01*
X76461Y-53207D01*
X76479Y-53122D01*
X76491Y-53036D01*
X76495Y-52950D01*
X76495Y-52950D02*
X76491Y-52864D01*
X76479Y-52778D01*
X76461Y-52693D01*
X76434Y-52610D01*
X76401Y-52530D01*
X76361Y-52453D01*
X76315Y-52380D01*
X76262Y-52311D01*
X76203Y-52247D01*
X76139Y-52188D01*
X76070Y-52135D01*
X75997Y-52089D01*
X75920Y-52049D01*
X75840Y-52016D01*
X75757Y-51989D01*
X75672Y-51971D01*
X75586Y-51959D01*
X75500Y-51955D01*
X75414Y-51959D01*
X75328Y-51971D01*
X75243Y-51989D01*
X75160Y-52016D01*
X75080Y-52049D01*
X75003Y-52089D01*
X74930Y-52135D01*
X74861Y-52188D01*
X74797Y-52247D01*
X74738Y-52311D01*
X74685Y-52380D01*
X74639Y-52453D01*
X74599Y-52530D01*
X74566Y-52610D01*
X74539Y-52693D01*
X74521Y-52778D01*
X74509Y-52864D01*
X74505Y-52950D01*
G54D12*
X29014Y-57774D02*
X29014Y-56974D01*
X29205Y-56974D01*
X29319Y-57012D01*
X29395Y-57088D01*
X29434Y-57164D01*
X29472Y-57317D01*
X29472Y-57431D01*
X29434Y-57583D01*
X29395Y-57660D01*
X29319Y-57736D01*
X29205Y-57774D01*
X29014Y-57774D01*
X29814Y-57774D02*
X29814Y-57240D01*
X29814Y-57393D02*
X29853Y-57317D01*
X29891Y-57279D01*
X29967Y-57240D01*
X30043Y-57240D01*
X30309Y-57774D02*
X30309Y-57240D01*
X30309Y-56974D02*
X30271Y-57012D01*
X30309Y-57050D01*
X30348Y-57012D01*
X30309Y-56974D01*
X30309Y-57050D01*
X30805Y-57774D02*
X30729Y-57736D01*
X30690Y-57660D01*
X30690Y-56974D01*
X31224Y-57774D02*
X31148Y-57736D01*
X31109Y-57660D01*
X31109Y-56974D01*
X32138Y-57774D02*
X32138Y-56974D01*
X32405Y-57545D01*
X32672Y-56974D01*
X32672Y-57774D01*
X33395Y-57774D02*
X33395Y-57355D01*
X33357Y-57279D01*
X33281Y-57240D01*
X33129Y-57240D01*
X33052Y-57279D01*
X33395Y-57736D02*
X33319Y-57774D01*
X33129Y-57774D01*
X33052Y-57736D01*
X33014Y-57660D01*
X33014Y-57583D01*
X33052Y-57507D01*
X33129Y-57469D01*
X33319Y-57469D01*
X33395Y-57431D01*
X33776Y-57240D02*
X33776Y-58040D01*
X33776Y-57279D02*
X33853Y-57240D01*
X34005Y-57240D01*
X34081Y-57279D01*
X34119Y-57317D01*
X34157Y-57393D01*
X34157Y-57621D01*
X34119Y-57698D01*
X34081Y-57736D01*
X34005Y-57774D01*
X33853Y-57774D01*
X33776Y-57736D01*
X34500Y-57698D02*
X34539Y-57736D01*
X34500Y-57774D01*
X34462Y-57736D01*
X34500Y-57698D01*
X34500Y-57774D01*
X34500Y-57279D02*
X34539Y-57317D01*
X34500Y-57355D01*
X34462Y-57317D01*
X34500Y-57279D01*
X34500Y-57355D01*
X28427Y-59032D02*
X28623Y-59228D01*
X28623Y-59032D02*
X28427Y-59228D01*
X29167Y-58654D02*
X29243Y-58654D01*
X29319Y-58692D01*
X29357Y-58730D01*
X29395Y-58806D01*
X29434Y-58959D01*
X29434Y-59149D01*
X29395Y-59301D01*
X29357Y-59378D01*
X29319Y-59416D01*
X29243Y-59454D01*
X29167Y-59454D01*
X29091Y-59416D01*
X29053Y-59378D01*
X29014Y-59301D01*
X28976Y-59149D01*
X28976Y-58959D01*
X29014Y-58806D01*
X29053Y-58730D01*
X29091Y-58692D01*
X29167Y-58654D01*
X29776Y-59378D02*
X29815Y-59416D01*
X29776Y-59454D01*
X29738Y-59416D01*
X29776Y-59378D01*
X29776Y-59454D01*
X30310Y-58654D02*
X30386Y-58654D01*
X30462Y-58692D01*
X30500Y-58730D01*
X30538Y-58806D01*
X30577Y-58959D01*
X30577Y-59149D01*
X30538Y-59301D01*
X30500Y-59378D01*
X30462Y-59416D01*
X30386Y-59454D01*
X30310Y-59454D01*
X30234Y-59416D01*
X30196Y-59378D01*
X30157Y-59301D01*
X30119Y-59149D01*
X30119Y-58959D01*
X30157Y-58806D01*
X30196Y-58730D01*
X30234Y-58692D01*
X30310Y-58654D01*
X30881Y-58730D02*
X30919Y-58692D01*
X30996Y-58654D01*
X31186Y-58654D01*
X31262Y-58692D01*
X31300Y-58730D01*
X31339Y-58806D01*
X31339Y-58882D01*
X31300Y-58997D01*
X30843Y-59454D01*
X31339Y-59454D01*
X31834Y-58654D02*
X31910Y-58654D01*
X31986Y-58692D01*
X32024Y-58730D01*
X32062Y-58806D01*
X32101Y-58959D01*
X32101Y-59149D01*
X32062Y-59301D01*
X32024Y-59378D01*
X31986Y-59416D01*
X31910Y-59454D01*
X31834Y-59454D01*
X31758Y-59416D01*
X31720Y-59378D01*
X31681Y-59301D01*
X31643Y-59149D01*
X31643Y-58959D01*
X31681Y-58806D01*
X31720Y-58730D01*
X31758Y-58692D01*
X31834Y-58654D01*
X32405Y-58654D02*
X32405Y-58806D01*
X32710Y-58654D02*
X32710Y-58806D01*
X34235Y-58616D02*
X33549Y-59644D01*
X35264Y-58654D02*
X35340Y-58654D01*
X35416Y-58692D01*
X35454Y-58730D01*
X35492Y-58806D01*
X35531Y-58959D01*
X35531Y-59149D01*
X35492Y-59301D01*
X35454Y-59378D01*
X35416Y-59416D01*
X35340Y-59454D01*
X35264Y-59454D01*
X35188Y-59416D01*
X35150Y-59378D01*
X35111Y-59301D01*
X35073Y-59149D01*
X35073Y-58959D01*
X35111Y-58806D01*
X35150Y-58730D01*
X35188Y-58692D01*
X35264Y-58654D01*
X35873Y-59378D02*
X35912Y-59416D01*
X35873Y-59454D01*
X35835Y-59416D01*
X35873Y-59378D01*
X35873Y-59454D01*
X36635Y-58654D02*
X36254Y-58654D01*
X36216Y-59035D01*
X36254Y-58997D01*
X36331Y-58959D01*
X36521Y-58959D01*
X36597Y-58997D01*
X36635Y-59035D01*
X36674Y-59111D01*
X36674Y-59301D01*
X36635Y-59378D01*
X36597Y-59416D01*
X36521Y-59454D01*
X36331Y-59454D01*
X36254Y-59416D01*
X36216Y-59378D01*
X37169Y-58654D02*
X37245Y-58654D01*
X37321Y-58692D01*
X37359Y-58730D01*
X37397Y-58806D01*
X37436Y-58959D01*
X37436Y-59149D01*
X37397Y-59301D01*
X37359Y-59378D01*
X37321Y-59416D01*
X37245Y-59454D01*
X37169Y-59454D01*
X37093Y-59416D01*
X37055Y-59378D01*
X37016Y-59301D01*
X36978Y-59149D01*
X36978Y-58959D01*
X37016Y-58806D01*
X37055Y-58730D01*
X37093Y-58692D01*
X37169Y-58654D01*
X37778Y-59454D02*
X37778Y-58920D01*
X37778Y-58997D02*
X37817Y-58959D01*
X37893Y-58920D01*
X38007Y-58920D01*
X38083Y-58959D01*
X38121Y-59035D01*
X38121Y-59454D01*
X38121Y-59035D02*
X38159Y-58959D01*
X38236Y-58920D01*
X38350Y-58920D01*
X38426Y-58959D01*
X38464Y-59035D01*
X38464Y-59454D01*
X38845Y-59454D02*
X38845Y-58920D01*
X38845Y-58997D02*
X38884Y-58959D01*
X38960Y-58920D01*
X39074Y-58920D01*
X39150Y-58959D01*
X39188Y-59035D01*
X39188Y-59454D01*
X39188Y-59035D02*
X39226Y-58959D01*
X39303Y-58920D01*
X39417Y-58920D01*
X39493Y-58959D01*
X39531Y-59035D01*
X39531Y-59454D01*
X40751Y-59759D02*
X40713Y-59720D01*
X40637Y-59606D01*
X40599Y-59530D01*
X40561Y-59416D01*
X40522Y-59225D01*
X40522Y-59073D01*
X40561Y-58882D01*
X40599Y-58768D01*
X40637Y-58692D01*
X40713Y-58578D01*
X40751Y-58540D01*
X41208Y-58654D02*
X41284Y-58654D01*
X41360Y-58692D01*
X41398Y-58730D01*
X41436Y-58806D01*
X41475Y-58959D01*
X41475Y-59149D01*
X41436Y-59301D01*
X41398Y-59378D01*
X41360Y-59416D01*
X41284Y-59454D01*
X41208Y-59454D01*
X41132Y-59416D01*
X41094Y-59378D01*
X41055Y-59301D01*
X41017Y-59149D01*
X41017Y-58959D01*
X41055Y-58806D01*
X41094Y-58730D01*
X41132Y-58692D01*
X41208Y-58654D01*
X42427Y-59454D02*
X42427Y-58654D01*
X42770Y-59454D02*
X42770Y-59035D01*
X42732Y-58959D01*
X42656Y-58920D01*
X42542Y-58920D01*
X42466Y-58959D01*
X42427Y-58997D01*
X43266Y-59454D02*
X43190Y-59416D01*
X43151Y-59378D01*
X43113Y-59301D01*
X43113Y-59073D01*
X43151Y-58997D01*
X43190Y-58959D01*
X43266Y-58920D01*
X43380Y-58920D01*
X43456Y-58959D01*
X43494Y-58997D01*
X43532Y-59073D01*
X43532Y-59301D01*
X43494Y-59378D01*
X43456Y-59416D01*
X43380Y-59454D01*
X43266Y-59454D01*
X43990Y-59454D02*
X43914Y-59416D01*
X43875Y-59340D01*
X43875Y-58654D01*
X44599Y-59416D02*
X44523Y-59454D01*
X44371Y-59454D01*
X44294Y-59416D01*
X44256Y-59340D01*
X44256Y-59035D01*
X44294Y-58959D01*
X44371Y-58920D01*
X44523Y-58920D01*
X44599Y-58959D01*
X44637Y-59035D01*
X44637Y-59111D01*
X44256Y-59187D01*
X44942Y-59416D02*
X45019Y-59454D01*
X45171Y-59454D01*
X45247Y-59416D01*
X45285Y-59340D01*
X45285Y-59301D01*
X45247Y-59225D01*
X45171Y-59187D01*
X45057Y-59187D01*
X44980Y-59149D01*
X44942Y-59073D01*
X44942Y-59035D01*
X44980Y-58959D01*
X45057Y-58920D01*
X45171Y-58920D01*
X45247Y-58959D01*
X46238Y-59149D02*
X46848Y-59149D01*
X46543Y-59454D02*
X46543Y-58844D01*
X47762Y-58654D02*
X48258Y-58654D01*
X47991Y-58959D01*
X48105Y-58959D01*
X48181Y-58997D01*
X48219Y-59035D01*
X48258Y-59111D01*
X48258Y-59301D01*
X48219Y-59378D01*
X48181Y-59416D01*
X48105Y-59454D01*
X47877Y-59454D01*
X47800Y-59416D01*
X47762Y-59378D01*
X49172Y-59416D02*
X49249Y-59454D01*
X49401Y-59454D01*
X49477Y-59416D01*
X49515Y-59340D01*
X49515Y-59301D01*
X49477Y-59225D01*
X49401Y-59187D01*
X49287Y-59187D01*
X49210Y-59149D01*
X49172Y-59073D01*
X49172Y-59035D01*
X49210Y-58959D01*
X49287Y-58920D01*
X49401Y-58920D01*
X49477Y-58959D01*
X49973Y-59454D02*
X49897Y-59416D01*
X49858Y-59340D01*
X49858Y-58654D01*
X50392Y-59454D02*
X50316Y-59416D01*
X50277Y-59378D01*
X50239Y-59301D01*
X50239Y-59073D01*
X50277Y-58997D01*
X50316Y-58959D01*
X50392Y-58920D01*
X50506Y-58920D01*
X50582Y-58959D01*
X50620Y-58997D01*
X50658Y-59073D01*
X50658Y-59301D01*
X50620Y-59378D01*
X50582Y-59416D01*
X50506Y-59454D01*
X50392Y-59454D01*
X50887Y-58920D02*
X51192Y-58920D01*
X51001Y-58654D02*
X51001Y-59340D01*
X51040Y-59416D01*
X51116Y-59454D01*
X51192Y-59454D01*
X51420Y-59416D02*
X51497Y-59454D01*
X51649Y-59454D01*
X51725Y-59416D01*
X51763Y-59340D01*
X51763Y-59301D01*
X51725Y-59225D01*
X51649Y-59187D01*
X51535Y-59187D01*
X51458Y-59149D01*
X51420Y-59073D01*
X51420Y-59035D01*
X51458Y-58959D01*
X51535Y-58920D01*
X51649Y-58920D01*
X51725Y-58959D01*
X52030Y-59759D02*
X52068Y-59720D01*
X52145Y-59606D01*
X52183Y-59530D01*
X52221Y-59416D01*
X52259Y-59225D01*
X52259Y-59073D01*
X52221Y-58882D01*
X52183Y-58768D01*
X52145Y-58692D01*
X52068Y-58578D01*
X52030Y-58540D01*
G54D10*
X28624Y-60185D02*
X28621Y-60209D01*
X28614Y-60232D01*
X28603Y-60254D01*
X28587Y-60273D01*
X28568Y-60288D01*
X28547Y-60300D01*
X28524Y-60307D01*
X28499Y-60309D01*
X28476Y-60307D01*
X28453Y-60300D01*
X28431Y-60289D01*
X28412Y-60274D01*
X28396Y-60255D01*
X28385Y-60234D01*
X28377Y-60210D01*
X28375Y-60186D01*
X28377Y-60163D01*
X28383Y-60139D01*
X28394Y-60118D01*
X28410Y-60099D01*
X28428Y-60083D01*
X28449Y-60071D01*
X28473Y-60063D01*
X28497Y-60061D01*
X28520Y-60062D01*
X28544Y-60069D01*
X28565Y-60080D01*
X28585Y-60095D01*
X28601Y-60113D01*
X28613Y-60135D01*
X28620Y-60158D01*
X28623Y-60182D01*
X28624Y-60185D01*
G54D12*
X29167Y-59709D02*
X29243Y-59709D01*
X29319Y-59747D01*
X29357Y-59785D01*
X29395Y-59861D01*
X29434Y-60014D01*
X29434Y-60204D01*
X29395Y-60356D01*
X29357Y-60433D01*
X29319Y-60471D01*
X29243Y-60509D01*
X29167Y-60509D01*
X29091Y-60471D01*
X29053Y-60433D01*
X29014Y-60356D01*
X28976Y-60204D01*
X28976Y-60014D01*
X29014Y-59861D01*
X29053Y-59785D01*
X29091Y-59747D01*
X29167Y-59709D01*
X29776Y-60433D02*
X29815Y-60471D01*
X29776Y-60509D01*
X29738Y-60471D01*
X29776Y-60433D01*
X29776Y-60509D01*
X30310Y-59709D02*
X30386Y-59709D01*
X30462Y-59747D01*
X30500Y-59785D01*
X30538Y-59861D01*
X30577Y-60014D01*
X30577Y-60204D01*
X30538Y-60356D01*
X30500Y-60433D01*
X30462Y-60471D01*
X30386Y-60509D01*
X30310Y-60509D01*
X30234Y-60471D01*
X30196Y-60433D01*
X30157Y-60356D01*
X30119Y-60204D01*
X30119Y-60014D01*
X30157Y-59861D01*
X30196Y-59785D01*
X30234Y-59747D01*
X30310Y-59709D01*
X30881Y-59785D02*
X30919Y-59747D01*
X30996Y-59709D01*
X31186Y-59709D01*
X31262Y-59747D01*
X31300Y-59785D01*
X31339Y-59861D01*
X31339Y-59937D01*
X31300Y-60052D01*
X30843Y-60509D01*
X31339Y-60509D01*
X32062Y-59709D02*
X31681Y-59709D01*
X31643Y-60090D01*
X31681Y-60052D01*
X31758Y-60014D01*
X31948Y-60014D01*
X32024Y-60052D01*
X32062Y-60090D01*
X32101Y-60166D01*
X32101Y-60356D01*
X32062Y-60433D01*
X32024Y-60471D01*
X31948Y-60509D01*
X31758Y-60509D01*
X31681Y-60471D01*
X31643Y-60433D01*
X32405Y-59709D02*
X32405Y-59861D01*
X32710Y-59709D02*
X32710Y-59861D01*
X34235Y-59671D02*
X33549Y-60699D01*
X35264Y-59709D02*
X35340Y-59709D01*
X35416Y-59747D01*
X35454Y-59785D01*
X35492Y-59861D01*
X35531Y-60014D01*
X35531Y-60204D01*
X35492Y-60356D01*
X35454Y-60433D01*
X35416Y-60471D01*
X35340Y-60509D01*
X35264Y-60509D01*
X35188Y-60471D01*
X35150Y-60433D01*
X35111Y-60356D01*
X35073Y-60204D01*
X35073Y-60014D01*
X35111Y-59861D01*
X35150Y-59785D01*
X35188Y-59747D01*
X35264Y-59709D01*
X35873Y-60433D02*
X35912Y-60471D01*
X35873Y-60509D01*
X35835Y-60471D01*
X35873Y-60433D01*
X35873Y-60509D01*
X36597Y-59709D02*
X36445Y-59709D01*
X36369Y-59747D01*
X36331Y-59785D01*
X36254Y-59899D01*
X36216Y-60052D01*
X36216Y-60356D01*
X36254Y-60433D01*
X36293Y-60471D01*
X36369Y-60509D01*
X36521Y-60509D01*
X36597Y-60471D01*
X36635Y-60433D01*
X36674Y-60356D01*
X36674Y-60166D01*
X36635Y-60090D01*
X36597Y-60052D01*
X36521Y-60014D01*
X36369Y-60014D01*
X36293Y-60052D01*
X36254Y-60090D01*
X36216Y-60166D01*
X37359Y-59975D02*
X37359Y-60509D01*
X37169Y-59671D02*
X36978Y-60242D01*
X37474Y-60242D01*
X37778Y-60509D02*
X37778Y-59975D01*
X37778Y-60052D02*
X37817Y-60014D01*
X37893Y-59975D01*
X38007Y-59975D01*
X38083Y-60014D01*
X38121Y-60090D01*
X38121Y-60509D01*
X38121Y-60090D02*
X38159Y-60014D01*
X38236Y-59975D01*
X38350Y-59975D01*
X38426Y-60014D01*
X38464Y-60090D01*
X38464Y-60509D01*
X38845Y-60509D02*
X38845Y-59975D01*
X38845Y-60052D02*
X38884Y-60014D01*
X38960Y-59975D01*
X39074Y-59975D01*
X39150Y-60014D01*
X39188Y-60090D01*
X39188Y-60509D01*
X39188Y-60090D02*
X39226Y-60014D01*
X39303Y-59975D01*
X39417Y-59975D01*
X39493Y-60014D01*
X39531Y-60090D01*
X39531Y-60509D01*
X40751Y-60814D02*
X40713Y-60775D01*
X40637Y-60661D01*
X40599Y-60585D01*
X40561Y-60471D01*
X40522Y-60280D01*
X40522Y-60128D01*
X40561Y-59937D01*
X40599Y-59823D01*
X40637Y-59747D01*
X40713Y-59633D01*
X40751Y-59595D01*
X40979Y-59709D02*
X41513Y-59709D01*
X41170Y-60509D01*
X42427Y-60509D02*
X42427Y-59709D01*
X42770Y-60509D02*
X42770Y-60090D01*
X42732Y-60014D01*
X42656Y-59975D01*
X42542Y-59975D01*
X42466Y-60014D01*
X42427Y-60052D01*
X43266Y-60509D02*
X43190Y-60471D01*
X43151Y-60433D01*
X43113Y-60356D01*
X43113Y-60128D01*
X43151Y-60052D01*
X43190Y-60014D01*
X43266Y-59975D01*
X43380Y-59975D01*
X43456Y-60014D01*
X43494Y-60052D01*
X43532Y-60128D01*
X43532Y-60356D01*
X43494Y-60433D01*
X43456Y-60471D01*
X43380Y-60509D01*
X43266Y-60509D01*
X43990Y-60509D02*
X43914Y-60471D01*
X43875Y-60395D01*
X43875Y-59709D01*
X44599Y-60471D02*
X44523Y-60509D01*
X44371Y-60509D01*
X44294Y-60471D01*
X44256Y-60395D01*
X44256Y-60090D01*
X44294Y-60014D01*
X44371Y-59975D01*
X44523Y-59975D01*
X44599Y-60014D01*
X44637Y-60090D01*
X44637Y-60166D01*
X44256Y-60242D01*
X44942Y-60471D02*
X45019Y-60509D01*
X45171Y-60509D01*
X45247Y-60471D01*
X45285Y-60395D01*
X45285Y-60356D01*
X45247Y-60280D01*
X45171Y-60242D01*
X45057Y-60242D01*
X44980Y-60204D01*
X44942Y-60128D01*
X44942Y-60090D01*
X44980Y-60014D01*
X45057Y-59975D01*
X45171Y-59975D01*
X45247Y-60014D01*
X45552Y-60814D02*
X45590Y-60775D01*
X45667Y-60661D01*
X45705Y-60585D01*
X45743Y-60471D01*
X45781Y-60280D01*
X45781Y-60128D01*
X45743Y-59937D01*
X45705Y-59823D01*
X45667Y-59747D01*
X45590Y-59633D01*
X45552Y-59595D01*
X28466Y-61083D02*
X28466Y-61397D01*
X28623Y-61240D02*
X28309Y-61240D01*
X29167Y-60764D02*
X29243Y-60764D01*
X29319Y-60802D01*
X29357Y-60840D01*
X29395Y-60916D01*
X29434Y-61069D01*
X29434Y-61259D01*
X29395Y-61411D01*
X29357Y-61488D01*
X29319Y-61526D01*
X29243Y-61564D01*
X29167Y-61564D01*
X29091Y-61526D01*
X29053Y-61488D01*
X29014Y-61411D01*
X28976Y-61259D01*
X28976Y-61069D01*
X29014Y-60916D01*
X29053Y-60840D01*
X29091Y-60802D01*
X29167Y-60764D01*
X29776Y-61488D02*
X29815Y-61526D01*
X29776Y-61564D01*
X29738Y-61526D01*
X29776Y-61488D01*
X29776Y-61564D01*
X30310Y-60764D02*
X30386Y-60764D01*
X30462Y-60802D01*
X30500Y-60840D01*
X30538Y-60916D01*
X30577Y-61069D01*
X30577Y-61259D01*
X30538Y-61411D01*
X30500Y-61488D01*
X30462Y-61526D01*
X30386Y-61564D01*
X30310Y-61564D01*
X30234Y-61526D01*
X30196Y-61488D01*
X30157Y-61411D01*
X30119Y-61259D01*
X30119Y-61069D01*
X30157Y-60916D01*
X30196Y-60840D01*
X30234Y-60802D01*
X30310Y-60764D01*
X30843Y-60764D02*
X31339Y-60764D01*
X31072Y-61069D01*
X31186Y-61069D01*
X31262Y-61107D01*
X31300Y-61145D01*
X31339Y-61221D01*
X31339Y-61411D01*
X31300Y-61488D01*
X31262Y-61526D01*
X31186Y-61564D01*
X30958Y-61564D01*
X30881Y-61526D01*
X30843Y-61488D01*
X31643Y-60840D02*
X31681Y-60802D01*
X31758Y-60764D01*
X31948Y-60764D01*
X32024Y-60802D01*
X32062Y-60840D01*
X32101Y-60916D01*
X32101Y-60992D01*
X32062Y-61107D01*
X31605Y-61564D01*
X32101Y-61564D01*
X32405Y-60764D02*
X32405Y-60916D01*
X32710Y-60764D02*
X32710Y-60916D01*
X34235Y-60726D02*
X33549Y-61754D01*
X35264Y-60764D02*
X35340Y-60764D01*
X35416Y-60802D01*
X35454Y-60840D01*
X35492Y-60916D01*
X35531Y-61069D01*
X35531Y-61259D01*
X35492Y-61411D01*
X35454Y-61488D01*
X35416Y-61526D01*
X35340Y-61564D01*
X35264Y-61564D01*
X35188Y-61526D01*
X35150Y-61488D01*
X35111Y-61411D01*
X35073Y-61259D01*
X35073Y-61069D01*
X35111Y-60916D01*
X35150Y-60840D01*
X35188Y-60802D01*
X35264Y-60764D01*
X35873Y-61488D02*
X35912Y-61526D01*
X35873Y-61564D01*
X35835Y-61526D01*
X35873Y-61488D01*
X35873Y-61564D01*
X36369Y-61107D02*
X36293Y-61069D01*
X36254Y-61030D01*
X36216Y-60954D01*
X36216Y-60916D01*
X36254Y-60840D01*
X36293Y-60802D01*
X36369Y-60764D01*
X36521Y-60764D01*
X36597Y-60802D01*
X36635Y-60840D01*
X36674Y-60916D01*
X36674Y-60954D01*
X36635Y-61030D01*
X36597Y-61069D01*
X36521Y-61107D01*
X36369Y-61107D01*
X36293Y-61145D01*
X36254Y-61183D01*
X36216Y-61259D01*
X36216Y-61411D01*
X36254Y-61488D01*
X36293Y-61526D01*
X36369Y-61564D01*
X36521Y-61564D01*
X36597Y-61526D01*
X36635Y-61488D01*
X36674Y-61411D01*
X36674Y-61259D01*
X36635Y-61183D01*
X36597Y-61145D01*
X36521Y-61107D01*
X37169Y-60764D02*
X37245Y-60764D01*
X37321Y-60802D01*
X37359Y-60840D01*
X37397Y-60916D01*
X37436Y-61069D01*
X37436Y-61259D01*
X37397Y-61411D01*
X37359Y-61488D01*
X37321Y-61526D01*
X37245Y-61564D01*
X37169Y-61564D01*
X37093Y-61526D01*
X37055Y-61488D01*
X37016Y-61411D01*
X36978Y-61259D01*
X36978Y-61069D01*
X37016Y-60916D01*
X37055Y-60840D01*
X37093Y-60802D01*
X37169Y-60764D01*
X37778Y-61564D02*
X37778Y-61030D01*
X37778Y-61107D02*
X37817Y-61069D01*
X37893Y-61030D01*
X38007Y-61030D01*
X38083Y-61069D01*
X38121Y-61145D01*
X38121Y-61564D01*
X38121Y-61145D02*
X38159Y-61069D01*
X38236Y-61030D01*
X38350Y-61030D01*
X38426Y-61069D01*
X38464Y-61145D01*
X38464Y-61564D01*
X38845Y-61564D02*
X38845Y-61030D01*
X38845Y-61107D02*
X38884Y-61069D01*
X38960Y-61030D01*
X39074Y-61030D01*
X39150Y-61069D01*
X39188Y-61145D01*
X39188Y-61564D01*
X39188Y-61145D02*
X39226Y-61069D01*
X39303Y-61030D01*
X39417Y-61030D01*
X39493Y-61069D01*
X39531Y-61145D01*
X39531Y-61564D01*
X40751Y-61869D02*
X40713Y-61830D01*
X40637Y-61716D01*
X40599Y-61640D01*
X40561Y-61526D01*
X40522Y-61335D01*
X40522Y-61183D01*
X40561Y-60992D01*
X40599Y-60878D01*
X40637Y-60802D01*
X40713Y-60688D01*
X40751Y-60650D01*
X41475Y-61564D02*
X41017Y-61564D01*
X41246Y-61564D02*
X41246Y-60764D01*
X41170Y-60878D01*
X41094Y-60954D01*
X41017Y-60992D01*
X42427Y-61564D02*
X42427Y-60764D01*
X42770Y-61564D02*
X42770Y-61145D01*
X42732Y-61069D01*
X42656Y-61030D01*
X42542Y-61030D01*
X42466Y-61069D01*
X42427Y-61107D01*
X43266Y-61564D02*
X43190Y-61526D01*
X43151Y-61488D01*
X43113Y-61411D01*
X43113Y-61183D01*
X43151Y-61107D01*
X43190Y-61069D01*
X43266Y-61030D01*
X43380Y-61030D01*
X43456Y-61069D01*
X43494Y-61107D01*
X43532Y-61183D01*
X43532Y-61411D01*
X43494Y-61488D01*
X43456Y-61526D01*
X43380Y-61564D01*
X43266Y-61564D01*
X43990Y-61564D02*
X43914Y-61526D01*
X43875Y-61450D01*
X43875Y-60764D01*
X44599Y-61526D02*
X44523Y-61564D01*
X44371Y-61564D01*
X44294Y-61526D01*
X44256Y-61450D01*
X44256Y-61145D01*
X44294Y-61069D01*
X44371Y-61030D01*
X44523Y-61030D01*
X44599Y-61069D01*
X44637Y-61145D01*
X44637Y-61221D01*
X44256Y-61297D01*
X44904Y-61869D02*
X44942Y-61830D01*
X45019Y-61716D01*
X45057Y-61640D01*
X45095Y-61526D01*
X45133Y-61335D01*
X45133Y-61183D01*
X45095Y-60992D01*
X45057Y-60878D01*
X45019Y-60802D01*
X44942Y-60688D01*
X44904Y-60650D01*
G54D10*
X28624Y-62295D02*
X28620Y-62326D01*
X28611Y-62355D01*
X28597Y-62383D01*
X28577Y-62407D01*
X28553Y-62427D01*
X28526Y-62442D01*
X28496Y-62451D01*
X28465Y-62454D01*
X28435Y-62452D01*
X28405Y-62443D01*
X28377Y-62428D01*
X28353Y-62409D01*
X28332Y-62385D01*
X28317Y-62358D01*
X28308Y-62328D01*
X28305Y-62297D01*
X28307Y-62267D01*
X28316Y-62237D01*
X28330Y-62209D01*
X28349Y-62184D01*
X28373Y-62164D01*
X28400Y-62149D01*
X28430Y-62139D01*
X28461Y-62136D01*
X28491Y-62138D01*
X28521Y-62146D01*
X28549Y-62160D01*
X28574Y-62180D01*
X28594Y-62203D01*
X28610Y-62230D01*
X28620Y-62260D01*
X28623Y-62291D01*
X28624Y-62295D01*
X28304Y-62135D02*
X28624Y-62455D01*
X28624Y-62135D02*
X28304Y-62455D01*
G54D12*
X29167Y-61819D02*
X29243Y-61819D01*
X29319Y-61857D01*
X29357Y-61895D01*
X29395Y-61971D01*
X29434Y-62124D01*
X29434Y-62314D01*
X29395Y-62466D01*
X29357Y-62543D01*
X29319Y-62581D01*
X29243Y-62619D01*
X29167Y-62619D01*
X29091Y-62581D01*
X29053Y-62543D01*
X29014Y-62466D01*
X28976Y-62314D01*
X28976Y-62124D01*
X29014Y-61971D01*
X29053Y-61895D01*
X29091Y-61857D01*
X29167Y-61819D01*
X29776Y-62543D02*
X29815Y-62581D01*
X29776Y-62619D01*
X29738Y-62581D01*
X29776Y-62543D01*
X29776Y-62619D01*
X30310Y-61819D02*
X30386Y-61819D01*
X30462Y-61857D01*
X30500Y-61895D01*
X30538Y-61971D01*
X30577Y-62124D01*
X30577Y-62314D01*
X30538Y-62466D01*
X30500Y-62543D01*
X30462Y-62581D01*
X30386Y-62619D01*
X30310Y-62619D01*
X30234Y-62581D01*
X30196Y-62543D01*
X30157Y-62466D01*
X30119Y-62314D01*
X30119Y-62124D01*
X30157Y-61971D01*
X30196Y-61895D01*
X30234Y-61857D01*
X30310Y-61819D01*
X30843Y-61819D02*
X31339Y-61819D01*
X31072Y-62124D01*
X31186Y-62124D01*
X31262Y-62162D01*
X31300Y-62200D01*
X31339Y-62276D01*
X31339Y-62466D01*
X31300Y-62543D01*
X31262Y-62581D01*
X31186Y-62619D01*
X30958Y-62619D01*
X30881Y-62581D01*
X30843Y-62543D01*
X31643Y-61895D02*
X31681Y-61857D01*
X31758Y-61819D01*
X31948Y-61819D01*
X32024Y-61857D01*
X32062Y-61895D01*
X32101Y-61971D01*
X32101Y-62047D01*
X32062Y-62162D01*
X31605Y-62619D01*
X32101Y-62619D01*
X32405Y-61819D02*
X32405Y-61971D01*
X32710Y-61819D02*
X32710Y-61971D01*
X34235Y-61781D02*
X33549Y-62809D01*
X35264Y-61819D02*
X35340Y-61819D01*
X35416Y-61857D01*
X35454Y-61895D01*
X35492Y-61971D01*
X35531Y-62124D01*
X35531Y-62314D01*
X35492Y-62466D01*
X35454Y-62543D01*
X35416Y-62581D01*
X35340Y-62619D01*
X35264Y-62619D01*
X35188Y-62581D01*
X35150Y-62543D01*
X35111Y-62466D01*
X35073Y-62314D01*
X35073Y-62124D01*
X35111Y-61971D01*
X35150Y-61895D01*
X35188Y-61857D01*
X35264Y-61819D01*
X35873Y-62543D02*
X35912Y-62581D01*
X35873Y-62619D01*
X35835Y-62581D01*
X35873Y-62543D01*
X35873Y-62619D01*
X36369Y-62162D02*
X36293Y-62124D01*
X36254Y-62085D01*
X36216Y-62009D01*
X36216Y-61971D01*
X36254Y-61895D01*
X36293Y-61857D01*
X36369Y-61819D01*
X36521Y-61819D01*
X36597Y-61857D01*
X36635Y-61895D01*
X36674Y-61971D01*
X36674Y-62009D01*
X36635Y-62085D01*
X36597Y-62124D01*
X36521Y-62162D01*
X36369Y-62162D01*
X36293Y-62200D01*
X36254Y-62238D01*
X36216Y-62314D01*
X36216Y-62466D01*
X36254Y-62543D01*
X36293Y-62581D01*
X36369Y-62619D01*
X36521Y-62619D01*
X36597Y-62581D01*
X36635Y-62543D01*
X36674Y-62466D01*
X36674Y-62314D01*
X36635Y-62238D01*
X36597Y-62200D01*
X36521Y-62162D01*
X37436Y-62619D02*
X36978Y-62619D01*
X37207Y-62619D02*
X37207Y-61819D01*
X37131Y-61933D01*
X37055Y-62009D01*
X36978Y-62047D01*
X37778Y-62619D02*
X37778Y-62085D01*
X37778Y-62162D02*
X37817Y-62124D01*
X37893Y-62085D01*
X38007Y-62085D01*
X38083Y-62124D01*
X38121Y-62200D01*
X38121Y-62619D01*
X38121Y-62200D02*
X38159Y-62124D01*
X38236Y-62085D01*
X38350Y-62085D01*
X38426Y-62124D01*
X38464Y-62200D01*
X38464Y-62619D01*
X38845Y-62619D02*
X38845Y-62085D01*
X38845Y-62162D02*
X38884Y-62124D01*
X38960Y-62085D01*
X39074Y-62085D01*
X39150Y-62124D01*
X39188Y-62200D01*
X39188Y-62619D01*
X39188Y-62200D02*
X39226Y-62124D01*
X39303Y-62085D01*
X39417Y-62085D01*
X39493Y-62124D01*
X39531Y-62200D01*
X39531Y-62619D01*
X40751Y-62924D02*
X40713Y-62885D01*
X40637Y-62771D01*
X40599Y-62695D01*
X40561Y-62581D01*
X40522Y-62390D01*
X40522Y-62238D01*
X40561Y-62047D01*
X40599Y-61933D01*
X40637Y-61857D01*
X40713Y-61743D01*
X40751Y-61705D01*
X41475Y-62619D02*
X41017Y-62619D01*
X41246Y-62619D02*
X41246Y-61819D01*
X41170Y-61933D01*
X41094Y-62009D01*
X41017Y-62047D01*
X42427Y-62619D02*
X42427Y-61819D01*
X42770Y-62619D02*
X42770Y-62200D01*
X42732Y-62124D01*
X42656Y-62085D01*
X42542Y-62085D01*
X42466Y-62124D01*
X42427Y-62162D01*
X43266Y-62619D02*
X43190Y-62581D01*
X43151Y-62543D01*
X43113Y-62466D01*
X43113Y-62238D01*
X43151Y-62162D01*
X43190Y-62124D01*
X43266Y-62085D01*
X43380Y-62085D01*
X43456Y-62124D01*
X43494Y-62162D01*
X43532Y-62238D01*
X43532Y-62466D01*
X43494Y-62543D01*
X43456Y-62581D01*
X43380Y-62619D01*
X43266Y-62619D01*
X43990Y-62619D02*
X43914Y-62581D01*
X43875Y-62505D01*
X43875Y-61819D01*
X44599Y-62581D02*
X44523Y-62619D01*
X44371Y-62619D01*
X44294Y-62581D01*
X44256Y-62505D01*
X44256Y-62200D01*
X44294Y-62124D01*
X44371Y-62085D01*
X44523Y-62085D01*
X44599Y-62124D01*
X44637Y-62200D01*
X44637Y-62276D01*
X44256Y-62352D01*
X44904Y-62924D02*
X44942Y-62885D01*
X45019Y-62771D01*
X45057Y-62695D01*
X45095Y-62581D01*
X45133Y-62390D01*
X45133Y-62238D01*
X45095Y-62047D01*
X45057Y-61933D01*
X45019Y-61857D01*
X44942Y-61743D01*
X44904Y-61705D01*
G54D10*
X28624Y-63350D02*
X28620Y-63388D01*
X28608Y-63426D01*
X28590Y-63460D01*
X28565Y-63490D01*
X28535Y-63515D01*
X28501Y-63534D01*
X28464Y-63545D01*
X28425Y-63549D01*
X28387Y-63546D01*
X28350Y-63535D01*
X28315Y-63517D01*
X28285Y-63492D01*
X28259Y-63462D01*
X28241Y-63428D01*
X28229Y-63391D01*
X28225Y-63352D01*
X28228Y-63314D01*
X28239Y-63277D01*
X28256Y-63242D01*
X28281Y-63212D01*
X28310Y-63186D01*
X28344Y-63167D01*
X28382Y-63155D01*
X28420Y-63151D01*
X28458Y-63154D01*
X28496Y-63164D01*
X28531Y-63182D01*
X28561Y-63206D01*
X28587Y-63235D01*
X28606Y-63269D01*
X28619Y-63306D01*
X28623Y-63345D01*
X28624Y-63350D01*
X28224Y-63350D02*
X28624Y-63350D01*
G54D12*
X29167Y-62874D02*
X29243Y-62874D01*
X29319Y-62912D01*
X29357Y-62950D01*
X29395Y-63026D01*
X29434Y-63179D01*
X29434Y-63369D01*
X29395Y-63521D01*
X29357Y-63598D01*
X29319Y-63636D01*
X29243Y-63674D01*
X29167Y-63674D01*
X29091Y-63636D01*
X29053Y-63598D01*
X29014Y-63521D01*
X28976Y-63369D01*
X28976Y-63179D01*
X29014Y-63026D01*
X29053Y-62950D01*
X29091Y-62912D01*
X29167Y-62874D01*
X29776Y-63598D02*
X29815Y-63636D01*
X29776Y-63674D01*
X29738Y-63636D01*
X29776Y-63598D01*
X29776Y-63674D01*
X30310Y-62874D02*
X30386Y-62874D01*
X30462Y-62912D01*
X30500Y-62950D01*
X30538Y-63026D01*
X30577Y-63179D01*
X30577Y-63369D01*
X30538Y-63521D01*
X30500Y-63598D01*
X30462Y-63636D01*
X30386Y-63674D01*
X30310Y-63674D01*
X30234Y-63636D01*
X30196Y-63598D01*
X30157Y-63521D01*
X30119Y-63369D01*
X30119Y-63179D01*
X30157Y-63026D01*
X30196Y-62950D01*
X30234Y-62912D01*
X30310Y-62874D01*
X31262Y-63140D02*
X31262Y-63674D01*
X31072Y-62836D02*
X30881Y-63407D01*
X31377Y-63407D01*
X31834Y-62874D02*
X31910Y-62874D01*
X31986Y-62912D01*
X32024Y-62950D01*
X32062Y-63026D01*
X32101Y-63179D01*
X32101Y-63369D01*
X32062Y-63521D01*
X32024Y-63598D01*
X31986Y-63636D01*
X31910Y-63674D01*
X31834Y-63674D01*
X31758Y-63636D01*
X31720Y-63598D01*
X31681Y-63521D01*
X31643Y-63369D01*
X31643Y-63179D01*
X31681Y-63026D01*
X31720Y-62950D01*
X31758Y-62912D01*
X31834Y-62874D01*
X32405Y-62874D02*
X32405Y-63026D01*
X32710Y-62874D02*
X32710Y-63026D01*
X34235Y-62836D02*
X33549Y-63864D01*
X35531Y-63674D02*
X35073Y-63674D01*
X35302Y-63674D02*
X35302Y-62874D01*
X35226Y-62988D01*
X35150Y-63064D01*
X35073Y-63102D01*
X35873Y-63598D02*
X35912Y-63636D01*
X35873Y-63674D01*
X35835Y-63636D01*
X35873Y-63598D01*
X35873Y-63674D01*
X36407Y-62874D02*
X36483Y-62874D01*
X36559Y-62912D01*
X36597Y-62950D01*
X36635Y-63026D01*
X36674Y-63179D01*
X36674Y-63369D01*
X36635Y-63521D01*
X36597Y-63598D01*
X36559Y-63636D01*
X36483Y-63674D01*
X36407Y-63674D01*
X36331Y-63636D01*
X36293Y-63598D01*
X36254Y-63521D01*
X36216Y-63369D01*
X36216Y-63179D01*
X36254Y-63026D01*
X36293Y-62950D01*
X36331Y-62912D01*
X36407Y-62874D01*
X36978Y-62950D02*
X37016Y-62912D01*
X37093Y-62874D01*
X37283Y-62874D01*
X37359Y-62912D01*
X37397Y-62950D01*
X37436Y-63026D01*
X37436Y-63102D01*
X37397Y-63217D01*
X36940Y-63674D01*
X37436Y-63674D01*
X37778Y-63674D02*
X37778Y-63140D01*
X37778Y-63217D02*
X37817Y-63179D01*
X37893Y-63140D01*
X38007Y-63140D01*
X38083Y-63179D01*
X38121Y-63255D01*
X38121Y-63674D01*
X38121Y-63255D02*
X38159Y-63179D01*
X38236Y-63140D01*
X38350Y-63140D01*
X38426Y-63179D01*
X38464Y-63255D01*
X38464Y-63674D01*
X38845Y-63674D02*
X38845Y-63140D01*
X38845Y-63217D02*
X38884Y-63179D01*
X38960Y-63140D01*
X39074Y-63140D01*
X39150Y-63179D01*
X39188Y-63255D01*
X39188Y-63674D01*
X39188Y-63255D02*
X39226Y-63179D01*
X39303Y-63140D01*
X39417Y-63140D01*
X39493Y-63179D01*
X39531Y-63255D01*
X39531Y-63674D01*
X40751Y-63979D02*
X40713Y-63940D01*
X40637Y-63826D01*
X40599Y-63750D01*
X40561Y-63636D01*
X40522Y-63445D01*
X40522Y-63293D01*
X40561Y-63102D01*
X40599Y-62988D01*
X40637Y-62912D01*
X40713Y-62798D01*
X40751Y-62760D01*
X41475Y-63674D02*
X41017Y-63674D01*
X41246Y-63674D02*
X41246Y-62874D01*
X41170Y-62988D01*
X41094Y-63064D01*
X41017Y-63102D01*
X41970Y-62874D02*
X42046Y-62874D01*
X42122Y-62912D01*
X42160Y-62950D01*
X42198Y-63026D01*
X42237Y-63179D01*
X42237Y-63369D01*
X42198Y-63521D01*
X42160Y-63598D01*
X42122Y-63636D01*
X42046Y-63674D01*
X41970Y-63674D01*
X41894Y-63636D01*
X41856Y-63598D01*
X41817Y-63521D01*
X41779Y-63369D01*
X41779Y-63179D01*
X41817Y-63026D01*
X41856Y-62950D01*
X41894Y-62912D01*
X41970Y-62874D01*
X43189Y-63674D02*
X43189Y-62874D01*
X43532Y-63674D02*
X43532Y-63255D01*
X43494Y-63179D01*
X43418Y-63140D01*
X43304Y-63140D01*
X43228Y-63179D01*
X43189Y-63217D01*
X44028Y-63674D02*
X43952Y-63636D01*
X43913Y-63598D01*
X43875Y-63521D01*
X43875Y-63293D01*
X43913Y-63217D01*
X43952Y-63179D01*
X44028Y-63140D01*
X44142Y-63140D01*
X44218Y-63179D01*
X44256Y-63217D01*
X44294Y-63293D01*
X44294Y-63521D01*
X44256Y-63598D01*
X44218Y-63636D01*
X44142Y-63674D01*
X44028Y-63674D01*
X44752Y-63674D02*
X44676Y-63636D01*
X44637Y-63560D01*
X44637Y-62874D01*
X45361Y-63636D02*
X45285Y-63674D01*
X45133Y-63674D01*
X45056Y-63636D01*
X45018Y-63560D01*
X45018Y-63255D01*
X45056Y-63179D01*
X45133Y-63140D01*
X45285Y-63140D01*
X45361Y-63179D01*
X45399Y-63255D01*
X45399Y-63331D01*
X45018Y-63407D01*
X45704Y-63636D02*
X45781Y-63674D01*
X45933Y-63674D01*
X46009Y-63636D01*
X46047Y-63560D01*
X46047Y-63521D01*
X46009Y-63445D01*
X45933Y-63407D01*
X45819Y-63407D01*
X45742Y-63369D01*
X45704Y-63293D01*
X45704Y-63255D01*
X45742Y-63179D01*
X45819Y-63140D01*
X45933Y-63140D01*
X46009Y-63179D01*
X46314Y-63979D02*
X46352Y-63940D01*
X46429Y-63826D01*
X46467Y-63750D01*
X46505Y-63636D01*
X46543Y-63445D01*
X46543Y-63293D01*
X46505Y-63102D01*
X46467Y-62988D01*
X46429Y-62912D01*
X46352Y-62798D01*
X46314Y-62760D01*
G54D10*
X28624Y-64405D02*
X28619Y-64448D01*
X28607Y-64490D01*
X28586Y-64529D01*
X28558Y-64563D01*
X28524Y-64591D01*
X28486Y-64612D01*
X28444Y-64625D01*
X28400Y-64629D01*
X28357Y-64626D01*
X28315Y-64613D01*
X28276Y-64593D01*
X28242Y-64565D01*
X28214Y-64532D01*
X28193Y-64493D01*
X28179Y-64451D01*
X28175Y-64408D01*
X28178Y-64365D01*
X28190Y-64323D01*
X28210Y-64284D01*
X28238Y-64249D01*
X28271Y-64221D01*
X28309Y-64199D01*
X28351Y-64186D01*
X28395Y-64181D01*
X28438Y-64184D01*
X28480Y-64196D01*
X28519Y-64216D01*
X28554Y-64243D01*
X28582Y-64276D01*
X28604Y-64314D01*
X28618Y-64356D01*
X28623Y-64399D01*
X28624Y-64405D01*
X28399Y-64180D02*
X28399Y-64630D01*
G54D12*
X29167Y-63929D02*
X29243Y-63929D01*
X29319Y-63967D01*
X29357Y-64005D01*
X29395Y-64081D01*
X29434Y-64234D01*
X29434Y-64424D01*
X29395Y-64576D01*
X29357Y-64653D01*
X29319Y-64691D01*
X29243Y-64729D01*
X29167Y-64729D01*
X29091Y-64691D01*
X29053Y-64653D01*
X29014Y-64576D01*
X28976Y-64424D01*
X28976Y-64234D01*
X29014Y-64081D01*
X29053Y-64005D01*
X29091Y-63967D01*
X29167Y-63929D01*
X29776Y-64653D02*
X29815Y-64691D01*
X29776Y-64729D01*
X29738Y-64691D01*
X29776Y-64653D01*
X29776Y-64729D01*
X30310Y-63929D02*
X30386Y-63929D01*
X30462Y-63967D01*
X30500Y-64005D01*
X30538Y-64081D01*
X30577Y-64234D01*
X30577Y-64424D01*
X30538Y-64576D01*
X30500Y-64653D01*
X30462Y-64691D01*
X30386Y-64729D01*
X30310Y-64729D01*
X30234Y-64691D01*
X30196Y-64653D01*
X30157Y-64576D01*
X30119Y-64424D01*
X30119Y-64234D01*
X30157Y-64081D01*
X30196Y-64005D01*
X30234Y-63967D01*
X30310Y-63929D01*
X31262Y-64195D02*
X31262Y-64729D01*
X31072Y-63891D02*
X30881Y-64462D01*
X31377Y-64462D01*
X32062Y-63929D02*
X31681Y-63929D01*
X31643Y-64310D01*
X31681Y-64272D01*
X31758Y-64234D01*
X31948Y-64234D01*
X32024Y-64272D01*
X32062Y-64310D01*
X32101Y-64386D01*
X32101Y-64576D01*
X32062Y-64653D01*
X32024Y-64691D01*
X31948Y-64729D01*
X31758Y-64729D01*
X31681Y-64691D01*
X31643Y-64653D01*
X32405Y-63929D02*
X32405Y-64081D01*
X32710Y-63929D02*
X32710Y-64081D01*
X34235Y-63891D02*
X33549Y-64919D01*
X35531Y-64729D02*
X35073Y-64729D01*
X35302Y-64729D02*
X35302Y-63929D01*
X35226Y-64043D01*
X35150Y-64119D01*
X35073Y-64157D01*
X35873Y-64653D02*
X35912Y-64691D01*
X35873Y-64729D01*
X35835Y-64691D01*
X35873Y-64653D01*
X35873Y-64729D01*
X36674Y-64729D02*
X36216Y-64729D01*
X36445Y-64729D02*
X36445Y-63929D01*
X36369Y-64043D01*
X36293Y-64119D01*
X36216Y-64157D01*
X37359Y-64195D02*
X37359Y-64729D01*
X37169Y-63891D02*
X36978Y-64462D01*
X37474Y-64462D01*
X37778Y-64729D02*
X37778Y-64195D01*
X37778Y-64272D02*
X37817Y-64234D01*
X37893Y-64195D01*
X38007Y-64195D01*
X38083Y-64234D01*
X38121Y-64310D01*
X38121Y-64729D01*
X38121Y-64310D02*
X38159Y-64234D01*
X38236Y-64195D01*
X38350Y-64195D01*
X38426Y-64234D01*
X38464Y-64310D01*
X38464Y-64729D01*
X38845Y-64729D02*
X38845Y-64195D01*
X38845Y-64272D02*
X38884Y-64234D01*
X38960Y-64195D01*
X39074Y-64195D01*
X39150Y-64234D01*
X39188Y-64310D01*
X39188Y-64729D01*
X39188Y-64310D02*
X39226Y-64234D01*
X39303Y-64195D01*
X39417Y-64195D01*
X39493Y-64234D01*
X39531Y-64310D01*
X39531Y-64729D01*
X40751Y-65034D02*
X40713Y-64995D01*
X40637Y-64881D01*
X40599Y-64805D01*
X40561Y-64691D01*
X40522Y-64500D01*
X40522Y-64348D01*
X40561Y-64157D01*
X40599Y-64043D01*
X40637Y-63967D01*
X40713Y-63853D01*
X40751Y-63815D01*
X41208Y-63929D02*
X41284Y-63929D01*
X41360Y-63967D01*
X41398Y-64005D01*
X41436Y-64081D01*
X41475Y-64234D01*
X41475Y-64424D01*
X41436Y-64576D01*
X41398Y-64653D01*
X41360Y-64691D01*
X41284Y-64729D01*
X41208Y-64729D01*
X41132Y-64691D01*
X41094Y-64653D01*
X41055Y-64576D01*
X41017Y-64424D01*
X41017Y-64234D01*
X41055Y-64081D01*
X41094Y-64005D01*
X41132Y-63967D01*
X41208Y-63929D01*
X42427Y-64729D02*
X42427Y-63929D01*
X42770Y-64729D02*
X42770Y-64310D01*
X42732Y-64234D01*
X42656Y-64195D01*
X42542Y-64195D01*
X42466Y-64234D01*
X42427Y-64272D01*
X43266Y-64729D02*
X43190Y-64691D01*
X43151Y-64653D01*
X43113Y-64576D01*
X43113Y-64348D01*
X43151Y-64272D01*
X43190Y-64234D01*
X43266Y-64195D01*
X43380Y-64195D01*
X43456Y-64234D01*
X43494Y-64272D01*
X43532Y-64348D01*
X43532Y-64576D01*
X43494Y-64653D01*
X43456Y-64691D01*
X43380Y-64729D01*
X43266Y-64729D01*
X43990Y-64729D02*
X43914Y-64691D01*
X43875Y-64615D01*
X43875Y-63929D01*
X44599Y-64691D02*
X44523Y-64729D01*
X44371Y-64729D01*
X44294Y-64691D01*
X44256Y-64615D01*
X44256Y-64310D01*
X44294Y-64234D01*
X44371Y-64195D01*
X44523Y-64195D01*
X44599Y-64234D01*
X44637Y-64310D01*
X44637Y-64386D01*
X44256Y-64462D01*
X44942Y-64691D02*
X45019Y-64729D01*
X45171Y-64729D01*
X45247Y-64691D01*
X45285Y-64615D01*
X45285Y-64576D01*
X45247Y-64500D01*
X45171Y-64462D01*
X45057Y-64462D01*
X44980Y-64424D01*
X44942Y-64348D01*
X44942Y-64310D01*
X44980Y-64234D01*
X45057Y-64195D01*
X45171Y-64195D01*
X45247Y-64234D01*
X46238Y-64424D02*
X46848Y-64424D01*
X46543Y-64729D02*
X46543Y-64119D01*
X47800Y-64005D02*
X47838Y-63967D01*
X47915Y-63929D01*
X48105Y-63929D01*
X48181Y-63967D01*
X48219Y-64005D01*
X48258Y-64081D01*
X48258Y-64157D01*
X48219Y-64272D01*
X47762Y-64729D01*
X48258Y-64729D01*
X49172Y-64691D02*
X49249Y-64729D01*
X49401Y-64729D01*
X49477Y-64691D01*
X49515Y-64615D01*
X49515Y-64576D01*
X49477Y-64500D01*
X49401Y-64462D01*
X49287Y-64462D01*
X49210Y-64424D01*
X49172Y-64348D01*
X49172Y-64310D01*
X49210Y-64234D01*
X49287Y-64195D01*
X49401Y-64195D01*
X49477Y-64234D01*
X49973Y-64729D02*
X49897Y-64691D01*
X49858Y-64615D01*
X49858Y-63929D01*
X50392Y-64729D02*
X50316Y-64691D01*
X50277Y-64653D01*
X50239Y-64576D01*
X50239Y-64348D01*
X50277Y-64272D01*
X50316Y-64234D01*
X50392Y-64195D01*
X50506Y-64195D01*
X50582Y-64234D01*
X50620Y-64272D01*
X50658Y-64348D01*
X50658Y-64576D01*
X50620Y-64653D01*
X50582Y-64691D01*
X50506Y-64729D01*
X50392Y-64729D01*
X50887Y-64195D02*
X51192Y-64195D01*
X51001Y-63929D02*
X51001Y-64615D01*
X51040Y-64691D01*
X51116Y-64729D01*
X51192Y-64729D01*
X51420Y-64691D02*
X51497Y-64729D01*
X51649Y-64729D01*
X51725Y-64691D01*
X51763Y-64615D01*
X51763Y-64576D01*
X51725Y-64500D01*
X51649Y-64462D01*
X51535Y-64462D01*
X51458Y-64424D01*
X51420Y-64348D01*
X51420Y-64310D01*
X51458Y-64234D01*
X51535Y-64195D01*
X51649Y-64195D01*
X51725Y-64234D01*
X52030Y-65034D02*
X52068Y-64995D01*
X52145Y-64881D01*
X52183Y-64805D01*
X52221Y-64691D01*
X52259Y-64500D01*
X52259Y-64348D01*
X52221Y-64157D01*
X52183Y-64043D01*
X52145Y-63967D01*
X52068Y-63853D01*
X52030Y-63815D01*
G54D10*
X28557Y-65620D02*
X28557Y-65300D01*
X28237Y-65300D01*
X28237Y-65620D01*
X28557Y-65620D01*
G54D12*
X29167Y-64984D02*
X29243Y-64984D01*
X29319Y-65022D01*
X29357Y-65060D01*
X29395Y-65136D01*
X29434Y-65289D01*
X29434Y-65479D01*
X29395Y-65631D01*
X29357Y-65708D01*
X29319Y-65746D01*
X29243Y-65784D01*
X29167Y-65784D01*
X29091Y-65746D01*
X29053Y-65708D01*
X29014Y-65631D01*
X28976Y-65479D01*
X28976Y-65289D01*
X29014Y-65136D01*
X29053Y-65060D01*
X29091Y-65022D01*
X29167Y-64984D01*
X29776Y-65708D02*
X29815Y-65746D01*
X29776Y-65784D01*
X29738Y-65746D01*
X29776Y-65708D01*
X29776Y-65784D01*
X30310Y-64984D02*
X30386Y-64984D01*
X30462Y-65022D01*
X30500Y-65060D01*
X30538Y-65136D01*
X30577Y-65289D01*
X30577Y-65479D01*
X30538Y-65631D01*
X30500Y-65708D01*
X30462Y-65746D01*
X30386Y-65784D01*
X30310Y-65784D01*
X30234Y-65746D01*
X30196Y-65708D01*
X30157Y-65631D01*
X30119Y-65479D01*
X30119Y-65289D01*
X30157Y-65136D01*
X30196Y-65060D01*
X30234Y-65022D01*
X30310Y-64984D01*
X31262Y-65250D02*
X31262Y-65784D01*
X31072Y-64946D02*
X30881Y-65517D01*
X31377Y-65517D01*
X32062Y-64984D02*
X31681Y-64984D01*
X31643Y-65365D01*
X31681Y-65327D01*
X31758Y-65289D01*
X31948Y-65289D01*
X32024Y-65327D01*
X32062Y-65365D01*
X32101Y-65441D01*
X32101Y-65631D01*
X32062Y-65708D01*
X32024Y-65746D01*
X31948Y-65784D01*
X31758Y-65784D01*
X31681Y-65746D01*
X31643Y-65708D01*
X32405Y-64984D02*
X32405Y-65136D01*
X32710Y-64984D02*
X32710Y-65136D01*
X34235Y-64946D02*
X33549Y-65974D01*
X35531Y-65784D02*
X35073Y-65784D01*
X35302Y-65784D02*
X35302Y-64984D01*
X35226Y-65098D01*
X35150Y-65174D01*
X35073Y-65212D01*
X35873Y-65708D02*
X35912Y-65746D01*
X35873Y-65784D01*
X35835Y-65746D01*
X35873Y-65708D01*
X35873Y-65784D01*
X36674Y-65784D02*
X36216Y-65784D01*
X36445Y-65784D02*
X36445Y-64984D01*
X36369Y-65098D01*
X36293Y-65174D01*
X36216Y-65212D01*
X37397Y-64984D02*
X37016Y-64984D01*
X36978Y-65365D01*
X37016Y-65327D01*
X37093Y-65289D01*
X37283Y-65289D01*
X37359Y-65327D01*
X37397Y-65365D01*
X37436Y-65441D01*
X37436Y-65631D01*
X37397Y-65708D01*
X37359Y-65746D01*
X37283Y-65784D01*
X37093Y-65784D01*
X37016Y-65746D01*
X36978Y-65708D01*
X37778Y-65784D02*
X37778Y-65250D01*
X37778Y-65327D02*
X37817Y-65289D01*
X37893Y-65250D01*
X38007Y-65250D01*
X38083Y-65289D01*
X38121Y-65365D01*
X38121Y-65784D01*
X38121Y-65365D02*
X38159Y-65289D01*
X38236Y-65250D01*
X38350Y-65250D01*
X38426Y-65289D01*
X38464Y-65365D01*
X38464Y-65784D01*
X38845Y-65784D02*
X38845Y-65250D01*
X38845Y-65327D02*
X38884Y-65289D01*
X38960Y-65250D01*
X39074Y-65250D01*
X39150Y-65289D01*
X39188Y-65365D01*
X39188Y-65784D01*
X39188Y-65365D02*
X39226Y-65289D01*
X39303Y-65250D01*
X39417Y-65250D01*
X39493Y-65289D01*
X39531Y-65365D01*
X39531Y-65784D01*
X40751Y-66089D02*
X40713Y-66050D01*
X40637Y-65936D01*
X40599Y-65860D01*
X40561Y-65746D01*
X40522Y-65555D01*
X40522Y-65403D01*
X40561Y-65212D01*
X40599Y-65098D01*
X40637Y-65022D01*
X40713Y-64908D01*
X40751Y-64870D01*
X41398Y-65250D02*
X41398Y-65784D01*
X41208Y-64946D02*
X41017Y-65517D01*
X41513Y-65517D01*
X42427Y-65784D02*
X42427Y-64984D01*
X42770Y-65784D02*
X42770Y-65365D01*
X42732Y-65289D01*
X42656Y-65250D01*
X42542Y-65250D01*
X42466Y-65289D01*
X42427Y-65327D01*
X43266Y-65784D02*
X43190Y-65746D01*
X43151Y-65708D01*
X43113Y-65631D01*
X43113Y-65403D01*
X43151Y-65327D01*
X43190Y-65289D01*
X43266Y-65250D01*
X43380Y-65250D01*
X43456Y-65289D01*
X43494Y-65327D01*
X43532Y-65403D01*
X43532Y-65631D01*
X43494Y-65708D01*
X43456Y-65746D01*
X43380Y-65784D01*
X43266Y-65784D01*
X43990Y-65784D02*
X43914Y-65746D01*
X43875Y-65670D01*
X43875Y-64984D01*
X44599Y-65746D02*
X44523Y-65784D01*
X44371Y-65784D01*
X44294Y-65746D01*
X44256Y-65670D01*
X44256Y-65365D01*
X44294Y-65289D01*
X44371Y-65250D01*
X44523Y-65250D01*
X44599Y-65289D01*
X44637Y-65365D01*
X44637Y-65441D01*
X44256Y-65517D01*
X44942Y-65746D02*
X45019Y-65784D01*
X45171Y-65784D01*
X45247Y-65746D01*
X45285Y-65670D01*
X45285Y-65631D01*
X45247Y-65555D01*
X45171Y-65517D01*
X45057Y-65517D01*
X44980Y-65479D01*
X44942Y-65403D01*
X44942Y-65365D01*
X44980Y-65289D01*
X45057Y-65250D01*
X45171Y-65250D01*
X45247Y-65289D01*
X45552Y-66089D02*
X45590Y-66050D01*
X45667Y-65936D01*
X45705Y-65860D01*
X45743Y-65746D01*
X45781Y-65555D01*
X45781Y-65403D01*
X45743Y-65212D01*
X45705Y-65098D01*
X45667Y-65022D01*
X45590Y-64908D01*
X45552Y-64870D01*
G54D10*
X28348Y-66790D02*
X28623Y-66515D01*
X28348Y-66240D01*
X28073Y-66515D01*
X28348Y-66790D01*
G54D12*
X29167Y-66039D02*
X29243Y-66039D01*
X29319Y-66077D01*
X29357Y-66115D01*
X29395Y-66191D01*
X29434Y-66344D01*
X29434Y-66534D01*
X29395Y-66686D01*
X29357Y-66763D01*
X29319Y-66801D01*
X29243Y-66839D01*
X29167Y-66839D01*
X29091Y-66801D01*
X29053Y-66763D01*
X29014Y-66686D01*
X28976Y-66534D01*
X28976Y-66344D01*
X29014Y-66191D01*
X29053Y-66115D01*
X29091Y-66077D01*
X29167Y-66039D01*
X29776Y-66763D02*
X29815Y-66801D01*
X29776Y-66839D01*
X29738Y-66801D01*
X29776Y-66763D01*
X29776Y-66839D01*
X30310Y-66039D02*
X30386Y-66039D01*
X30462Y-66077D01*
X30500Y-66115D01*
X30538Y-66191D01*
X30577Y-66344D01*
X30577Y-66534D01*
X30538Y-66686D01*
X30500Y-66763D01*
X30462Y-66801D01*
X30386Y-66839D01*
X30310Y-66839D01*
X30234Y-66801D01*
X30196Y-66763D01*
X30157Y-66686D01*
X30119Y-66534D01*
X30119Y-66344D01*
X30157Y-66191D01*
X30196Y-66115D01*
X30234Y-66077D01*
X30310Y-66039D01*
X31300Y-66039D02*
X30919Y-66039D01*
X30881Y-66420D01*
X30919Y-66382D01*
X30996Y-66344D01*
X31186Y-66344D01*
X31262Y-66382D01*
X31300Y-66420D01*
X31339Y-66496D01*
X31339Y-66686D01*
X31300Y-66763D01*
X31262Y-66801D01*
X31186Y-66839D01*
X30996Y-66839D01*
X30919Y-66801D01*
X30881Y-66763D01*
X32062Y-66039D02*
X31681Y-66039D01*
X31643Y-66420D01*
X31681Y-66382D01*
X31758Y-66344D01*
X31948Y-66344D01*
X32024Y-66382D01*
X32062Y-66420D01*
X32101Y-66496D01*
X32101Y-66686D01*
X32062Y-66763D01*
X32024Y-66801D01*
X31948Y-66839D01*
X31758Y-66839D01*
X31681Y-66801D01*
X31643Y-66763D01*
X32405Y-66039D02*
X32405Y-66191D01*
X32710Y-66039D02*
X32710Y-66191D01*
X34235Y-66001D02*
X33549Y-67029D01*
X35531Y-66839D02*
X35073Y-66839D01*
X35302Y-66839D02*
X35302Y-66039D01*
X35226Y-66153D01*
X35150Y-66229D01*
X35073Y-66267D01*
X35873Y-66763D02*
X35912Y-66801D01*
X35873Y-66839D01*
X35835Y-66801D01*
X35873Y-66763D01*
X35873Y-66839D01*
X36597Y-66305D02*
X36597Y-66839D01*
X36407Y-66001D02*
X36216Y-66572D01*
X36712Y-66572D01*
X37169Y-66039D02*
X37245Y-66039D01*
X37321Y-66077D01*
X37359Y-66115D01*
X37397Y-66191D01*
X37436Y-66344D01*
X37436Y-66534D01*
X37397Y-66686D01*
X37359Y-66763D01*
X37321Y-66801D01*
X37245Y-66839D01*
X37169Y-66839D01*
X37093Y-66801D01*
X37055Y-66763D01*
X37016Y-66686D01*
X36978Y-66534D01*
X36978Y-66344D01*
X37016Y-66191D01*
X37055Y-66115D01*
X37093Y-66077D01*
X37169Y-66039D01*
X37778Y-66839D02*
X37778Y-66305D01*
X37778Y-66382D02*
X37817Y-66344D01*
X37893Y-66305D01*
X38007Y-66305D01*
X38083Y-66344D01*
X38121Y-66420D01*
X38121Y-66839D01*
X38121Y-66420D02*
X38159Y-66344D01*
X38236Y-66305D01*
X38350Y-66305D01*
X38426Y-66344D01*
X38464Y-66420D01*
X38464Y-66839D01*
X38845Y-66839D02*
X38845Y-66305D01*
X38845Y-66382D02*
X38884Y-66344D01*
X38960Y-66305D01*
X39074Y-66305D01*
X39150Y-66344D01*
X39188Y-66420D01*
X39188Y-66839D01*
X39188Y-66420D02*
X39226Y-66344D01*
X39303Y-66305D01*
X39417Y-66305D01*
X39493Y-66344D01*
X39531Y-66420D01*
X39531Y-66839D01*
X40751Y-67144D02*
X40713Y-67105D01*
X40637Y-66991D01*
X40599Y-66915D01*
X40561Y-66801D01*
X40522Y-66610D01*
X40522Y-66458D01*
X40561Y-66267D01*
X40599Y-66153D01*
X40637Y-66077D01*
X40713Y-65963D01*
X40751Y-65925D01*
X41017Y-66115D02*
X41055Y-66077D01*
X41132Y-66039D01*
X41322Y-66039D01*
X41398Y-66077D01*
X41436Y-66115D01*
X41475Y-66191D01*
X41475Y-66267D01*
X41436Y-66382D01*
X40979Y-66839D01*
X41475Y-66839D01*
X42427Y-66839D02*
X42427Y-66039D01*
X42770Y-66839D02*
X42770Y-66420D01*
X42732Y-66344D01*
X42656Y-66305D01*
X42542Y-66305D01*
X42466Y-66344D01*
X42427Y-66382D01*
X43266Y-66839D02*
X43190Y-66801D01*
X43151Y-66763D01*
X43113Y-66686D01*
X43113Y-66458D01*
X43151Y-66382D01*
X43190Y-66344D01*
X43266Y-66305D01*
X43380Y-66305D01*
X43456Y-66344D01*
X43494Y-66382D01*
X43532Y-66458D01*
X43532Y-66686D01*
X43494Y-66763D01*
X43456Y-66801D01*
X43380Y-66839D01*
X43266Y-66839D01*
X43990Y-66839D02*
X43914Y-66801D01*
X43875Y-66725D01*
X43875Y-66039D01*
X44599Y-66801D02*
X44523Y-66839D01*
X44371Y-66839D01*
X44294Y-66801D01*
X44256Y-66725D01*
X44256Y-66420D01*
X44294Y-66344D01*
X44371Y-66305D01*
X44523Y-66305D01*
X44599Y-66344D01*
X44637Y-66420D01*
X44637Y-66496D01*
X44256Y-66572D01*
X44942Y-66801D02*
X45019Y-66839D01*
X45171Y-66839D01*
X45247Y-66801D01*
X45285Y-66725D01*
X45285Y-66686D01*
X45247Y-66610D01*
X45171Y-66572D01*
X45057Y-66572D01*
X44980Y-66534D01*
X44942Y-66458D01*
X44942Y-66420D01*
X44980Y-66344D01*
X45057Y-66305D01*
X45171Y-66305D01*
X45247Y-66344D01*
X45552Y-67144D02*
X45590Y-67105D01*
X45667Y-66991D01*
X45705Y-66915D01*
X45743Y-66801D01*
X45781Y-66610D01*
X45781Y-66458D01*
X45743Y-66267D01*
X45705Y-66153D01*
X45667Y-66077D01*
X45590Y-65963D01*
X45552Y-65925D01*
G54D10*
X28529Y-67800D02*
X28529Y-67340D01*
X28069Y-67340D01*
X28069Y-67800D01*
X28529Y-67800D01*
X27974Y-67245D02*
X28624Y-67895D01*
X28624Y-67245D02*
X27974Y-67895D01*
G54D12*
X29167Y-67094D02*
X29243Y-67094D01*
X29319Y-67132D01*
X29357Y-67170D01*
X29395Y-67246D01*
X29434Y-67399D01*
X29434Y-67589D01*
X29395Y-67741D01*
X29357Y-67818D01*
X29319Y-67856D01*
X29243Y-67894D01*
X29167Y-67894D01*
X29091Y-67856D01*
X29053Y-67818D01*
X29014Y-67741D01*
X28976Y-67589D01*
X28976Y-67399D01*
X29014Y-67246D01*
X29053Y-67170D01*
X29091Y-67132D01*
X29167Y-67094D01*
X29776Y-67818D02*
X29815Y-67856D01*
X29776Y-67894D01*
X29738Y-67856D01*
X29776Y-67818D01*
X29776Y-67894D01*
X30310Y-67094D02*
X30386Y-67094D01*
X30462Y-67132D01*
X30500Y-67170D01*
X30538Y-67246D01*
X30577Y-67399D01*
X30577Y-67589D01*
X30538Y-67741D01*
X30500Y-67818D01*
X30462Y-67856D01*
X30386Y-67894D01*
X30310Y-67894D01*
X30234Y-67856D01*
X30196Y-67818D01*
X30157Y-67741D01*
X30119Y-67589D01*
X30119Y-67399D01*
X30157Y-67246D01*
X30196Y-67170D01*
X30234Y-67132D01*
X30310Y-67094D01*
X31262Y-67094D02*
X31110Y-67094D01*
X31034Y-67132D01*
X30996Y-67170D01*
X30919Y-67284D01*
X30881Y-67437D01*
X30881Y-67741D01*
X30919Y-67818D01*
X30958Y-67856D01*
X31034Y-67894D01*
X31186Y-67894D01*
X31262Y-67856D01*
X31300Y-67818D01*
X31339Y-67741D01*
X31339Y-67551D01*
X31300Y-67475D01*
X31262Y-67437D01*
X31186Y-67399D01*
X31034Y-67399D01*
X30958Y-67437D01*
X30919Y-67475D01*
X30881Y-67551D01*
X32062Y-67094D02*
X31681Y-67094D01*
X31643Y-67475D01*
X31681Y-67437D01*
X31758Y-67399D01*
X31948Y-67399D01*
X32024Y-67437D01*
X32062Y-67475D01*
X32101Y-67551D01*
X32101Y-67741D01*
X32062Y-67818D01*
X32024Y-67856D01*
X31948Y-67894D01*
X31758Y-67894D01*
X31681Y-67856D01*
X31643Y-67818D01*
X32405Y-67094D02*
X32405Y-67246D01*
X32710Y-67094D02*
X32710Y-67246D01*
X34235Y-67056D02*
X33549Y-68084D01*
X35531Y-67894D02*
X35073Y-67894D01*
X35302Y-67894D02*
X35302Y-67094D01*
X35226Y-67208D01*
X35150Y-67284D01*
X35073Y-67322D01*
X35873Y-67818D02*
X35912Y-67856D01*
X35873Y-67894D01*
X35835Y-67856D01*
X35873Y-67818D01*
X35873Y-67894D01*
X36597Y-67094D02*
X36445Y-67094D01*
X36369Y-67132D01*
X36331Y-67170D01*
X36254Y-67284D01*
X36216Y-67437D01*
X36216Y-67741D01*
X36254Y-67818D01*
X36293Y-67856D01*
X36369Y-67894D01*
X36521Y-67894D01*
X36597Y-67856D01*
X36635Y-67818D01*
X36674Y-67741D01*
X36674Y-67551D01*
X36635Y-67475D01*
X36597Y-67437D01*
X36521Y-67399D01*
X36369Y-67399D01*
X36293Y-67437D01*
X36254Y-67475D01*
X36216Y-67551D01*
X37397Y-67094D02*
X37016Y-67094D01*
X36978Y-67475D01*
X37016Y-67437D01*
X37093Y-67399D01*
X37283Y-67399D01*
X37359Y-67437D01*
X37397Y-67475D01*
X37436Y-67551D01*
X37436Y-67741D01*
X37397Y-67818D01*
X37359Y-67856D01*
X37283Y-67894D01*
X37093Y-67894D01*
X37016Y-67856D01*
X36978Y-67818D01*
X37778Y-67894D02*
X37778Y-67360D01*
X37778Y-67437D02*
X37817Y-67399D01*
X37893Y-67360D01*
X38007Y-67360D01*
X38083Y-67399D01*
X38121Y-67475D01*
X38121Y-67894D01*
X38121Y-67475D02*
X38159Y-67399D01*
X38236Y-67360D01*
X38350Y-67360D01*
X38426Y-67399D01*
X38464Y-67475D01*
X38464Y-67894D01*
X38845Y-67894D02*
X38845Y-67360D01*
X38845Y-67437D02*
X38884Y-67399D01*
X38960Y-67360D01*
X39074Y-67360D01*
X39150Y-67399D01*
X39188Y-67475D01*
X39188Y-67894D01*
X39188Y-67475D02*
X39226Y-67399D01*
X39303Y-67360D01*
X39417Y-67360D01*
X39493Y-67399D01*
X39531Y-67475D01*
X39531Y-67894D01*
X40751Y-68199D02*
X40713Y-68160D01*
X40637Y-68046D01*
X40599Y-67970D01*
X40561Y-67856D01*
X40522Y-67665D01*
X40522Y-67513D01*
X40561Y-67322D01*
X40599Y-67208D01*
X40637Y-67132D01*
X40713Y-67018D01*
X40751Y-66980D01*
X41475Y-67894D02*
X41017Y-67894D01*
X41246Y-67894D02*
X41246Y-67094D01*
X41170Y-67208D01*
X41094Y-67284D01*
X41017Y-67322D01*
X41970Y-67094D02*
X42046Y-67094D01*
X42122Y-67132D01*
X42160Y-67170D01*
X42198Y-67246D01*
X42237Y-67399D01*
X42237Y-67589D01*
X42198Y-67741D01*
X42160Y-67818D01*
X42122Y-67856D01*
X42046Y-67894D01*
X41970Y-67894D01*
X41894Y-67856D01*
X41856Y-67818D01*
X41817Y-67741D01*
X41779Y-67589D01*
X41779Y-67399D01*
X41817Y-67246D01*
X41856Y-67170D01*
X41894Y-67132D01*
X41970Y-67094D01*
X43189Y-67894D02*
X43189Y-67094D01*
X43532Y-67894D02*
X43532Y-67475D01*
X43494Y-67399D01*
X43418Y-67360D01*
X43304Y-67360D01*
X43228Y-67399D01*
X43189Y-67437D01*
X44028Y-67894D02*
X43952Y-67856D01*
X43913Y-67818D01*
X43875Y-67741D01*
X43875Y-67513D01*
X43913Y-67437D01*
X43952Y-67399D01*
X44028Y-67360D01*
X44142Y-67360D01*
X44218Y-67399D01*
X44256Y-67437D01*
X44294Y-67513D01*
X44294Y-67741D01*
X44256Y-67818D01*
X44218Y-67856D01*
X44142Y-67894D01*
X44028Y-67894D01*
X44752Y-67894D02*
X44676Y-67856D01*
X44637Y-67780D01*
X44637Y-67094D01*
X45361Y-67856D02*
X45285Y-67894D01*
X45133Y-67894D01*
X45056Y-67856D01*
X45018Y-67780D01*
X45018Y-67475D01*
X45056Y-67399D01*
X45133Y-67360D01*
X45285Y-67360D01*
X45361Y-67399D01*
X45399Y-67475D01*
X45399Y-67551D01*
X45018Y-67627D01*
X45704Y-67856D02*
X45781Y-67894D01*
X45933Y-67894D01*
X46009Y-67856D01*
X46047Y-67780D01*
X46047Y-67741D01*
X46009Y-67665D01*
X45933Y-67627D01*
X45819Y-67627D01*
X45742Y-67589D01*
X45704Y-67513D01*
X45704Y-67475D01*
X45742Y-67399D01*
X45819Y-67360D01*
X45933Y-67360D01*
X46009Y-67399D01*
X46314Y-68199D02*
X46352Y-68160D01*
X46429Y-68046D01*
X46467Y-67970D01*
X46505Y-67856D01*
X46543Y-67665D01*
X46543Y-67513D01*
X46505Y-67322D01*
X46467Y-67208D01*
X46429Y-67132D01*
X46352Y-67018D01*
X46314Y-66980D01*
G54D10*
X28244Y-69005D02*
X28624Y-68625D01*
X28244Y-68245D01*
X27864Y-68625D01*
X28244Y-69005D01*
X28244Y-68245D02*
X28244Y-69005D01*
X28624Y-68625D02*
X27864Y-68625D01*
G54D12*
X29167Y-68149D02*
X29243Y-68149D01*
X29319Y-68187D01*
X29357Y-68225D01*
X29395Y-68301D01*
X29434Y-68454D01*
X29434Y-68644D01*
X29395Y-68796D01*
X29357Y-68873D01*
X29319Y-68911D01*
X29243Y-68949D01*
X29167Y-68949D01*
X29091Y-68911D01*
X29053Y-68873D01*
X29014Y-68796D01*
X28976Y-68644D01*
X28976Y-68454D01*
X29014Y-68301D01*
X29053Y-68225D01*
X29091Y-68187D01*
X29167Y-68149D01*
X29776Y-68873D02*
X29815Y-68911D01*
X29776Y-68949D01*
X29738Y-68911D01*
X29776Y-68873D01*
X29776Y-68949D01*
X30310Y-68149D02*
X30386Y-68149D01*
X30462Y-68187D01*
X30500Y-68225D01*
X30538Y-68301D01*
X30577Y-68454D01*
X30577Y-68644D01*
X30538Y-68796D01*
X30500Y-68873D01*
X30462Y-68911D01*
X30386Y-68949D01*
X30310Y-68949D01*
X30234Y-68911D01*
X30196Y-68873D01*
X30157Y-68796D01*
X30119Y-68644D01*
X30119Y-68454D01*
X30157Y-68301D01*
X30196Y-68225D01*
X30234Y-68187D01*
X30310Y-68149D01*
X30843Y-68149D02*
X31377Y-68149D01*
X31034Y-68949D01*
X32024Y-68149D02*
X31872Y-68149D01*
X31796Y-68187D01*
X31758Y-68225D01*
X31681Y-68339D01*
X31643Y-68492D01*
X31643Y-68796D01*
X31681Y-68873D01*
X31720Y-68911D01*
X31796Y-68949D01*
X31948Y-68949D01*
X32024Y-68911D01*
X32062Y-68873D01*
X32101Y-68796D01*
X32101Y-68606D01*
X32062Y-68530D01*
X32024Y-68492D01*
X31948Y-68454D01*
X31796Y-68454D01*
X31720Y-68492D01*
X31681Y-68530D01*
X31643Y-68606D01*
X32405Y-68149D02*
X32405Y-68301D01*
X32710Y-68149D02*
X32710Y-68301D01*
X34235Y-68111D02*
X33549Y-69139D01*
X35531Y-68949D02*
X35073Y-68949D01*
X35302Y-68949D02*
X35302Y-68149D01*
X35226Y-68263D01*
X35150Y-68339D01*
X35073Y-68377D01*
X35873Y-68873D02*
X35912Y-68911D01*
X35873Y-68949D01*
X35835Y-68911D01*
X35873Y-68873D01*
X35873Y-68949D01*
X36293Y-68949D02*
X36445Y-68949D01*
X36521Y-68911D01*
X36559Y-68873D01*
X36635Y-68758D01*
X36674Y-68606D01*
X36674Y-68301D01*
X36635Y-68225D01*
X36597Y-68187D01*
X36521Y-68149D01*
X36369Y-68149D01*
X36293Y-68187D01*
X36254Y-68225D01*
X36216Y-68301D01*
X36216Y-68492D01*
X36254Y-68568D01*
X36293Y-68606D01*
X36369Y-68644D01*
X36521Y-68644D01*
X36597Y-68606D01*
X36635Y-68568D01*
X36674Y-68492D01*
X36940Y-68149D02*
X37436Y-68149D01*
X37169Y-68454D01*
X37283Y-68454D01*
X37359Y-68492D01*
X37397Y-68530D01*
X37436Y-68606D01*
X37436Y-68796D01*
X37397Y-68873D01*
X37359Y-68911D01*
X37283Y-68949D01*
X37055Y-68949D01*
X36978Y-68911D01*
X36940Y-68873D01*
X37778Y-68949D02*
X37778Y-68415D01*
X37778Y-68492D02*
X37817Y-68454D01*
X37893Y-68415D01*
X38007Y-68415D01*
X38083Y-68454D01*
X38121Y-68530D01*
X38121Y-68949D01*
X38121Y-68530D02*
X38159Y-68454D01*
X38236Y-68415D01*
X38350Y-68415D01*
X38426Y-68454D01*
X38464Y-68530D01*
X38464Y-68949D01*
X38845Y-68949D02*
X38845Y-68415D01*
X38845Y-68492D02*
X38884Y-68454D01*
X38960Y-68415D01*
X39074Y-68415D01*
X39150Y-68454D01*
X39188Y-68530D01*
X39188Y-68949D01*
X39188Y-68530D02*
X39226Y-68454D01*
X39303Y-68415D01*
X39417Y-68415D01*
X39493Y-68454D01*
X39531Y-68530D01*
X39531Y-68949D01*
X40751Y-69254D02*
X40713Y-69215D01*
X40637Y-69101D01*
X40599Y-69025D01*
X40561Y-68911D01*
X40522Y-68720D01*
X40522Y-68568D01*
X40561Y-68377D01*
X40599Y-68263D01*
X40637Y-68187D01*
X40713Y-68073D01*
X40751Y-68035D01*
X41398Y-68415D02*
X41398Y-68949D01*
X41208Y-68111D02*
X41017Y-68682D01*
X41513Y-68682D01*
X42427Y-68949D02*
X42427Y-68149D01*
X42770Y-68949D02*
X42770Y-68530D01*
X42732Y-68454D01*
X42656Y-68415D01*
X42542Y-68415D01*
X42466Y-68454D01*
X42427Y-68492D01*
X43266Y-68949D02*
X43190Y-68911D01*
X43151Y-68873D01*
X43113Y-68796D01*
X43113Y-68568D01*
X43151Y-68492D01*
X43190Y-68454D01*
X43266Y-68415D01*
X43380Y-68415D01*
X43456Y-68454D01*
X43494Y-68492D01*
X43532Y-68568D01*
X43532Y-68796D01*
X43494Y-68873D01*
X43456Y-68911D01*
X43380Y-68949D01*
X43266Y-68949D01*
X43990Y-68949D02*
X43914Y-68911D01*
X43875Y-68835D01*
X43875Y-68149D01*
X44599Y-68911D02*
X44523Y-68949D01*
X44371Y-68949D01*
X44294Y-68911D01*
X44256Y-68835D01*
X44256Y-68530D01*
X44294Y-68454D01*
X44371Y-68415D01*
X44523Y-68415D01*
X44599Y-68454D01*
X44637Y-68530D01*
X44637Y-68606D01*
X44256Y-68682D01*
X44942Y-68911D02*
X45019Y-68949D01*
X45171Y-68949D01*
X45247Y-68911D01*
X45285Y-68835D01*
X45285Y-68796D01*
X45247Y-68720D01*
X45171Y-68682D01*
X45057Y-68682D01*
X44980Y-68644D01*
X44942Y-68568D01*
X44942Y-68530D01*
X44980Y-68454D01*
X45057Y-68415D01*
X45171Y-68415D01*
X45247Y-68454D01*
X45552Y-69254D02*
X45590Y-69215D01*
X45667Y-69101D01*
X45705Y-69025D01*
X45743Y-68911D01*
X45781Y-68720D01*
X45781Y-68568D01*
X45743Y-68377D01*
X45705Y-68263D01*
X45667Y-68187D01*
X45590Y-68073D01*
X45552Y-68035D01*
G54D10*
X28390Y-70246D02*
X28390Y-69114D01*
X27258Y-69114D01*
X27258Y-70246D01*
X28390Y-70246D01*
X27024Y-68880D02*
X28624Y-70480D01*
G54D12*
X29167Y-69204D02*
X29243Y-69204D01*
X29319Y-69242D01*
X29357Y-69280D01*
X29395Y-69356D01*
X29434Y-69509D01*
X29434Y-69699D01*
X29395Y-69851D01*
X29357Y-69928D01*
X29319Y-69966D01*
X29243Y-70004D01*
X29167Y-70004D01*
X29091Y-69966D01*
X29053Y-69928D01*
X29014Y-69851D01*
X28976Y-69699D01*
X28976Y-69509D01*
X29014Y-69356D01*
X29053Y-69280D01*
X29091Y-69242D01*
X29167Y-69204D01*
X29776Y-69928D02*
X29815Y-69966D01*
X29776Y-70004D01*
X29738Y-69966D01*
X29776Y-69928D01*
X29776Y-70004D01*
X30577Y-70004D02*
X30119Y-70004D01*
X30348Y-70004D02*
X30348Y-69204D01*
X30272Y-69318D01*
X30196Y-69394D01*
X30119Y-69432D01*
X31262Y-69204D02*
X31110Y-69204D01*
X31034Y-69242D01*
X30996Y-69280D01*
X30919Y-69394D01*
X30881Y-69547D01*
X30881Y-69851D01*
X30919Y-69928D01*
X30958Y-69966D01*
X31034Y-70004D01*
X31186Y-70004D01*
X31262Y-69966D01*
X31300Y-69928D01*
X31339Y-69851D01*
X31339Y-69661D01*
X31300Y-69585D01*
X31262Y-69547D01*
X31186Y-69509D01*
X31034Y-69509D01*
X30958Y-69547D01*
X30919Y-69585D01*
X30881Y-69661D01*
X31834Y-69204D02*
X31910Y-69204D01*
X31986Y-69242D01*
X32024Y-69280D01*
X32062Y-69356D01*
X32101Y-69509D01*
X32101Y-69699D01*
X32062Y-69851D01*
X32024Y-69928D01*
X31986Y-69966D01*
X31910Y-70004D01*
X31834Y-70004D01*
X31758Y-69966D01*
X31720Y-69928D01*
X31681Y-69851D01*
X31643Y-69699D01*
X31643Y-69509D01*
X31681Y-69356D01*
X31720Y-69280D01*
X31758Y-69242D01*
X31834Y-69204D01*
X32405Y-69204D02*
X32405Y-69356D01*
X32710Y-69204D02*
X32710Y-69356D01*
X34235Y-69166D02*
X33549Y-70194D01*
X35454Y-69470D02*
X35454Y-70004D01*
X35264Y-69166D02*
X35073Y-69737D01*
X35569Y-69737D01*
X35873Y-69928D02*
X35912Y-69966D01*
X35873Y-70004D01*
X35835Y-69966D01*
X35873Y-69928D01*
X35873Y-70004D01*
X36407Y-69204D02*
X36483Y-69204D01*
X36559Y-69242D01*
X36597Y-69280D01*
X36635Y-69356D01*
X36674Y-69509D01*
X36674Y-69699D01*
X36635Y-69851D01*
X36597Y-69928D01*
X36559Y-69966D01*
X36483Y-70004D01*
X36407Y-70004D01*
X36331Y-69966D01*
X36293Y-69928D01*
X36254Y-69851D01*
X36216Y-69699D01*
X36216Y-69509D01*
X36254Y-69356D01*
X36293Y-69280D01*
X36331Y-69242D01*
X36407Y-69204D01*
X37359Y-69204D02*
X37207Y-69204D01*
X37131Y-69242D01*
X37093Y-69280D01*
X37016Y-69394D01*
X36978Y-69547D01*
X36978Y-69851D01*
X37016Y-69928D01*
X37055Y-69966D01*
X37131Y-70004D01*
X37283Y-70004D01*
X37359Y-69966D01*
X37397Y-69928D01*
X37436Y-69851D01*
X37436Y-69661D01*
X37397Y-69585D01*
X37359Y-69547D01*
X37283Y-69509D01*
X37131Y-69509D01*
X37055Y-69547D01*
X37016Y-69585D01*
X36978Y-69661D01*
X37778Y-70004D02*
X37778Y-69470D01*
X37778Y-69547D02*
X37817Y-69509D01*
X37893Y-69470D01*
X38007Y-69470D01*
X38083Y-69509D01*
X38121Y-69585D01*
X38121Y-70004D01*
X38121Y-69585D02*
X38159Y-69509D01*
X38236Y-69470D01*
X38350Y-69470D01*
X38426Y-69509D01*
X38464Y-69585D01*
X38464Y-70004D01*
X38845Y-70004D02*
X38845Y-69470D01*
X38845Y-69547D02*
X38884Y-69509D01*
X38960Y-69470D01*
X39074Y-69470D01*
X39150Y-69509D01*
X39188Y-69585D01*
X39188Y-70004D01*
X39188Y-69585D02*
X39226Y-69509D01*
X39303Y-69470D01*
X39417Y-69470D01*
X39493Y-69509D01*
X39531Y-69585D01*
X39531Y-70004D01*
X40751Y-70309D02*
X40713Y-70270D01*
X40637Y-70156D01*
X40599Y-70080D01*
X40561Y-69966D01*
X40522Y-69775D01*
X40522Y-69623D01*
X40561Y-69432D01*
X40599Y-69318D01*
X40637Y-69242D01*
X40713Y-69128D01*
X40751Y-69090D01*
X41017Y-69280D02*
X41055Y-69242D01*
X41132Y-69204D01*
X41322Y-69204D01*
X41398Y-69242D01*
X41436Y-69280D01*
X41475Y-69356D01*
X41475Y-69432D01*
X41436Y-69547D01*
X40979Y-70004D01*
X41475Y-70004D01*
X42427Y-70004D02*
X42427Y-69204D01*
X42770Y-70004D02*
X42770Y-69585D01*
X42732Y-69509D01*
X42656Y-69470D01*
X42542Y-69470D01*
X42466Y-69509D01*
X42427Y-69547D01*
X43266Y-70004D02*
X43190Y-69966D01*
X43151Y-69928D01*
X43113Y-69851D01*
X43113Y-69623D01*
X43151Y-69547D01*
X43190Y-69509D01*
X43266Y-69470D01*
X43380Y-69470D01*
X43456Y-69509D01*
X43494Y-69547D01*
X43532Y-69623D01*
X43532Y-69851D01*
X43494Y-69928D01*
X43456Y-69966D01*
X43380Y-70004D01*
X43266Y-70004D01*
X43990Y-70004D02*
X43914Y-69966D01*
X43875Y-69890D01*
X43875Y-69204D01*
X44599Y-69966D02*
X44523Y-70004D01*
X44371Y-70004D01*
X44294Y-69966D01*
X44256Y-69890D01*
X44256Y-69585D01*
X44294Y-69509D01*
X44371Y-69470D01*
X44523Y-69470D01*
X44599Y-69509D01*
X44637Y-69585D01*
X44637Y-69661D01*
X44256Y-69737D01*
X44942Y-69966D02*
X45019Y-70004D01*
X45171Y-70004D01*
X45247Y-69966D01*
X45285Y-69890D01*
X45285Y-69851D01*
X45247Y-69775D01*
X45171Y-69737D01*
X45057Y-69737D01*
X44980Y-69699D01*
X44942Y-69623D01*
X44942Y-69585D01*
X44980Y-69509D01*
X45057Y-69470D01*
X45171Y-69470D01*
X45247Y-69509D01*
X45552Y-70309D02*
X45590Y-70270D01*
X45667Y-70156D01*
X45705Y-70080D01*
X45743Y-69966D01*
X45781Y-69775D01*
X45781Y-69623D01*
X45743Y-69432D01*
X45705Y-69318D01*
X45667Y-69242D01*
X45590Y-69128D01*
X45552Y-69090D01*
G54D10*
X27624Y-72560D02*
X28624Y-71560D01*
X27624Y-70560D01*
X26624Y-71560D01*
X27624Y-72560D01*
X27624Y-70560D02*
X27624Y-72560D01*
G54D12*
X29167Y-71084D02*
X29243Y-71084D01*
X29319Y-71122D01*
X29357Y-71160D01*
X29395Y-71236D01*
X29434Y-71389D01*
X29434Y-71579D01*
X29395Y-71731D01*
X29357Y-71808D01*
X29319Y-71846D01*
X29243Y-71884D01*
X29167Y-71884D01*
X29091Y-71846D01*
X29053Y-71808D01*
X29014Y-71731D01*
X28976Y-71579D01*
X28976Y-71389D01*
X29014Y-71236D01*
X29053Y-71160D01*
X29091Y-71122D01*
X29167Y-71084D01*
X29776Y-71808D02*
X29815Y-71846D01*
X29776Y-71884D01*
X29738Y-71846D01*
X29776Y-71808D01*
X29776Y-71884D01*
X30119Y-71160D02*
X30157Y-71122D01*
X30234Y-71084D01*
X30424Y-71084D01*
X30500Y-71122D01*
X30538Y-71160D01*
X30577Y-71236D01*
X30577Y-71312D01*
X30538Y-71427D01*
X30081Y-71884D01*
X30577Y-71884D01*
X31072Y-71084D02*
X31148Y-71084D01*
X31224Y-71122D01*
X31262Y-71160D01*
X31300Y-71236D01*
X31339Y-71389D01*
X31339Y-71579D01*
X31300Y-71731D01*
X31262Y-71808D01*
X31224Y-71846D01*
X31148Y-71884D01*
X31072Y-71884D01*
X30996Y-71846D01*
X30958Y-71808D01*
X30919Y-71731D01*
X30881Y-71579D01*
X30881Y-71389D01*
X30919Y-71236D01*
X30958Y-71160D01*
X30996Y-71122D01*
X31072Y-71084D01*
X31834Y-71084D02*
X31910Y-71084D01*
X31986Y-71122D01*
X32024Y-71160D01*
X32062Y-71236D01*
X32101Y-71389D01*
X32101Y-71579D01*
X32062Y-71731D01*
X32024Y-71808D01*
X31986Y-71846D01*
X31910Y-71884D01*
X31834Y-71884D01*
X31758Y-71846D01*
X31720Y-71808D01*
X31681Y-71731D01*
X31643Y-71579D01*
X31643Y-71389D01*
X31681Y-71236D01*
X31720Y-71160D01*
X31758Y-71122D01*
X31834Y-71084D01*
X32405Y-71084D02*
X32405Y-71236D01*
X32710Y-71084D02*
X32710Y-71236D01*
X34235Y-71046D02*
X33549Y-72074D01*
X35492Y-71084D02*
X35111Y-71084D01*
X35073Y-71465D01*
X35111Y-71427D01*
X35188Y-71389D01*
X35378Y-71389D01*
X35454Y-71427D01*
X35492Y-71465D01*
X35531Y-71541D01*
X35531Y-71731D01*
X35492Y-71808D01*
X35454Y-71846D01*
X35378Y-71884D01*
X35188Y-71884D01*
X35111Y-71846D01*
X35073Y-71808D01*
X35873Y-71808D02*
X35912Y-71846D01*
X35873Y-71884D01*
X35835Y-71846D01*
X35873Y-71808D01*
X35873Y-71884D01*
X36407Y-71084D02*
X36483Y-71084D01*
X36559Y-71122D01*
X36597Y-71160D01*
X36635Y-71236D01*
X36674Y-71389D01*
X36674Y-71579D01*
X36635Y-71731D01*
X36597Y-71808D01*
X36559Y-71846D01*
X36483Y-71884D01*
X36407Y-71884D01*
X36331Y-71846D01*
X36293Y-71808D01*
X36254Y-71731D01*
X36216Y-71579D01*
X36216Y-71389D01*
X36254Y-71236D01*
X36293Y-71160D01*
X36331Y-71122D01*
X36407Y-71084D01*
X37131Y-71427D02*
X37055Y-71389D01*
X37016Y-71350D01*
X36978Y-71274D01*
X36978Y-71236D01*
X37016Y-71160D01*
X37055Y-71122D01*
X37131Y-71084D01*
X37283Y-71084D01*
X37359Y-71122D01*
X37397Y-71160D01*
X37436Y-71236D01*
X37436Y-71274D01*
X37397Y-71350D01*
X37359Y-71389D01*
X37283Y-71427D01*
X37131Y-71427D01*
X37055Y-71465D01*
X37016Y-71503D01*
X36978Y-71579D01*
X36978Y-71731D01*
X37016Y-71808D01*
X37055Y-71846D01*
X37131Y-71884D01*
X37283Y-71884D01*
X37359Y-71846D01*
X37397Y-71808D01*
X37436Y-71731D01*
X37436Y-71579D01*
X37397Y-71503D01*
X37359Y-71465D01*
X37283Y-71427D01*
X37778Y-71884D02*
X37778Y-71350D01*
X37778Y-71427D02*
X37817Y-71389D01*
X37893Y-71350D01*
X38007Y-71350D01*
X38083Y-71389D01*
X38121Y-71465D01*
X38121Y-71884D01*
X38121Y-71465D02*
X38159Y-71389D01*
X38236Y-71350D01*
X38350Y-71350D01*
X38426Y-71389D01*
X38464Y-71465D01*
X38464Y-71884D01*
X38845Y-71884D02*
X38845Y-71350D01*
X38845Y-71427D02*
X38884Y-71389D01*
X38960Y-71350D01*
X39074Y-71350D01*
X39150Y-71389D01*
X39188Y-71465D01*
X39188Y-71884D01*
X39188Y-71465D02*
X39226Y-71389D01*
X39303Y-71350D01*
X39417Y-71350D01*
X39493Y-71389D01*
X39531Y-71465D01*
X39531Y-71884D01*
X40751Y-72189D02*
X40713Y-72150D01*
X40637Y-72036D01*
X40599Y-71960D01*
X40561Y-71846D01*
X40522Y-71655D01*
X40522Y-71503D01*
X40561Y-71312D01*
X40599Y-71198D01*
X40637Y-71122D01*
X40713Y-71008D01*
X40751Y-70970D01*
X41208Y-71084D02*
X41284Y-71084D01*
X41360Y-71122D01*
X41398Y-71160D01*
X41436Y-71236D01*
X41475Y-71389D01*
X41475Y-71579D01*
X41436Y-71731D01*
X41398Y-71808D01*
X41360Y-71846D01*
X41284Y-71884D01*
X41208Y-71884D01*
X41132Y-71846D01*
X41094Y-71808D01*
X41055Y-71731D01*
X41017Y-71579D01*
X41017Y-71389D01*
X41055Y-71236D01*
X41094Y-71160D01*
X41132Y-71122D01*
X41208Y-71084D01*
X42427Y-71884D02*
X42427Y-71084D01*
X42770Y-71884D02*
X42770Y-71465D01*
X42732Y-71389D01*
X42656Y-71350D01*
X42542Y-71350D01*
X42466Y-71389D01*
X42427Y-71427D01*
X43266Y-71884D02*
X43190Y-71846D01*
X43151Y-71808D01*
X43113Y-71731D01*
X43113Y-71503D01*
X43151Y-71427D01*
X43190Y-71389D01*
X43266Y-71350D01*
X43380Y-71350D01*
X43456Y-71389D01*
X43494Y-71427D01*
X43532Y-71503D01*
X43532Y-71731D01*
X43494Y-71808D01*
X43456Y-71846D01*
X43380Y-71884D01*
X43266Y-71884D01*
X43990Y-71884D02*
X43914Y-71846D01*
X43875Y-71770D01*
X43875Y-71084D01*
X44599Y-71846D02*
X44523Y-71884D01*
X44371Y-71884D01*
X44294Y-71846D01*
X44256Y-71770D01*
X44256Y-71465D01*
X44294Y-71389D01*
X44371Y-71350D01*
X44523Y-71350D01*
X44599Y-71389D01*
X44637Y-71465D01*
X44637Y-71541D01*
X44256Y-71617D01*
X44942Y-71846D02*
X45019Y-71884D01*
X45171Y-71884D01*
X45247Y-71846D01*
X45285Y-71770D01*
X45285Y-71731D01*
X45247Y-71655D01*
X45171Y-71617D01*
X45057Y-71617D01*
X44980Y-71579D01*
X44942Y-71503D01*
X44942Y-71465D01*
X44980Y-71389D01*
X45057Y-71350D01*
X45171Y-71350D01*
X45247Y-71389D01*
X46238Y-71579D02*
X46848Y-71579D01*
X46543Y-71884D02*
X46543Y-71274D01*
X48219Y-71084D02*
X47838Y-71084D01*
X47800Y-71465D01*
X47838Y-71427D01*
X47915Y-71389D01*
X48105Y-71389D01*
X48181Y-71427D01*
X48219Y-71465D01*
X48258Y-71541D01*
X48258Y-71731D01*
X48219Y-71808D01*
X48181Y-71846D01*
X48105Y-71884D01*
X47915Y-71884D01*
X47838Y-71846D01*
X47800Y-71808D01*
X49172Y-71846D02*
X49249Y-71884D01*
X49401Y-71884D01*
X49477Y-71846D01*
X49515Y-71770D01*
X49515Y-71731D01*
X49477Y-71655D01*
X49401Y-71617D01*
X49287Y-71617D01*
X49210Y-71579D01*
X49172Y-71503D01*
X49172Y-71465D01*
X49210Y-71389D01*
X49287Y-71350D01*
X49401Y-71350D01*
X49477Y-71389D01*
X49973Y-71884D02*
X49897Y-71846D01*
X49858Y-71770D01*
X49858Y-71084D01*
X50392Y-71884D02*
X50316Y-71846D01*
X50277Y-71808D01*
X50239Y-71731D01*
X50239Y-71503D01*
X50277Y-71427D01*
X50316Y-71389D01*
X50392Y-71350D01*
X50506Y-71350D01*
X50582Y-71389D01*
X50620Y-71427D01*
X50658Y-71503D01*
X50658Y-71731D01*
X50620Y-71808D01*
X50582Y-71846D01*
X50506Y-71884D01*
X50392Y-71884D01*
X50887Y-71350D02*
X51192Y-71350D01*
X51001Y-71084D02*
X51001Y-71770D01*
X51040Y-71846D01*
X51116Y-71884D01*
X51192Y-71884D01*
X51420Y-71846D02*
X51497Y-71884D01*
X51649Y-71884D01*
X51725Y-71846D01*
X51763Y-71770D01*
X51763Y-71731D01*
X51725Y-71655D01*
X51649Y-71617D01*
X51535Y-71617D01*
X51458Y-71579D01*
X51420Y-71503D01*
X51420Y-71465D01*
X51458Y-71389D01*
X51535Y-71350D01*
X51649Y-71350D01*
X51725Y-71389D01*
X52030Y-72189D02*
X52068Y-72150D01*
X52145Y-72036D01*
X52183Y-71960D01*
X52221Y-71846D01*
X52259Y-71655D01*
X52259Y-71503D01*
X52221Y-71312D01*
X52183Y-71198D01*
X52145Y-71122D01*
X52068Y-71008D01*
X52030Y-70970D01*
M02*
