G04 (created by PCBNEW-RS274X (2011-07-08 BZR 3044)-stable) date 11/18/2011 4:50:18 PM*
G01*
G70*
G90*
%MOIN*%
G04 Gerber Fmt 3.4, Leading zero omitted, Abs format*
%FSLAX34Y34*%
G04 APERTURE LIST*
%ADD10C,0.006000*%
%ADD11C,0.012000*%
%ADD12C,0.015000*%
%ADD13C,0.200000*%
%ADD14R,0.020000X0.045000*%
%ADD15R,0.060000X0.060000*%
%ADD16C,0.060000*%
%ADD17R,0.023600X0.043300*%
%ADD18R,0.167300X0.500000*%
%ADD19C,0.102400*%
%ADD20R,0.049200X0.049200*%
%ADD21R,0.059100X0.098400*%
%ADD22O,0.100000X0.070000*%
%ADD23R,0.026000X0.050000*%
%ADD24O,0.100000X0.140000*%
%ADD25O,0.160000X0.200000*%
%ADD26O,0.066900X0.110200*%
%ADD27O,0.110200X0.066900*%
%ADD28R,0.039400X0.200000*%
%ADD29C,0.140000*%
%ADD30R,0.100000X0.100000*%
%ADD31O,0.060000X0.090000*%
%ADD32C,0.300000*%
%ADD33O,0.080000X0.060000*%
%ADD34C,0.035000*%
%ADD35C,0.016000*%
%ADD36C,0.108000*%
G04 APERTURE END LIST*
G54D10*
X04000Y-04000D02*
X106000Y-04000D01*
X106000Y-81000D01*
X04000Y-81000D01*
X04000Y-04000D01*
X04700Y-04700D02*
X105300Y-04700D01*
X105300Y-80300D01*
X04700Y-80300D01*
X04700Y-04700D01*
X24400Y-04000D02*
X24400Y-04700D01*
X14343Y-04552D02*
X14057Y-04552D01*
X14200Y-04552D02*
X14200Y-04052D01*
X14152Y-04124D01*
X14105Y-04171D01*
X14057Y-04195D01*
X24400Y-81000D02*
X24400Y-80300D01*
X14343Y-80852D02*
X14057Y-80852D01*
X14200Y-80852D02*
X14200Y-80352D01*
X14152Y-80424D01*
X14105Y-80471D01*
X14057Y-80495D01*
X44800Y-04000D02*
X44800Y-04700D01*
X34457Y-04100D02*
X34481Y-04076D01*
X34529Y-04052D01*
X34648Y-04052D01*
X34695Y-04076D01*
X34719Y-04100D01*
X34743Y-04148D01*
X34743Y-04195D01*
X34719Y-04267D01*
X34433Y-04552D01*
X34743Y-04552D01*
X44800Y-81000D02*
X44800Y-80300D01*
X34457Y-80400D02*
X34481Y-80376D01*
X34529Y-80352D01*
X34648Y-80352D01*
X34695Y-80376D01*
X34719Y-80400D01*
X34743Y-80448D01*
X34743Y-80495D01*
X34719Y-80567D01*
X34433Y-80852D01*
X34743Y-80852D01*
X65200Y-04000D02*
X65200Y-04700D01*
X54833Y-04052D02*
X55143Y-04052D01*
X54976Y-04243D01*
X55048Y-04243D01*
X55095Y-04267D01*
X55119Y-04290D01*
X55143Y-04338D01*
X55143Y-04457D01*
X55119Y-04505D01*
X55095Y-04529D01*
X55048Y-04552D01*
X54905Y-04552D01*
X54857Y-04529D01*
X54833Y-04505D01*
X65200Y-81000D02*
X65200Y-80300D01*
X54833Y-80352D02*
X55143Y-80352D01*
X54976Y-80543D01*
X55048Y-80543D01*
X55095Y-80567D01*
X55119Y-80590D01*
X55143Y-80638D01*
X55143Y-80757D01*
X55119Y-80805D01*
X55095Y-80829D01*
X55048Y-80852D01*
X54905Y-80852D01*
X54857Y-80829D01*
X54833Y-80805D01*
X85600Y-04000D02*
X85600Y-04700D01*
X75495Y-04219D02*
X75495Y-04552D01*
X75376Y-04029D02*
X75257Y-04386D01*
X75567Y-04386D01*
X85600Y-81000D02*
X85600Y-80300D01*
X75495Y-80519D02*
X75495Y-80852D01*
X75376Y-80329D02*
X75257Y-80686D01*
X75567Y-80686D01*
X95919Y-04052D02*
X95681Y-04052D01*
X95657Y-04290D01*
X95681Y-04267D01*
X95729Y-04243D01*
X95848Y-04243D01*
X95895Y-04267D01*
X95919Y-04290D01*
X95943Y-04338D01*
X95943Y-04457D01*
X95919Y-04505D01*
X95895Y-04529D01*
X95848Y-04552D01*
X95729Y-04552D01*
X95681Y-04529D01*
X95657Y-04505D01*
X95919Y-80352D02*
X95681Y-80352D01*
X95657Y-80590D01*
X95681Y-80567D01*
X95729Y-80543D01*
X95848Y-80543D01*
X95895Y-80567D01*
X95919Y-80590D01*
X95943Y-80638D01*
X95943Y-80757D01*
X95919Y-80805D01*
X95895Y-80829D01*
X95848Y-80852D01*
X95729Y-80852D01*
X95681Y-80829D01*
X95657Y-80805D01*
X04000Y-29660D02*
X04700Y-29660D01*
X04231Y-16890D02*
X04469Y-16890D01*
X04184Y-17032D02*
X04350Y-16532D01*
X04517Y-17032D01*
X106000Y-29660D02*
X105300Y-29660D01*
X105531Y-16890D02*
X105769Y-16890D01*
X105484Y-17032D02*
X105650Y-16532D01*
X105817Y-17032D01*
X04000Y-55320D02*
X04700Y-55320D01*
X04386Y-42430D02*
X04457Y-42454D01*
X04481Y-42478D01*
X04505Y-42526D01*
X04505Y-42597D01*
X04481Y-42645D01*
X04457Y-42669D01*
X04410Y-42692D01*
X04219Y-42692D01*
X04219Y-42192D01*
X04386Y-42192D01*
X04433Y-42216D01*
X04457Y-42240D01*
X04481Y-42288D01*
X04481Y-42335D01*
X04457Y-42383D01*
X04433Y-42407D01*
X04386Y-42430D01*
X04219Y-42430D01*
X106000Y-55320D02*
X105300Y-55320D01*
X105686Y-42430D02*
X105757Y-42454D01*
X105781Y-42478D01*
X105805Y-42526D01*
X105805Y-42597D01*
X105781Y-42645D01*
X105757Y-42669D01*
X105710Y-42692D01*
X105519Y-42692D01*
X105519Y-42192D01*
X105686Y-42192D01*
X105733Y-42216D01*
X105757Y-42240D01*
X105781Y-42288D01*
X105781Y-42335D01*
X105757Y-42383D01*
X105733Y-42407D01*
X105686Y-42430D01*
X105519Y-42430D01*
X04505Y-68305D02*
X04481Y-68329D01*
X04410Y-68352D01*
X04362Y-68352D01*
X04290Y-68329D01*
X04243Y-68281D01*
X04219Y-68233D01*
X04195Y-68138D01*
X04195Y-68067D01*
X04219Y-67971D01*
X04243Y-67924D01*
X04290Y-67876D01*
X04362Y-67852D01*
X04410Y-67852D01*
X04481Y-67876D01*
X04505Y-67900D01*
X105805Y-68305D02*
X105781Y-68329D01*
X105710Y-68352D01*
X105662Y-68352D01*
X105590Y-68329D01*
X105543Y-68281D01*
X105519Y-68233D01*
X105495Y-68138D01*
X105495Y-68067D01*
X105519Y-67971D01*
X105543Y-67924D01*
X105590Y-67876D01*
X105662Y-67852D01*
X105710Y-67852D01*
X105781Y-67876D01*
X105805Y-67900D01*
G54D11*
X72443Y-78743D02*
X72443Y-78143D01*
X72586Y-78143D01*
X72671Y-78171D01*
X72729Y-78229D01*
X72757Y-78286D01*
X72786Y-78400D01*
X72786Y-78486D01*
X72757Y-78600D01*
X72729Y-78657D01*
X72671Y-78714D01*
X72586Y-78743D01*
X72443Y-78743D01*
X73300Y-78743D02*
X73300Y-78429D01*
X73271Y-78371D01*
X73214Y-78343D01*
X73100Y-78343D01*
X73043Y-78371D01*
X73300Y-78714D02*
X73243Y-78743D01*
X73100Y-78743D01*
X73043Y-78714D01*
X73014Y-78657D01*
X73014Y-78600D01*
X73043Y-78543D01*
X73100Y-78514D01*
X73243Y-78514D01*
X73300Y-78486D01*
X73500Y-78343D02*
X73729Y-78343D01*
X73586Y-78143D02*
X73586Y-78657D01*
X73614Y-78714D01*
X73672Y-78743D01*
X73729Y-78743D01*
X74157Y-78714D02*
X74100Y-78743D01*
X73986Y-78743D01*
X73929Y-78714D01*
X73900Y-78657D01*
X73900Y-78429D01*
X73929Y-78371D01*
X73986Y-78343D01*
X74100Y-78343D01*
X74157Y-78371D01*
X74186Y-78429D01*
X74186Y-78486D01*
X73900Y-78543D01*
X74443Y-78686D02*
X74471Y-78714D01*
X74443Y-78743D01*
X74414Y-78714D01*
X74443Y-78686D01*
X74443Y-78743D01*
X74443Y-78371D02*
X74471Y-78400D01*
X74443Y-78429D01*
X74414Y-78400D01*
X74443Y-78371D01*
X74443Y-78429D01*
X75500Y-78743D02*
X75157Y-78743D01*
X75329Y-78743D02*
X75329Y-78143D01*
X75272Y-78229D01*
X75214Y-78286D01*
X75157Y-78314D01*
X75843Y-78400D02*
X75785Y-78371D01*
X75757Y-78343D01*
X75728Y-78286D01*
X75728Y-78257D01*
X75757Y-78200D01*
X75785Y-78171D01*
X75843Y-78143D01*
X75957Y-78143D01*
X76014Y-78171D01*
X76043Y-78200D01*
X76071Y-78257D01*
X76071Y-78286D01*
X76043Y-78343D01*
X76014Y-78371D01*
X75957Y-78400D01*
X75843Y-78400D01*
X75785Y-78429D01*
X75757Y-78457D01*
X75728Y-78514D01*
X75728Y-78629D01*
X75757Y-78686D01*
X75785Y-78714D01*
X75843Y-78743D01*
X75957Y-78743D01*
X76014Y-78714D01*
X76043Y-78686D01*
X76071Y-78629D01*
X76071Y-78514D01*
X76043Y-78457D01*
X76014Y-78429D01*
X75957Y-78400D01*
X76785Y-78343D02*
X76785Y-78743D01*
X76785Y-78400D02*
X76813Y-78371D01*
X76871Y-78343D01*
X76956Y-78343D01*
X77013Y-78371D01*
X77042Y-78429D01*
X77042Y-78743D01*
X77414Y-78743D02*
X77356Y-78714D01*
X77328Y-78686D01*
X77299Y-78629D01*
X77299Y-78457D01*
X77328Y-78400D01*
X77356Y-78371D01*
X77414Y-78343D01*
X77499Y-78343D01*
X77556Y-78371D01*
X77585Y-78400D01*
X77614Y-78457D01*
X77614Y-78629D01*
X77585Y-78686D01*
X77556Y-78714D01*
X77499Y-78743D01*
X77414Y-78743D01*
X77814Y-78343D02*
X77957Y-78743D01*
X78099Y-78343D01*
X78756Y-78200D02*
X78785Y-78171D01*
X78842Y-78143D01*
X78985Y-78143D01*
X79042Y-78171D01*
X79071Y-78200D01*
X79099Y-78257D01*
X79099Y-78314D01*
X79071Y-78400D01*
X78728Y-78743D01*
X79099Y-78743D01*
X79470Y-78143D02*
X79527Y-78143D01*
X79584Y-78171D01*
X79613Y-78200D01*
X79642Y-78257D01*
X79670Y-78371D01*
X79670Y-78514D01*
X79642Y-78629D01*
X79613Y-78686D01*
X79584Y-78714D01*
X79527Y-78743D01*
X79470Y-78743D01*
X79413Y-78714D01*
X79384Y-78686D01*
X79356Y-78629D01*
X79327Y-78514D01*
X79327Y-78371D01*
X79356Y-78257D01*
X79384Y-78200D01*
X79413Y-78171D01*
X79470Y-78143D01*
X80241Y-78743D02*
X79898Y-78743D01*
X80070Y-78743D02*
X80070Y-78143D01*
X80013Y-78229D01*
X79955Y-78286D01*
X79898Y-78314D01*
X80812Y-78743D02*
X80469Y-78743D01*
X80641Y-78743D02*
X80641Y-78143D01*
X80584Y-78229D01*
X80526Y-78286D01*
X80469Y-78314D01*
G54D10*
X64043Y-79943D02*
X64043Y-79343D01*
X64386Y-79943D02*
X64129Y-79600D01*
X64386Y-79343D02*
X64043Y-79686D01*
X64643Y-79943D02*
X64643Y-79543D01*
X64643Y-79343D02*
X64614Y-79371D01*
X64643Y-79400D01*
X64671Y-79371D01*
X64643Y-79343D01*
X64643Y-79400D01*
X65272Y-79886D02*
X65243Y-79914D01*
X65157Y-79943D01*
X65100Y-79943D01*
X65015Y-79914D01*
X64957Y-79857D01*
X64929Y-79800D01*
X64900Y-79686D01*
X64900Y-79600D01*
X64929Y-79486D01*
X64957Y-79429D01*
X65015Y-79371D01*
X65100Y-79343D01*
X65157Y-79343D01*
X65243Y-79371D01*
X65272Y-79400D01*
X65786Y-79943D02*
X65786Y-79629D01*
X65757Y-79571D01*
X65700Y-79543D01*
X65586Y-79543D01*
X65529Y-79571D01*
X65786Y-79914D02*
X65729Y-79943D01*
X65586Y-79943D01*
X65529Y-79914D01*
X65500Y-79857D01*
X65500Y-79800D01*
X65529Y-79743D01*
X65586Y-79714D01*
X65729Y-79714D01*
X65786Y-79686D01*
X66329Y-79943D02*
X66329Y-79343D01*
X66329Y-79914D02*
X66272Y-79943D01*
X66158Y-79943D01*
X66100Y-79914D01*
X66072Y-79886D01*
X66043Y-79829D01*
X66043Y-79657D01*
X66072Y-79600D01*
X66100Y-79571D01*
X66158Y-79543D01*
X66272Y-79543D01*
X66329Y-79571D01*
X67072Y-79629D02*
X67272Y-79629D01*
X67358Y-79943D02*
X67072Y-79943D01*
X67072Y-79343D01*
X67358Y-79343D01*
X67615Y-79886D02*
X67643Y-79914D01*
X67615Y-79943D01*
X67586Y-79914D01*
X67615Y-79886D01*
X67615Y-79943D01*
X67901Y-79943D02*
X67901Y-79343D01*
X68044Y-79343D01*
X68129Y-79371D01*
X68187Y-79429D01*
X68215Y-79486D01*
X68244Y-79600D01*
X68244Y-79686D01*
X68215Y-79800D01*
X68187Y-79857D01*
X68129Y-79914D01*
X68044Y-79943D01*
X67901Y-79943D01*
X68501Y-79886D02*
X68529Y-79914D01*
X68501Y-79943D01*
X68472Y-79914D01*
X68501Y-79886D01*
X68501Y-79943D01*
X68758Y-79771D02*
X69044Y-79771D01*
X68701Y-79943D02*
X68901Y-79343D01*
X69101Y-79943D01*
X69301Y-79886D02*
X69329Y-79914D01*
X69301Y-79943D01*
X69272Y-79914D01*
X69301Y-79886D01*
X69301Y-79943D01*
G54D11*
X97586Y-78743D02*
X97386Y-78457D01*
X97243Y-78743D02*
X97243Y-78143D01*
X97471Y-78143D01*
X97529Y-78171D01*
X97557Y-78200D01*
X97586Y-78257D01*
X97586Y-78343D01*
X97557Y-78400D01*
X97529Y-78429D01*
X97471Y-78457D01*
X97243Y-78457D01*
X98071Y-78714D02*
X98014Y-78743D01*
X97900Y-78743D01*
X97843Y-78714D01*
X97814Y-78657D01*
X97814Y-78429D01*
X97843Y-78371D01*
X97900Y-78343D01*
X98014Y-78343D01*
X98071Y-78371D01*
X98100Y-78429D01*
X98100Y-78486D01*
X97814Y-78543D01*
X98300Y-78343D02*
X98443Y-78743D01*
X98585Y-78343D01*
X98814Y-78686D02*
X98842Y-78714D01*
X98814Y-78743D01*
X98785Y-78714D01*
X98814Y-78686D01*
X98814Y-78743D01*
X98814Y-78371D02*
X98842Y-78400D01*
X98814Y-78429D01*
X98785Y-78400D01*
X98814Y-78371D01*
X98814Y-78429D01*
X99871Y-78743D02*
X99528Y-78743D01*
X99700Y-78743D02*
X99700Y-78143D01*
X99643Y-78229D01*
X99585Y-78286D01*
X99528Y-78314D01*
G54D10*
X64014Y-78714D02*
X64100Y-78743D01*
X64243Y-78743D01*
X64300Y-78714D01*
X64329Y-78686D01*
X64357Y-78629D01*
X64357Y-78571D01*
X64329Y-78514D01*
X64300Y-78486D01*
X64243Y-78457D01*
X64129Y-78429D01*
X64071Y-78400D01*
X64043Y-78371D01*
X64014Y-78314D01*
X64014Y-78257D01*
X64043Y-78200D01*
X64071Y-78171D01*
X64129Y-78143D01*
X64271Y-78143D01*
X64357Y-78171D01*
X64614Y-78743D02*
X64614Y-78343D01*
X64614Y-78143D02*
X64585Y-78171D01*
X64614Y-78200D01*
X64642Y-78171D01*
X64614Y-78143D01*
X64614Y-78200D01*
X64843Y-78343D02*
X65157Y-78343D01*
X64843Y-78743D01*
X65157Y-78743D01*
X65614Y-78714D02*
X65557Y-78743D01*
X65443Y-78743D01*
X65386Y-78714D01*
X65357Y-78657D01*
X65357Y-78429D01*
X65386Y-78371D01*
X65443Y-78343D01*
X65557Y-78343D01*
X65614Y-78371D01*
X65643Y-78429D01*
X65643Y-78486D01*
X65357Y-78543D01*
X65900Y-78686D02*
X65928Y-78714D01*
X65900Y-78743D01*
X65871Y-78714D01*
X65900Y-78686D01*
X65900Y-78743D01*
X65900Y-78371D02*
X65928Y-78400D01*
X65900Y-78429D01*
X65871Y-78400D01*
X65900Y-78371D01*
X65900Y-78429D01*
X66643Y-78143D02*
X66643Y-78629D01*
X66671Y-78686D01*
X66700Y-78714D01*
X66757Y-78743D01*
X66871Y-78743D01*
X66929Y-78714D01*
X66957Y-78686D01*
X66986Y-78629D01*
X66986Y-78143D01*
X67243Y-78714D02*
X67300Y-78743D01*
X67415Y-78743D01*
X67472Y-78714D01*
X67500Y-78657D01*
X67500Y-78629D01*
X67472Y-78571D01*
X67415Y-78543D01*
X67329Y-78543D01*
X67272Y-78514D01*
X67243Y-78457D01*
X67243Y-78429D01*
X67272Y-78371D01*
X67329Y-78343D01*
X67415Y-78343D01*
X67472Y-78371D01*
X67986Y-78714D02*
X67929Y-78743D01*
X67815Y-78743D01*
X67758Y-78714D01*
X67729Y-78657D01*
X67729Y-78429D01*
X67758Y-78371D01*
X67815Y-78343D01*
X67929Y-78343D01*
X67986Y-78371D01*
X68015Y-78429D01*
X68015Y-78486D01*
X67729Y-78543D01*
X68272Y-78743D02*
X68272Y-78343D01*
X68272Y-78457D02*
X68300Y-78400D01*
X68329Y-78371D01*
X68386Y-78343D01*
X68443Y-78343D01*
X97243Y-79943D02*
X97243Y-79343D01*
X97786Y-79943D02*
X97786Y-79343D01*
X97786Y-79914D02*
X97729Y-79943D01*
X97615Y-79943D01*
X97557Y-79914D01*
X97529Y-79886D01*
X97500Y-79829D01*
X97500Y-79657D01*
X97529Y-79600D01*
X97557Y-79571D01*
X97615Y-79543D01*
X97729Y-79543D01*
X97786Y-79571D01*
X98072Y-79886D02*
X98100Y-79914D01*
X98072Y-79943D01*
X98043Y-79914D01*
X98072Y-79886D01*
X98072Y-79943D01*
X98072Y-79571D02*
X98100Y-79600D01*
X98072Y-79629D01*
X98043Y-79600D01*
X98072Y-79571D01*
X98072Y-79629D01*
X99129Y-79943D02*
X98786Y-79943D01*
X98958Y-79943D02*
X98958Y-79343D01*
X98901Y-79429D01*
X98843Y-79486D01*
X98786Y-79514D01*
X99814Y-79314D02*
X99300Y-80086D01*
X100329Y-79943D02*
X99986Y-79943D01*
X100158Y-79943D02*
X100158Y-79343D01*
X100101Y-79429D01*
X100043Y-79486D01*
X99986Y-79514D01*
G54D11*
X63957Y-76943D02*
X64300Y-76943D01*
X64129Y-77543D02*
X64129Y-76943D01*
X64500Y-77543D02*
X64500Y-77143D01*
X64500Y-76943D02*
X64471Y-76971D01*
X64500Y-77000D01*
X64528Y-76971D01*
X64500Y-76943D01*
X64500Y-77000D01*
X64700Y-77143D02*
X64929Y-77143D01*
X64786Y-76943D02*
X64786Y-77457D01*
X64814Y-77514D01*
X64872Y-77543D01*
X64929Y-77543D01*
X65215Y-77543D02*
X65157Y-77514D01*
X65129Y-77457D01*
X65129Y-76943D01*
X65671Y-77514D02*
X65614Y-77543D01*
X65500Y-77543D01*
X65443Y-77514D01*
X65414Y-77457D01*
X65414Y-77229D01*
X65443Y-77171D01*
X65500Y-77143D01*
X65614Y-77143D01*
X65671Y-77171D01*
X65700Y-77229D01*
X65700Y-77286D01*
X65414Y-77343D01*
X65957Y-77486D02*
X65985Y-77514D01*
X65957Y-77543D01*
X65928Y-77514D01*
X65957Y-77486D01*
X65957Y-77543D01*
X65957Y-77171D02*
X65985Y-77200D01*
X65957Y-77229D01*
X65928Y-77200D01*
X65957Y-77171D01*
X65957Y-77229D01*
X66900Y-77229D02*
X66700Y-77229D01*
X66700Y-77543D02*
X66700Y-76943D01*
X66986Y-76943D01*
X67214Y-77543D02*
X67214Y-77143D01*
X67214Y-77257D02*
X67242Y-77200D01*
X67271Y-77171D01*
X67328Y-77143D01*
X67385Y-77143D01*
X67813Y-77514D02*
X67756Y-77543D01*
X67642Y-77543D01*
X67585Y-77514D01*
X67556Y-77457D01*
X67556Y-77229D01*
X67585Y-77171D01*
X67642Y-77143D01*
X67756Y-77143D01*
X67813Y-77171D01*
X67842Y-77229D01*
X67842Y-77286D01*
X67556Y-77343D01*
X68327Y-77514D02*
X68270Y-77543D01*
X68156Y-77543D01*
X68099Y-77514D01*
X68070Y-77457D01*
X68070Y-77229D01*
X68099Y-77171D01*
X68156Y-77143D01*
X68270Y-77143D01*
X68327Y-77171D01*
X68356Y-77229D01*
X68356Y-77286D01*
X68070Y-77343D01*
X68556Y-77143D02*
X68870Y-77143D01*
X68556Y-77543D01*
X68870Y-77543D01*
X69327Y-77514D02*
X69270Y-77543D01*
X69156Y-77543D01*
X69099Y-77514D01*
X69070Y-77457D01*
X69070Y-77229D01*
X69099Y-77171D01*
X69156Y-77143D01*
X69270Y-77143D01*
X69327Y-77171D01*
X69356Y-77229D01*
X69356Y-77286D01*
X69070Y-77343D01*
X69613Y-77543D02*
X69613Y-77143D01*
X69613Y-77257D02*
X69641Y-77200D01*
X69670Y-77171D01*
X69727Y-77143D01*
X69784Y-77143D01*
X70355Y-76943D02*
X70698Y-76943D01*
X70527Y-77543D02*
X70527Y-76943D01*
X71126Y-77514D02*
X71069Y-77543D01*
X70955Y-77543D01*
X70898Y-77514D01*
X70869Y-77457D01*
X70869Y-77229D01*
X70898Y-77171D01*
X70955Y-77143D01*
X71069Y-77143D01*
X71126Y-77171D01*
X71155Y-77229D01*
X71155Y-77286D01*
X70869Y-77343D01*
X71412Y-77543D02*
X71412Y-77143D01*
X71412Y-77200D02*
X71440Y-77171D01*
X71498Y-77143D01*
X71583Y-77143D01*
X71640Y-77171D01*
X71669Y-77229D01*
X71669Y-77543D01*
X71669Y-77229D02*
X71698Y-77171D01*
X71755Y-77143D01*
X71840Y-77143D01*
X71898Y-77171D01*
X71926Y-77229D01*
X71926Y-77543D01*
X72212Y-77143D02*
X72212Y-77743D01*
X72212Y-77171D02*
X72269Y-77143D01*
X72383Y-77143D01*
X72440Y-77171D01*
X72469Y-77200D01*
X72498Y-77257D01*
X72498Y-77429D01*
X72469Y-77486D01*
X72440Y-77514D01*
X72383Y-77543D01*
X72269Y-77543D01*
X72212Y-77514D01*
X72983Y-77514D02*
X72926Y-77543D01*
X72812Y-77543D01*
X72755Y-77514D01*
X72726Y-77457D01*
X72726Y-77229D01*
X72755Y-77171D01*
X72812Y-77143D01*
X72926Y-77143D01*
X72983Y-77171D01*
X73012Y-77229D01*
X73012Y-77286D01*
X72726Y-77343D01*
X73269Y-77543D02*
X73269Y-77143D01*
X73269Y-77257D02*
X73297Y-77200D01*
X73326Y-77171D01*
X73383Y-77143D01*
X73440Y-77143D01*
X73897Y-77543D02*
X73897Y-77229D01*
X73868Y-77171D01*
X73811Y-77143D01*
X73697Y-77143D01*
X73640Y-77171D01*
X73897Y-77514D02*
X73840Y-77543D01*
X73697Y-77543D01*
X73640Y-77514D01*
X73611Y-77457D01*
X73611Y-77400D01*
X73640Y-77343D01*
X73697Y-77314D01*
X73840Y-77314D01*
X73897Y-77286D01*
X74097Y-77143D02*
X74326Y-77143D01*
X74183Y-76943D02*
X74183Y-77457D01*
X74211Y-77514D01*
X74269Y-77543D01*
X74326Y-77543D01*
X74783Y-77143D02*
X74783Y-77543D01*
X74526Y-77143D02*
X74526Y-77457D01*
X74554Y-77514D01*
X74612Y-77543D01*
X74697Y-77543D01*
X74754Y-77514D01*
X74783Y-77486D01*
X75069Y-77543D02*
X75069Y-77143D01*
X75069Y-77257D02*
X75097Y-77200D01*
X75126Y-77171D01*
X75183Y-77143D01*
X75240Y-77143D01*
X75668Y-77514D02*
X75611Y-77543D01*
X75497Y-77543D01*
X75440Y-77514D01*
X75411Y-77457D01*
X75411Y-77229D01*
X75440Y-77171D01*
X75497Y-77143D01*
X75611Y-77143D01*
X75668Y-77171D01*
X75697Y-77229D01*
X75697Y-77286D01*
X75411Y-77343D01*
X76754Y-77486D02*
X76725Y-77514D01*
X76639Y-77543D01*
X76582Y-77543D01*
X76497Y-77514D01*
X76439Y-77457D01*
X76411Y-77400D01*
X76382Y-77286D01*
X76382Y-77200D01*
X76411Y-77086D01*
X76439Y-77029D01*
X76497Y-76971D01*
X76582Y-76943D01*
X76639Y-76943D01*
X76725Y-76971D01*
X76754Y-77000D01*
X77097Y-77543D02*
X77039Y-77514D01*
X77011Y-77486D01*
X76982Y-77429D01*
X76982Y-77257D01*
X77011Y-77200D01*
X77039Y-77171D01*
X77097Y-77143D01*
X77182Y-77143D01*
X77239Y-77171D01*
X77268Y-77200D01*
X77297Y-77257D01*
X77297Y-77429D01*
X77268Y-77486D01*
X77239Y-77514D01*
X77182Y-77543D01*
X77097Y-77543D01*
X77554Y-77143D02*
X77554Y-77543D01*
X77554Y-77200D02*
X77582Y-77171D01*
X77640Y-77143D01*
X77725Y-77143D01*
X77782Y-77171D01*
X77811Y-77229D01*
X77811Y-77543D01*
X78011Y-77143D02*
X78240Y-77143D01*
X78097Y-76943D02*
X78097Y-77457D01*
X78125Y-77514D01*
X78183Y-77543D01*
X78240Y-77543D01*
X78440Y-77543D02*
X78440Y-77143D01*
X78440Y-77257D02*
X78468Y-77200D01*
X78497Y-77171D01*
X78554Y-77143D01*
X78611Y-77143D01*
X78897Y-77543D02*
X78839Y-77514D01*
X78811Y-77486D01*
X78782Y-77429D01*
X78782Y-77257D01*
X78811Y-77200D01*
X78839Y-77171D01*
X78897Y-77143D01*
X78982Y-77143D01*
X79039Y-77171D01*
X79068Y-77200D01*
X79097Y-77257D01*
X79097Y-77429D01*
X79068Y-77486D01*
X79039Y-77514D01*
X78982Y-77543D01*
X78897Y-77543D01*
X79440Y-77543D02*
X79382Y-77514D01*
X79354Y-77457D01*
X79354Y-76943D01*
X79754Y-77543D02*
X79696Y-77514D01*
X79668Y-77457D01*
X79668Y-76943D01*
X80210Y-77514D02*
X80153Y-77543D01*
X80039Y-77543D01*
X79982Y-77514D01*
X79953Y-77457D01*
X79953Y-77229D01*
X79982Y-77171D01*
X80039Y-77143D01*
X80153Y-77143D01*
X80210Y-77171D01*
X80239Y-77229D01*
X80239Y-77286D01*
X79953Y-77343D01*
X80496Y-77543D02*
X80496Y-77143D01*
X80496Y-77257D02*
X80524Y-77200D01*
X80553Y-77171D01*
X80610Y-77143D01*
X80667Y-77143D01*
G54D10*
X64243Y-74829D02*
X64043Y-74829D01*
X64043Y-75143D02*
X64043Y-74543D01*
X64329Y-74543D01*
X64557Y-75143D02*
X64557Y-74743D01*
X64557Y-74543D02*
X64528Y-74571D01*
X64557Y-74600D01*
X64585Y-74571D01*
X64557Y-74543D01*
X64557Y-74600D01*
X64929Y-75143D02*
X64871Y-75114D01*
X64843Y-75057D01*
X64843Y-74543D01*
X65385Y-75114D02*
X65328Y-75143D01*
X65214Y-75143D01*
X65157Y-75114D01*
X65128Y-75057D01*
X65128Y-74829D01*
X65157Y-74771D01*
X65214Y-74743D01*
X65328Y-74743D01*
X65385Y-74771D01*
X65414Y-74829D01*
X65414Y-74886D01*
X65128Y-74943D01*
X65671Y-75086D02*
X65699Y-75114D01*
X65671Y-75143D01*
X65642Y-75114D01*
X65671Y-75086D01*
X65671Y-75143D01*
X65671Y-74771D02*
X65699Y-74800D01*
X65671Y-74829D01*
X65642Y-74800D01*
X65671Y-74771D01*
X65671Y-74829D01*
X66328Y-74543D02*
X66671Y-74543D01*
X66500Y-75143D02*
X66500Y-74543D01*
X67099Y-75114D02*
X67042Y-75143D01*
X66928Y-75143D01*
X66871Y-75114D01*
X66842Y-75057D01*
X66842Y-74829D01*
X66871Y-74771D01*
X66928Y-74743D01*
X67042Y-74743D01*
X67099Y-74771D01*
X67128Y-74829D01*
X67128Y-74886D01*
X66842Y-74943D01*
X67385Y-75143D02*
X67385Y-74743D01*
X67385Y-74800D02*
X67413Y-74771D01*
X67471Y-74743D01*
X67556Y-74743D01*
X67613Y-74771D01*
X67642Y-74829D01*
X67642Y-75143D01*
X67642Y-74829D02*
X67671Y-74771D01*
X67728Y-74743D01*
X67813Y-74743D01*
X67871Y-74771D01*
X67899Y-74829D01*
X67899Y-75143D01*
X68185Y-74743D02*
X68185Y-75343D01*
X68185Y-74771D02*
X68242Y-74743D01*
X68356Y-74743D01*
X68413Y-74771D01*
X68442Y-74800D01*
X68471Y-74857D01*
X68471Y-75029D01*
X68442Y-75086D01*
X68413Y-75114D01*
X68356Y-75143D01*
X68242Y-75143D01*
X68185Y-75114D01*
X69071Y-75086D02*
X69042Y-75114D01*
X68956Y-75143D01*
X68899Y-75143D01*
X68814Y-75114D01*
X68756Y-75057D01*
X68728Y-75000D01*
X68699Y-74886D01*
X68699Y-74800D01*
X68728Y-74686D01*
X68756Y-74629D01*
X68814Y-74571D01*
X68899Y-74543D01*
X68956Y-74543D01*
X69042Y-74571D01*
X69071Y-74600D01*
X69414Y-75143D02*
X69356Y-75114D01*
X69328Y-75086D01*
X69299Y-75029D01*
X69299Y-74857D01*
X69328Y-74800D01*
X69356Y-74771D01*
X69414Y-74743D01*
X69499Y-74743D01*
X69556Y-74771D01*
X69585Y-74800D01*
X69614Y-74857D01*
X69614Y-75029D01*
X69585Y-75086D01*
X69556Y-75114D01*
X69499Y-75143D01*
X69414Y-75143D01*
X69871Y-74743D02*
X69871Y-75143D01*
X69871Y-74800D02*
X69899Y-74771D01*
X69957Y-74743D01*
X70042Y-74743D01*
X70099Y-74771D01*
X70128Y-74829D01*
X70128Y-75143D01*
X70328Y-74743D02*
X70557Y-74743D01*
X70414Y-74543D02*
X70414Y-75057D01*
X70442Y-75114D01*
X70500Y-75143D01*
X70557Y-75143D01*
X70757Y-75143D02*
X70757Y-74743D01*
X70757Y-74857D02*
X70785Y-74800D01*
X70814Y-74771D01*
X70871Y-74743D01*
X70928Y-74743D01*
X71214Y-75143D02*
X71156Y-75114D01*
X71128Y-75086D01*
X71099Y-75029D01*
X71099Y-74857D01*
X71128Y-74800D01*
X71156Y-74771D01*
X71214Y-74743D01*
X71299Y-74743D01*
X71356Y-74771D01*
X71385Y-74800D01*
X71414Y-74857D01*
X71414Y-75029D01*
X71385Y-75086D01*
X71356Y-75114D01*
X71299Y-75143D01*
X71214Y-75143D01*
X71757Y-75143D02*
X71699Y-75114D01*
X71671Y-75057D01*
X71671Y-74543D01*
X71985Y-75086D02*
X72013Y-75114D01*
X71985Y-75143D01*
X71956Y-75114D01*
X71985Y-75086D01*
X71985Y-75143D01*
X72271Y-75143D02*
X72271Y-74543D01*
X72271Y-74771D02*
X72328Y-74743D01*
X72442Y-74743D01*
X72499Y-74771D01*
X72528Y-74800D01*
X72557Y-74857D01*
X72557Y-75029D01*
X72528Y-75086D01*
X72499Y-75114D01*
X72442Y-75143D01*
X72328Y-75143D01*
X72271Y-75114D01*
X72814Y-75143D02*
X72814Y-74743D01*
X72814Y-74857D02*
X72842Y-74800D01*
X72871Y-74771D01*
X72928Y-74743D01*
X72985Y-74743D01*
X73442Y-75143D02*
X73442Y-74543D01*
X73442Y-75114D02*
X73385Y-75143D01*
X73271Y-75143D01*
X73213Y-75114D01*
X73185Y-75086D01*
X73156Y-75029D01*
X73156Y-74857D01*
X73185Y-74800D01*
X73213Y-74771D01*
X73271Y-74743D01*
X73385Y-74743D01*
X73442Y-74771D01*
X64014Y-76314D02*
X64100Y-76343D01*
X64243Y-76343D01*
X64300Y-76314D01*
X64329Y-76286D01*
X64357Y-76229D01*
X64357Y-76171D01*
X64329Y-76114D01*
X64300Y-76086D01*
X64243Y-76057D01*
X64129Y-76029D01*
X64071Y-76000D01*
X64043Y-75971D01*
X64014Y-75914D01*
X64014Y-75857D01*
X64043Y-75800D01*
X64071Y-75771D01*
X64129Y-75743D01*
X64271Y-75743D01*
X64357Y-75771D01*
X64614Y-76343D02*
X64614Y-75743D01*
X64871Y-76343D02*
X64871Y-76029D01*
X64842Y-75971D01*
X64785Y-75943D01*
X64700Y-75943D01*
X64642Y-75971D01*
X64614Y-76000D01*
X65385Y-76314D02*
X65328Y-76343D01*
X65214Y-76343D01*
X65157Y-76314D01*
X65128Y-76257D01*
X65128Y-76029D01*
X65157Y-75971D01*
X65214Y-75943D01*
X65328Y-75943D01*
X65385Y-75971D01*
X65414Y-76029D01*
X65414Y-76086D01*
X65128Y-76143D01*
X65899Y-76314D02*
X65842Y-76343D01*
X65728Y-76343D01*
X65671Y-76314D01*
X65642Y-76257D01*
X65642Y-76029D01*
X65671Y-75971D01*
X65728Y-75943D01*
X65842Y-75943D01*
X65899Y-75971D01*
X65928Y-76029D01*
X65928Y-76086D01*
X65642Y-76143D01*
X66099Y-75943D02*
X66328Y-75943D01*
X66185Y-75743D02*
X66185Y-76257D01*
X66213Y-76314D01*
X66271Y-76343D01*
X66328Y-76343D01*
X66528Y-76286D02*
X66556Y-76314D01*
X66528Y-76343D01*
X66499Y-76314D01*
X66528Y-76286D01*
X66528Y-76343D01*
X66528Y-75971D02*
X66556Y-76000D01*
X66528Y-76029D01*
X66499Y-76000D01*
X66528Y-75971D01*
X66528Y-76029D01*
X67585Y-76343D02*
X67242Y-76343D01*
X67414Y-76343D02*
X67414Y-75743D01*
X67357Y-75829D01*
X67299Y-75886D01*
X67242Y-75914D01*
X68270Y-75714D02*
X67756Y-76486D01*
X68785Y-76343D02*
X68442Y-76343D01*
X68614Y-76343D02*
X68614Y-75743D01*
X68557Y-75829D01*
X68499Y-75886D01*
X68442Y-75914D01*
G54D11*
X64043Y-73943D02*
X64043Y-73343D01*
X64271Y-73343D01*
X64329Y-73371D01*
X64357Y-73400D01*
X64386Y-73457D01*
X64386Y-73543D01*
X64357Y-73600D01*
X64329Y-73629D01*
X64271Y-73657D01*
X64043Y-73657D01*
X64643Y-73943D02*
X64643Y-73543D01*
X64643Y-73657D02*
X64671Y-73600D01*
X64700Y-73571D01*
X64757Y-73543D01*
X64814Y-73543D01*
X65100Y-73943D02*
X65042Y-73914D01*
X65014Y-73886D01*
X64985Y-73829D01*
X64985Y-73657D01*
X65014Y-73600D01*
X65042Y-73571D01*
X65100Y-73543D01*
X65185Y-73543D01*
X65242Y-73571D01*
X65271Y-73600D01*
X65300Y-73657D01*
X65300Y-73829D01*
X65271Y-73886D01*
X65242Y-73914D01*
X65185Y-73943D01*
X65100Y-73943D01*
X65557Y-73543D02*
X65557Y-74057D01*
X65528Y-74114D01*
X65471Y-74143D01*
X65443Y-74143D01*
X65557Y-73343D02*
X65528Y-73371D01*
X65557Y-73400D01*
X65585Y-73371D01*
X65557Y-73343D01*
X65557Y-73400D01*
X66071Y-73914D02*
X66014Y-73943D01*
X65900Y-73943D01*
X65843Y-73914D01*
X65814Y-73857D01*
X65814Y-73629D01*
X65843Y-73571D01*
X65900Y-73543D01*
X66014Y-73543D01*
X66071Y-73571D01*
X66100Y-73629D01*
X66100Y-73686D01*
X65814Y-73743D01*
X66614Y-73914D02*
X66557Y-73943D01*
X66443Y-73943D01*
X66385Y-73914D01*
X66357Y-73886D01*
X66328Y-73829D01*
X66328Y-73657D01*
X66357Y-73600D01*
X66385Y-73571D01*
X66443Y-73543D01*
X66557Y-73543D01*
X66614Y-73571D01*
X66785Y-73543D02*
X67014Y-73543D01*
X66871Y-73343D02*
X66871Y-73857D01*
X66899Y-73914D01*
X66957Y-73943D01*
X67014Y-73943D01*
X67185Y-73914D02*
X67242Y-73943D01*
X67357Y-73943D01*
X67414Y-73914D01*
X67442Y-73857D01*
X67442Y-73829D01*
X67414Y-73771D01*
X67357Y-73743D01*
X67271Y-73743D01*
X67214Y-73714D01*
X67185Y-73657D01*
X67185Y-73629D01*
X67214Y-73571D01*
X67271Y-73543D01*
X67357Y-73543D01*
X67414Y-73571D01*
X68414Y-73943D02*
X68414Y-73629D01*
X68385Y-73571D01*
X68328Y-73543D01*
X68214Y-73543D01*
X68157Y-73571D01*
X68414Y-73914D02*
X68357Y-73943D01*
X68214Y-73943D01*
X68157Y-73914D01*
X68128Y-73857D01*
X68128Y-73800D01*
X68157Y-73743D01*
X68214Y-73714D01*
X68357Y-73714D01*
X68414Y-73686D01*
X68700Y-73543D02*
X68700Y-73943D01*
X68700Y-73600D02*
X68728Y-73571D01*
X68786Y-73543D01*
X68871Y-73543D01*
X68928Y-73571D01*
X68957Y-73629D01*
X68957Y-73943D01*
X69500Y-73943D02*
X69500Y-73343D01*
X69500Y-73914D02*
X69443Y-73943D01*
X69329Y-73943D01*
X69271Y-73914D01*
X69243Y-73886D01*
X69214Y-73829D01*
X69214Y-73657D01*
X69243Y-73600D01*
X69271Y-73571D01*
X69329Y-73543D01*
X69443Y-73543D01*
X69500Y-73571D01*
X70214Y-73914D02*
X70300Y-73943D01*
X70443Y-73943D01*
X70500Y-73914D01*
X70529Y-73886D01*
X70557Y-73829D01*
X70557Y-73771D01*
X70529Y-73714D01*
X70500Y-73686D01*
X70443Y-73657D01*
X70329Y-73629D01*
X70271Y-73600D01*
X70243Y-73571D01*
X70214Y-73514D01*
X70214Y-73457D01*
X70243Y-73400D01*
X70271Y-73371D01*
X70329Y-73343D01*
X70471Y-73343D01*
X70557Y-73371D01*
X70728Y-73543D02*
X70957Y-73543D01*
X70814Y-73343D02*
X70814Y-73857D01*
X70842Y-73914D01*
X70900Y-73943D01*
X70957Y-73943D01*
X71414Y-73543D02*
X71414Y-73943D01*
X71157Y-73543D02*
X71157Y-73857D01*
X71185Y-73914D01*
X71243Y-73943D01*
X71328Y-73943D01*
X71385Y-73914D01*
X71414Y-73886D01*
X71614Y-73543D02*
X71843Y-73543D01*
X71700Y-73943D02*
X71700Y-73429D01*
X71728Y-73371D01*
X71786Y-73343D01*
X71843Y-73343D01*
X71957Y-73543D02*
X72186Y-73543D01*
X72043Y-73943D02*
X72043Y-73429D01*
X72071Y-73371D01*
X72129Y-73343D01*
X72186Y-73343D01*
X73129Y-73943D02*
X72843Y-73943D01*
X72843Y-73343D01*
X73615Y-73943D02*
X73329Y-73943D01*
X73329Y-73343D01*
X74158Y-73886D02*
X74129Y-73914D01*
X74043Y-73943D01*
X73986Y-73943D01*
X73901Y-73914D01*
X73843Y-73857D01*
X73815Y-73800D01*
X73786Y-73686D01*
X73786Y-73600D01*
X73815Y-73486D01*
X73843Y-73429D01*
X73901Y-73371D01*
X73986Y-73343D01*
X74043Y-73343D01*
X74129Y-73371D01*
X74158Y-73400D01*
G54D10*
X64043Y-72743D02*
X64043Y-72143D01*
X64186Y-72143D01*
X64271Y-72171D01*
X64329Y-72229D01*
X64357Y-72286D01*
X64386Y-72400D01*
X64386Y-72486D01*
X64357Y-72600D01*
X64329Y-72657D01*
X64271Y-72714D01*
X64186Y-72743D01*
X64043Y-72743D01*
X64871Y-72714D02*
X64814Y-72743D01*
X64700Y-72743D01*
X64643Y-72714D01*
X64614Y-72657D01*
X64614Y-72429D01*
X64643Y-72371D01*
X64700Y-72343D01*
X64814Y-72343D01*
X64871Y-72371D01*
X64900Y-72429D01*
X64900Y-72486D01*
X64614Y-72543D01*
X65128Y-72714D02*
X65185Y-72743D01*
X65300Y-72743D01*
X65357Y-72714D01*
X65385Y-72657D01*
X65385Y-72629D01*
X65357Y-72571D01*
X65300Y-72543D01*
X65214Y-72543D01*
X65157Y-72514D01*
X65128Y-72457D01*
X65128Y-72429D01*
X65157Y-72371D01*
X65214Y-72343D01*
X65300Y-72343D01*
X65357Y-72371D01*
X65643Y-72743D02*
X65643Y-72343D01*
X65643Y-72143D02*
X65614Y-72171D01*
X65643Y-72200D01*
X65671Y-72171D01*
X65643Y-72143D01*
X65643Y-72200D01*
X66186Y-72343D02*
X66186Y-72829D01*
X66157Y-72886D01*
X66129Y-72914D01*
X66072Y-72943D01*
X65986Y-72943D01*
X65929Y-72914D01*
X66186Y-72714D02*
X66129Y-72743D01*
X66015Y-72743D01*
X65957Y-72714D01*
X65929Y-72686D01*
X65900Y-72629D01*
X65900Y-72457D01*
X65929Y-72400D01*
X65957Y-72371D01*
X66015Y-72343D01*
X66129Y-72343D01*
X66186Y-72371D01*
X66472Y-72343D02*
X66472Y-72743D01*
X66472Y-72400D02*
X66500Y-72371D01*
X66558Y-72343D01*
X66643Y-72343D01*
X66700Y-72371D01*
X66729Y-72429D01*
X66729Y-72743D01*
X67243Y-72714D02*
X67186Y-72743D01*
X67072Y-72743D01*
X67015Y-72714D01*
X66986Y-72657D01*
X66986Y-72429D01*
X67015Y-72371D01*
X67072Y-72343D01*
X67186Y-72343D01*
X67243Y-72371D01*
X67272Y-72429D01*
X67272Y-72486D01*
X66986Y-72543D01*
X67786Y-72743D02*
X67786Y-72143D01*
X67786Y-72714D02*
X67729Y-72743D01*
X67615Y-72743D01*
X67557Y-72714D01*
X67529Y-72686D01*
X67500Y-72629D01*
X67500Y-72457D01*
X67529Y-72400D01*
X67557Y-72371D01*
X67615Y-72343D01*
X67729Y-72343D01*
X67786Y-72371D01*
X68529Y-72743D02*
X68529Y-72143D01*
X68529Y-72371D02*
X68586Y-72343D01*
X68700Y-72343D01*
X68757Y-72371D01*
X68786Y-72400D01*
X68815Y-72457D01*
X68815Y-72629D01*
X68786Y-72686D01*
X68757Y-72714D01*
X68700Y-72743D01*
X68586Y-72743D01*
X68529Y-72714D01*
X69015Y-72343D02*
X69158Y-72743D01*
X69300Y-72343D02*
X69158Y-72743D01*
X69100Y-72886D01*
X69072Y-72914D01*
X69015Y-72943D01*
X69529Y-72686D02*
X69557Y-72714D01*
X69529Y-72743D01*
X69500Y-72714D01*
X69529Y-72686D01*
X69529Y-72743D01*
X69529Y-72371D02*
X69557Y-72400D01*
X69529Y-72429D01*
X69500Y-72400D01*
X69529Y-72371D01*
X69529Y-72429D01*
X70443Y-72143D02*
X70443Y-72571D01*
X70415Y-72657D01*
X70358Y-72714D01*
X70272Y-72743D01*
X70215Y-72743D01*
X70986Y-72743D02*
X70986Y-72429D01*
X70957Y-72371D01*
X70900Y-72343D01*
X70786Y-72343D01*
X70729Y-72371D01*
X70986Y-72714D02*
X70929Y-72743D01*
X70786Y-72743D01*
X70729Y-72714D01*
X70700Y-72657D01*
X70700Y-72600D01*
X70729Y-72543D01*
X70786Y-72514D01*
X70929Y-72514D01*
X70986Y-72486D01*
X71529Y-72714D02*
X71472Y-72743D01*
X71358Y-72743D01*
X71300Y-72714D01*
X71272Y-72686D01*
X71243Y-72629D01*
X71243Y-72457D01*
X71272Y-72400D01*
X71300Y-72371D01*
X71358Y-72343D01*
X71472Y-72343D01*
X71529Y-72371D01*
X71786Y-72743D02*
X71786Y-72143D01*
X71843Y-72514D02*
X72014Y-72743D01*
X72014Y-72343D02*
X71786Y-72571D01*
X72729Y-72743D02*
X72729Y-72143D01*
X72872Y-72143D01*
X72957Y-72171D01*
X73015Y-72229D01*
X73043Y-72286D01*
X73072Y-72400D01*
X73072Y-72486D01*
X73043Y-72600D01*
X73015Y-72657D01*
X72957Y-72714D01*
X72872Y-72743D01*
X72729Y-72743D01*
X74072Y-72743D02*
X73786Y-72743D01*
X73786Y-72143D01*
X74272Y-72743D02*
X74272Y-72343D01*
X74272Y-72143D02*
X74243Y-72171D01*
X74272Y-72200D01*
X74300Y-72171D01*
X74272Y-72143D01*
X74272Y-72200D01*
X74558Y-72343D02*
X74558Y-72743D01*
X74558Y-72400D02*
X74586Y-72371D01*
X74644Y-72343D01*
X74729Y-72343D01*
X74786Y-72371D01*
X74815Y-72429D01*
X74815Y-72743D01*
X75101Y-72743D02*
X75101Y-72143D01*
X75158Y-72514D02*
X75329Y-72743D01*
X75329Y-72343D02*
X75101Y-72571D01*
X75815Y-72714D02*
X75758Y-72743D01*
X75644Y-72743D01*
X75587Y-72714D01*
X75558Y-72657D01*
X75558Y-72429D01*
X75587Y-72371D01*
X75644Y-72343D01*
X75758Y-72343D01*
X75815Y-72371D01*
X75844Y-72429D01*
X75844Y-72486D01*
X75558Y-72543D01*
X63300Y-71900D02*
X63300Y-80300D01*
X63300Y-74300D02*
X105300Y-74300D01*
X63300Y-71900D02*
X105300Y-71900D01*
X63300Y-76700D02*
X105300Y-76700D01*
X96500Y-77900D02*
X96500Y-80300D01*
X63300Y-79100D02*
X105300Y-79100D01*
X63300Y-77900D02*
X105300Y-77900D01*
X69900Y-77900D02*
X69900Y-79100D01*
G54D12*
X28700Y-54650D02*
X28700Y-27150D01*
X78700Y-54650D02*
X28700Y-54650D01*
X78700Y-27150D02*
X78700Y-54650D01*
X28700Y-27150D02*
X78700Y-27150D01*
G54D13*
X41000Y-32300D03*
X38350Y-40700D03*
X57550Y-48750D03*
X61000Y-30250D03*
X75500Y-52950D03*
G54D14*
X74100Y-43450D03*
X74600Y-43450D03*
X75100Y-43450D03*
X75600Y-43450D03*
X76100Y-43450D03*
X76600Y-43450D03*
X77100Y-43450D03*
X77100Y-41350D03*
X76600Y-41350D03*
X76100Y-41350D03*
X75600Y-41350D03*
X75100Y-41350D03*
X74600Y-41350D03*
X74100Y-41350D03*
G54D15*
X77052Y-28091D03*
G54D16*
X77052Y-29091D03*
X76052Y-28091D03*
X76052Y-29091D03*
X75052Y-28091D03*
X75052Y-29091D03*
G54D17*
X70330Y-49719D03*
X69956Y-49719D03*
X70704Y-49719D03*
X70704Y-50821D03*
X69956Y-50821D03*
G54D18*
X48250Y-50700D03*
X52450Y-50700D03*
G54D19*
X64700Y-35989D03*
X64700Y-53311D03*
G54D20*
X73050Y-43100D03*
X73050Y-41800D03*
X72099Y-49945D03*
X73399Y-49945D03*
X70654Y-48596D03*
X69354Y-48596D03*
X71119Y-52038D03*
X69819Y-52038D03*
X72236Y-47572D03*
X70936Y-47572D03*
X73550Y-51400D03*
X72250Y-51400D03*
X74300Y-47900D03*
X74300Y-49200D03*
G54D21*
X77280Y-36650D03*
X76020Y-36650D03*
X71130Y-32600D03*
X69870Y-32600D03*
X65730Y-32600D03*
X64470Y-32600D03*
X71030Y-36600D03*
X69770Y-36600D03*
X71030Y-39500D03*
X69770Y-39500D03*
X74230Y-36650D03*
X72970Y-36650D03*
X74230Y-45800D03*
X72970Y-45800D03*
G54D22*
X42294Y-49752D03*
X44662Y-50696D03*
G54D23*
X52070Y-44690D03*
X51030Y-44690D03*
X51030Y-42410D03*
X52070Y-42410D03*
G54D24*
X48200Y-29150D03*
X50200Y-29150D03*
X52200Y-29150D03*
X54200Y-29150D03*
X56200Y-29150D03*
X56200Y-37150D03*
X54200Y-37150D03*
X52200Y-37150D03*
X50200Y-37150D03*
X48200Y-37150D03*
G54D25*
X33875Y-32950D03*
X37625Y-32950D03*
G54D26*
X42196Y-37150D03*
X44204Y-37150D03*
G54D27*
X58550Y-40496D03*
X58550Y-42504D03*
G54D28*
X76900Y-50450D03*
X76900Y-45850D03*
G54D29*
X48400Y-46150D03*
X38750Y-46000D03*
G54D30*
X70110Y-30050D03*
X71590Y-30050D03*
X64760Y-30050D03*
X66240Y-30050D03*
G54D31*
X45700Y-45150D03*
X42700Y-45150D03*
X40700Y-45150D03*
X46700Y-45150D03*
G54D32*
X34550Y-38450D03*
X34550Y-43950D03*
G54D33*
X76070Y-32600D03*
X75070Y-32600D03*
X77070Y-32600D03*
G54D25*
X32375Y-50200D03*
X36125Y-50200D03*
G54D34*
X77630Y-43042D03*
X76502Y-40844D03*
X76738Y-37604D03*
X75712Y-40847D03*
X77152Y-40682D03*
X74900Y-34800D03*
X51050Y-41700D03*
G54D35*
X72236Y-47572D02*
X72665Y-47572D01*
X71119Y-51609D02*
X71119Y-52038D01*
X71092Y-51609D02*
X71119Y-51609D01*
X70704Y-51221D02*
X71092Y-51609D01*
X70704Y-50821D02*
X70704Y-51221D01*
X72665Y-46780D02*
X72665Y-47572D01*
X72970Y-46475D02*
X72665Y-46780D01*
X72970Y-45800D02*
X72970Y-46475D01*
X72970Y-44988D02*
X72970Y-45800D01*
X74100Y-43858D02*
X72970Y-44988D01*
X74100Y-43450D02*
X74100Y-43858D01*
X74100Y-43100D02*
X73050Y-43100D01*
X74100Y-43450D02*
X74100Y-43100D01*
X72462Y-52038D02*
X71119Y-52038D01*
X72715Y-51785D02*
X72462Y-52038D01*
X72715Y-51484D02*
X72715Y-51785D01*
X74534Y-49665D02*
X72715Y-51484D01*
X74685Y-49665D02*
X74534Y-49665D01*
X74730Y-49620D02*
X74685Y-49665D01*
X74730Y-48807D02*
X74730Y-49620D01*
X74644Y-48721D02*
X74730Y-48807D01*
X73814Y-48721D02*
X74644Y-48721D01*
X72665Y-47572D02*
X73814Y-48721D01*
X78416Y-30455D02*
X77052Y-29091D01*
X78416Y-50499D02*
X78416Y-30455D01*
X77236Y-51679D02*
X78416Y-50499D01*
X74033Y-51679D02*
X77236Y-51679D01*
X73353Y-52359D02*
X74033Y-51679D01*
X73289Y-52359D02*
X73353Y-52359D01*
X72715Y-51785D02*
X73289Y-52359D01*
X66884Y-33276D02*
X66208Y-32600D01*
X72721Y-33276D02*
X66884Y-33276D01*
X73880Y-32117D02*
X72721Y-33276D01*
X77070Y-32117D02*
X73880Y-32117D01*
X77070Y-32600D02*
X77070Y-32117D01*
X65730Y-32600D02*
X66208Y-32600D01*
X47850Y-44000D02*
X46700Y-45150D01*
X49100Y-44000D02*
X47850Y-44000D01*
X50600Y-45500D02*
X49100Y-44000D01*
X51850Y-45500D02*
X50600Y-45500D01*
X52070Y-45280D02*
X51850Y-45500D01*
X52070Y-44690D02*
X52070Y-45280D01*
X72250Y-51400D02*
X72250Y-50380D01*
X72970Y-49945D02*
X73399Y-49945D01*
X72535Y-50380D02*
X72970Y-49945D01*
X72250Y-50380D02*
X72535Y-50380D01*
X72250Y-50380D02*
X70552Y-50380D01*
X69819Y-51609D02*
X69819Y-52038D01*
X70332Y-51096D02*
X69819Y-51609D01*
X70332Y-50600D02*
X70332Y-51096D01*
X70552Y-50380D02*
X70332Y-50600D01*
X69354Y-48596D02*
X69569Y-48596D01*
X70330Y-50158D02*
X70330Y-50120D01*
X70552Y-50380D02*
X70330Y-50158D01*
X70330Y-50120D02*
X70330Y-49719D01*
X69569Y-50097D02*
X69569Y-48596D01*
X69592Y-50120D02*
X69569Y-50097D01*
X70330Y-50120D02*
X69592Y-50120D01*
X70507Y-47658D02*
X69569Y-48596D01*
X70507Y-47572D02*
X70507Y-47658D01*
X70936Y-47572D02*
X70507Y-47572D01*
X72845Y-30050D02*
X72200Y-30050D01*
X73804Y-29091D02*
X72845Y-30050D01*
X75052Y-29091D02*
X73804Y-29091D01*
X68054Y-44690D02*
X70936Y-47572D01*
X52070Y-44690D02*
X68054Y-44690D01*
X71874Y-30050D02*
X71590Y-30050D01*
X66524Y-30050D02*
X67050Y-30050D01*
X67050Y-30050D02*
X66524Y-30050D01*
X66240Y-30050D02*
X66524Y-30050D01*
X73479Y-41800D02*
X73050Y-41800D01*
X73521Y-41758D02*
X73479Y-41800D01*
X74100Y-41758D02*
X73521Y-41758D01*
X74100Y-41350D02*
X74100Y-41758D01*
X71795Y-42260D02*
X72255Y-41800D01*
X71795Y-48027D02*
X71795Y-42260D01*
X72968Y-49200D02*
X71795Y-48027D01*
X73399Y-49200D02*
X72968Y-49200D01*
X73050Y-41800D02*
X72255Y-41800D01*
X70248Y-39793D02*
X72255Y-41800D01*
X70248Y-39500D02*
X70248Y-39793D01*
X69770Y-39500D02*
X70248Y-39500D01*
X69770Y-39500D02*
X69770Y-36600D01*
X68565Y-36600D02*
X69770Y-36600D01*
X65250Y-33285D02*
X68565Y-36600D01*
X65250Y-31723D02*
X65250Y-33285D01*
X66240Y-30733D02*
X65250Y-31723D01*
X66240Y-30050D02*
X66240Y-30733D01*
X67495Y-30050D02*
X67050Y-30050D01*
X68466Y-29079D02*
X67495Y-30050D01*
X70903Y-29079D02*
X68466Y-29079D01*
X70904Y-29080D02*
X70903Y-29079D01*
X70904Y-30050D02*
X70904Y-29080D01*
X71590Y-30050D02*
X70904Y-30050D01*
X72491Y-36650D02*
X72970Y-36650D01*
X71765Y-35924D02*
X72491Y-36650D01*
X70446Y-35924D02*
X71765Y-35924D01*
X70248Y-36122D02*
X70446Y-35924D01*
X70248Y-36600D02*
X70248Y-36122D01*
X69770Y-36600D02*
X70248Y-36600D01*
X71874Y-30050D02*
X72200Y-30050D01*
X71590Y-30050D02*
X71874Y-30050D01*
X71874Y-30050D02*
X72200Y-30050D01*
X74300Y-49200D02*
X73399Y-49200D01*
X73399Y-49200D02*
X73399Y-49945D01*
X74230Y-36650D02*
X74708Y-36650D01*
X76100Y-43042D02*
X76100Y-43450D01*
X77510Y-41632D02*
X76100Y-43042D01*
X77510Y-39452D02*
X77510Y-41632D01*
X74708Y-36650D02*
X77510Y-39452D01*
X75600Y-44908D02*
X75600Y-44262D01*
X74708Y-45800D02*
X75600Y-44908D01*
X74230Y-45800D02*
X74708Y-45800D01*
X75600Y-44262D02*
X75600Y-43450D01*
X75552Y-28591D02*
X75052Y-28091D01*
X75552Y-29791D02*
X75552Y-28591D01*
X78112Y-32351D02*
X75552Y-29791D01*
X78112Y-43562D02*
X78112Y-32351D01*
X77412Y-44262D02*
X78112Y-43562D01*
X75600Y-44262D02*
X77412Y-44262D01*
X77100Y-43450D02*
X77100Y-43042D01*
X77630Y-43042D02*
X77100Y-43042D01*
X76600Y-41350D02*
X76600Y-40942D01*
X76502Y-40844D02*
X76600Y-40942D01*
X76070Y-32600D02*
X76070Y-33083D01*
X76100Y-39842D02*
X76100Y-41350D01*
X73750Y-37492D02*
X76100Y-39842D01*
X73750Y-35403D02*
X73750Y-37492D01*
X76070Y-33083D02*
X73750Y-35403D01*
X75600Y-41350D02*
X75600Y-40942D01*
X77280Y-36650D02*
X77280Y-37325D01*
X75617Y-40942D02*
X75712Y-40847D01*
X75600Y-40942D02*
X75617Y-40942D01*
X77001Y-37604D02*
X76738Y-37604D01*
X77280Y-37325D02*
X77001Y-37604D01*
X73158Y-39500D02*
X74600Y-40942D01*
X71030Y-39500D02*
X73158Y-39500D01*
X74600Y-40942D02*
X74600Y-41350D01*
X76600Y-42954D02*
X76600Y-43450D01*
X77793Y-41761D02*
X76600Y-42954D01*
X77793Y-32405D02*
X77793Y-41761D01*
X77232Y-31844D02*
X77793Y-32405D01*
X72364Y-31844D02*
X77232Y-31844D01*
X71608Y-32600D02*
X72364Y-31844D01*
X71130Y-32600D02*
X71608Y-32600D01*
X69870Y-32600D02*
X69870Y-30630D01*
X70110Y-30390D02*
X69870Y-30630D01*
X70110Y-30050D02*
X70110Y-30390D01*
X69870Y-30094D02*
X69826Y-30050D01*
X69870Y-30630D02*
X69870Y-30094D01*
X64470Y-32600D02*
X64470Y-30630D01*
X64470Y-30056D02*
X64476Y-30050D01*
X64470Y-30630D02*
X64470Y-30056D01*
X64760Y-30340D02*
X64470Y-30630D01*
X64760Y-30050D02*
X64760Y-30340D01*
X77100Y-40734D02*
X77100Y-41350D01*
X77152Y-40682D02*
X77100Y-40734D01*
G54D36*
X40700Y-42758D02*
X40700Y-45150D01*
X44204Y-39254D02*
X40700Y-42758D01*
X44204Y-37150D02*
X44204Y-39254D01*
X40650Y-45200D02*
X40700Y-45150D01*
X40650Y-48500D02*
X40650Y-45200D01*
X41902Y-49752D02*
X40650Y-48500D01*
X42494Y-49752D02*
X41902Y-49752D01*
X63511Y-34800D02*
X64700Y-35989D01*
X46350Y-34800D02*
X63511Y-34800D01*
X44204Y-36946D02*
X46350Y-34800D01*
X44204Y-37150D02*
X44204Y-36946D01*
X34550Y-33625D02*
X33875Y-32950D01*
X34550Y-33625D02*
X33875Y-32950D01*
X34600Y-33675D02*
X34550Y-33625D01*
X34600Y-38400D02*
X34600Y-33675D01*
X34550Y-38450D02*
X34550Y-33625D01*
G54D35*
X57546Y-40496D02*
X54200Y-37150D01*
X58550Y-40496D02*
X57546Y-40496D01*
X75650Y-36280D02*
X76020Y-36650D01*
X75650Y-35550D02*
X75650Y-36280D01*
X74900Y-34800D02*
X75650Y-35550D01*
X75100Y-40942D02*
X75100Y-41350D01*
X71433Y-37275D02*
X75100Y-40942D01*
X71030Y-37275D02*
X71433Y-37275D01*
X71030Y-36600D02*
X71030Y-37275D01*
G54D36*
X52450Y-50700D02*
X52450Y-51100D01*
X63539Y-52150D02*
X64700Y-53311D01*
X53500Y-52150D02*
X63539Y-52150D01*
X52450Y-51100D02*
X53500Y-52150D01*
X52950Y-52150D02*
X53500Y-52150D01*
X52400Y-52150D02*
X52950Y-52150D01*
X52950Y-52150D02*
X52450Y-50700D01*
X52450Y-50700D02*
X52450Y-51100D01*
X52450Y-51650D02*
X52950Y-52150D01*
X52450Y-51100D02*
X52450Y-51650D01*
X36125Y-50825D02*
X38150Y-52850D01*
X36125Y-50200D02*
X36125Y-50825D01*
X44462Y-50696D02*
X44554Y-50696D01*
X44462Y-50696D02*
X44554Y-50696D01*
X43400Y-45850D02*
X42700Y-45150D01*
X43400Y-46600D02*
X43400Y-45850D01*
X45050Y-48250D02*
X43400Y-46600D01*
X45050Y-50200D02*
X45050Y-48250D01*
X44554Y-50696D02*
X45050Y-50200D01*
X48246Y-50696D02*
X48250Y-50700D01*
X44554Y-50696D02*
X48246Y-50696D01*
X44462Y-51988D02*
X44462Y-50696D01*
X43600Y-52850D02*
X44462Y-51988D01*
X38150Y-52850D02*
X43600Y-52850D01*
X36075Y-50775D02*
X38150Y-52850D01*
X36075Y-50150D02*
X36075Y-50775D01*
X34600Y-43900D02*
X34550Y-43950D01*
X30950Y-40250D02*
X34600Y-43900D01*
X30950Y-31800D02*
X30950Y-40250D01*
X33600Y-29150D02*
X30950Y-31800D01*
X48200Y-29150D02*
X33600Y-29150D01*
X32325Y-50150D02*
X32325Y-46175D01*
X32375Y-50200D02*
X32375Y-46125D01*
X32375Y-46125D02*
X34550Y-43950D01*
X34550Y-43950D02*
X32375Y-46125D01*
X32375Y-46125D02*
X32325Y-46175D01*
X32325Y-46175D02*
X32375Y-46125D01*
X32375Y-46125D02*
X34550Y-43950D01*
G54D35*
X50200Y-39250D02*
X52070Y-41120D01*
X50200Y-37150D02*
X50200Y-39250D01*
X52070Y-41120D02*
X52070Y-42410D01*
X51030Y-41720D02*
X51050Y-41700D01*
X51030Y-42410D02*
X51030Y-41720D01*
X70704Y-49320D02*
X70654Y-49320D01*
X70704Y-49519D02*
X70704Y-49320D01*
X69956Y-49320D02*
X69956Y-49719D01*
X70654Y-49320D02*
X69956Y-49320D01*
X71670Y-49945D02*
X72099Y-49945D01*
X71244Y-49519D02*
X71670Y-49945D01*
X70704Y-49519D02*
X71244Y-49519D01*
X70654Y-48596D02*
X70654Y-49320D01*
X70704Y-49719D02*
X70704Y-49519D01*
X71083Y-48596D02*
X70654Y-48596D01*
X71409Y-48270D02*
X71083Y-48596D01*
X71409Y-47137D02*
X71409Y-48270D01*
X68529Y-44257D02*
X71409Y-47137D01*
X51030Y-44257D02*
X68529Y-44257D01*
X51030Y-44690D02*
X51030Y-44257D01*
X76900Y-46250D02*
X76900Y-47200D01*
X74300Y-47900D02*
X74300Y-47685D01*
X76900Y-47358D02*
X76900Y-47200D01*
X76573Y-47685D02*
X76900Y-47358D01*
X74300Y-47685D02*
X76573Y-47685D01*
X75100Y-43858D02*
X75100Y-43450D01*
X73750Y-45208D02*
X75100Y-43858D01*
X73750Y-46921D02*
X73750Y-45208D01*
X74300Y-47471D02*
X73750Y-46921D01*
X74300Y-47685D02*
X74300Y-47471D01*
X76900Y-46250D02*
X76900Y-47200D01*
X76900Y-45850D02*
X76900Y-46250D01*
X76900Y-50050D02*
X76900Y-50450D01*
X73979Y-51400D02*
X75414Y-49965D01*
X73550Y-51400D02*
X73979Y-51400D01*
X76261Y-49965D02*
X75414Y-49965D01*
X76400Y-50104D02*
X76261Y-49965D01*
X76400Y-50100D02*
X76400Y-50104D01*
X76750Y-50450D02*
X76400Y-50100D01*
X76900Y-50450D02*
X76750Y-50450D01*
X76900Y-50604D02*
X76400Y-50104D01*
X76900Y-50450D02*
X76900Y-50604D01*
X74600Y-43908D02*
X74600Y-43450D01*
X73449Y-45059D02*
X74600Y-43908D01*
X73449Y-47892D02*
X73449Y-45059D01*
X73921Y-48364D02*
X73449Y-47892D01*
X74994Y-48364D02*
X73921Y-48364D01*
X75414Y-48784D02*
X74994Y-48364D01*
X75414Y-49965D02*
X75414Y-48784D01*
G54D36*
X55000Y-31850D02*
X56200Y-30650D01*
X45800Y-31850D02*
X55000Y-31850D01*
X42196Y-35454D02*
X45800Y-31850D01*
X42196Y-37150D02*
X42196Y-35454D01*
X37625Y-33875D02*
X37625Y-32950D01*
X40900Y-37150D02*
X37625Y-33875D01*
X42196Y-37150D02*
X40900Y-37150D01*
X56200Y-30650D02*
X56200Y-29150D01*
M02*
