M48
;DRILL file {PCBnew (2011-07-08 BZR 3044)-stable} date 11/18/2011 4:50:42 PM
;FORMAT={-:-/ absolute / inch / decimal}
FMAT,2
INCH,TZ
T1C0.020
T2C0.025
T3C0.032
T4C0.032
T5C0.040
T6C0.045
T7C0.045
T8C0.055
T9C0.065
T10C0.076
T11C0.160
T12C0.200
%
G90
G05
M72
T2
X5.105Y4.170
X7.490Y3.480
X7.571Y4.085
X7.650Y4.084
X7.674Y3.760
X7.715Y4.068
X7.763Y4.304
T3
X4.249Y4.975
T4
X4.446Y5.070
T5
X4.070Y4.515
X4.270Y4.515
X4.570Y4.515
X4.670Y4.515
X7.505Y2.809
X7.505Y2.909
X7.605Y2.809
X7.605Y2.909
X7.705Y2.809
X7.705Y2.909
T7
X4.220Y3.715
X4.420Y3.715
X5.855Y4.050
X5.855Y4.250
T8
X6.470Y3.599
X6.470Y5.331
T9
X4.820Y2.915
X4.820Y3.715
X5.020Y2.915
X5.020Y3.715
X5.220Y2.915
X5.220Y3.715
X5.420Y2.915
X5.420Y3.715
X5.620Y2.915
X5.620Y3.715
T10
X3.238Y5.020
X3.388Y3.295
X3.613Y5.020
X3.763Y3.295
T11
X3.455Y3.845
X3.455Y4.395
T1
X7.499Y3.260G85X7.515Y3.260
G05
X7.599Y3.260G85X7.615Y3.260
G05
X7.699Y3.260G85X7.715Y3.260
G05
T6
X3.875Y4.578G85X3.875Y4.623
G05
X4.840Y4.593G85X4.840Y4.638
G05
T12
X3.835Y4.070G85X3.835Y4.070
G05
X4.100Y3.230G85X4.100Y3.230
G05
X5.755Y4.875G85X5.755Y4.875
G05
X6.100Y3.025G85X6.100Y3.025
G05
X7.550Y5.295G85X7.550Y5.295
G05
T0
M30
